<svg width="137" height="111" viewBox="0 0 137 111" fill="none" xmlns="http://www.w3.org/2000/svg">
<path opacity="0.6" d="M133.041 83.0609C128.761 95.8705 112.261 103.283 112.261 103.283L54.8812 103.932H29.7502C8.54137 103.932 2.89972 102.171 2.05718 81.9144C0.947346 55.2493 17.589 42.5371 28.4055 35.0962C39.222 27.6553 52.2727 -1.19882 84.9895 0.038625C89.9875 0.20626 94.9515 1.01708 99.7834 2.45505C110.798 5.78737 122 13.1568 128.5 23.9333C128.988 24.7409 129.455 25.568 129.9 26.4146C138.604 42.9398 138.88 65.6003 133.041 83.0609Z" fill="url(#paint0_linear_46_37821)"/>
<path fill-rule="evenodd" clip-rule="evenodd" d="M86.2085 41.9953L45.6044 21L5.00021 41.9953H5.05037V47.1451H86.2586V41.9953L86.2085 41.9953ZM5 90.7203H86.2083V95.8701H5V90.7203ZM11.3389 49.1258H21.6385V51.5026H11.3389V49.1258ZM11.3388 86.3626H21.6384V88.7395H11.3388V86.3626ZM20.8462 52.2948H12.1312V85.5704H20.8462V52.2948ZM30.7498 49.1258H41.0494V51.5026H30.7498V49.1258ZM41.0492 86.3626H30.7496V88.7395H41.0492V86.3626ZM31.542 52.2948H40.257V85.5704H31.542V52.2948ZM60.4598 49.1258H50.1603V51.5026H60.4598V49.1258ZM50.1603 86.3626H60.4599V88.7395H50.1603V86.3626ZM59.6677 52.2948H50.9527V85.5704H59.6677V52.2948ZM69.5701 49.1258H79.8697V51.5026H69.5701V49.1258ZM79.8695 86.3626H69.5699V88.7395H79.8695V86.3626ZM70.3623 52.2948H79.0773V85.5704H70.3623V52.2948Z" fill="#A5C9FF"/>
<ellipse cx="45.8032" cy="36.4492" rx="6.73434" ry="6.73434" fill="white"/>
<path d="M47.9175 40.8069C45.7516 38.2921 44.6687 37.0162 44.6687 36.979V36.9679C45.1475 36.9679 45.6487 36.8434 46.1724 36.5945C46.453 36.4831 46.7466 36.2398 47.0534 35.8646C47.2853 35.4932 47.4125 35.1756 47.4349 34.9118H48.4337C48.4412 34.9118 48.617 34.6555 48.9611 34.1429C48.9611 34.1318 48.9518 34.1243 48.9331 34.1206H47.3956C47.3246 33.79 47.1899 33.5096 46.9917 33.2793H48.4337C48.4748 33.2458 48.6544 32.9858 48.9723 32.4992V32.488H43.5745C43.5633 32.488 43.3856 32.7425 43.0415 33.2514V33.2793L44.4667 33.2793C44.7061 33.2793 44.9754 33.3275 45.2747 33.4241C45.6936 33.5876 45.9761 33.816 46.1219 34.1095V34.1206H43.5745C43.5671 34.1206 43.3856 34.3769 43.0303 34.8895C43.0303 34.9044 43.0378 34.9118 43.0527 34.9118H46.2622C46.2622 35.0307 46.2398 35.1458 46.1949 35.2573C45.9069 36.0188 45.1718 36.3995 43.9898 36.3995C43.7391 36.3995 43.5203 36.3865 43.3333 36.3605L43.322 36.3884V37.1295C43.322 37.1406 44.3769 38.3664 46.4867 40.8069H47.9175Z" fill="#A5C9FF"/>
<path d="M72.84 63.2883H76.0334V69.3848H71.6787L72.84 63.2883Z" fill="#CD3C5D"/>
<path d="M54.0769 55.596C55.2486 53.9557 57.1403 52.9822 59.156 52.9822H87.6849C89.7006 52.9822 91.5923 53.9557 92.764 55.596L102.51 69.2397H44.3314L54.0769 55.596Z" fill="white" fill-opacity="0.4" stroke="#F95E6A" stroke-width="2.03219"/>
<rect x="75.1631" y="53.4176" width="1.74188" height="16.8382" fill="#F95E6A"/>
<path d="M51.3568 68.2236C51.3568 68.9451 50.5726 69.53 48.8891 69.53C47.2056 69.53 45.8408 69.3805 45.8408 68.659C45.8408 67.9375 47.3507 65.9011 49.0343 65.9011C50.7178 65.9011 51.3568 67.5021 51.3568 68.2236Z" fill="#CD3C5D"/>
<path d="M42.3569 70.2558H116.967C121.136 70.2558 124.516 73.6352 124.516 77.8039V82.1586H42.3569V70.2558Z" fill="#F95E6A"/>
<rect x="48.4541" y="68.2236" width="52.837" height="0.870939" fill="#CD3C5D"/>
<path d="M17.3906 79.1291C17.3906 76.4366 19.3345 74.1376 21.9895 73.6899L42.3576 70.2558V82.1586H17.3906L17.3906 79.1291Z" fill="#F95E6A"/>
<rect x="17.3906" y="79.5458" width="107.126" height="14.5157" fill="#CE3A5E"/>
<path d="M54.8406 92.3196C54.8406 87.6228 52.9748 83.1185 49.6537 79.7973C46.3326 76.4762 41.8282 74.6105 37.1315 74.6105C32.4347 74.6105 27.9303 76.4762 24.6092 79.7973C21.2881 83.1184 19.4224 87.6228 19.4224 92.3196L37.1315 92.3196H54.8406Z" fill="#CE3A5E"/>
<path d="M47.5832 94.9324C47.5832 92.1606 46.4821 89.5022 44.5221 87.5422C42.5621 85.5823 39.9038 84.4811 37.1319 84.4811C34.3601 84.4811 31.7018 85.5823 29.7418 87.5422C27.7818 89.5022 26.6807 92.1606 26.6807 94.9324L37.1319 94.9324H47.5832Z" fill="#161446"/>
<ellipse cx="37.1318" cy="94.9324" rx="8.7094" ry="8.70939" fill="#456DA8"/>
<path d="M37.1314 98.9968C39.3761 98.9968 41.1958 97.1771 41.1958 94.9324C41.1958 92.6877 39.3761 90.868 37.1314 90.868C34.8867 90.868 33.067 92.6877 33.067 94.9324C33.067 97.1771 34.8867 98.9968 37.1314 98.9968Z" fill="#87A5D0" stroke="#D3E5FF" stroke-width="2.90313"/>
<path d="M121.903 92.3196C121.903 87.6228 120.037 83.1185 116.716 79.7973C113.395 76.4762 108.891 74.6105 104.194 74.6105C99.4972 74.6105 94.9928 76.4762 91.6717 79.7973C88.3506 83.1184 86.4849 87.6228 86.4849 92.3196L104.194 92.3196H121.903Z" fill="#CE3A5E"/>
<path d="M114.646 94.9324C114.646 92.1606 113.545 89.5022 111.585 87.5422C109.625 85.5823 106.966 84.4811 104.194 84.4811C101.423 84.4811 98.7643 85.5823 96.8043 87.5422C94.8443 89.5022 93.7432 92.1606 93.7432 94.9324L104.194 94.9324H114.646Z" fill="#161446"/>
<ellipse cx="104.194" cy="94.9324" rx="8.7094" ry="8.70939" fill="#456DA8"/>
<path d="M104.194 98.9968C106.439 98.9968 108.258 97.1771 108.258 94.9324C108.258 92.6877 106.439 90.868 104.194 90.868C101.949 90.868 100.129 92.6877 100.129 94.9324C100.129 97.1771 101.949 98.9968 104.194 98.9968Z" fill="#5491ED" stroke="#D3E5FF" stroke-width="2.90313"/>
<path d="M20.584 94.0615H26.2451C26.8063 94.0615 27.2612 94.5164 27.2612 95.0776C27.2612 95.6387 26.8063 96.0937 26.2451 96.0937H20.584V94.0615Z" fill="#BDD7FF"/>
<path d="M115.226 94.0615H124.661C125.222 94.0615 125.677 94.5164 125.677 95.0776C125.677 95.6387 125.222 96.0937 124.661 96.0937H115.226V94.0615Z" fill="#A5BBDD"/>
<path d="M94.6133 95.0776C94.6133 94.5164 94.1584 94.0615 93.5972 94.0615H47.4374C46.8762 94.0615 46.4213 94.5164 46.4213 95.0776C46.4213 95.6387 46.8762 96.0937 47.4374 96.0937H93.5972C94.1584 96.0937 94.6133 95.6387 94.6133 95.0776Z" fill="#BDD7FF"/>
<path d="M20.584 92.3196H15.7938C14.7516 92.3196 13.9068 93.1644 13.9068 94.2066C13.9068 95.2488 14.7516 96.0937 15.7938 96.0937H20.584V92.3196Z" fill="#8DBCFF"/>
<rect x="15.3584" y="80.4167" width="6.96752" height="4.93532" rx="2.46766" fill="#FCC752"/>
<rect x="15.939" y="86.223" width="4.64501" height="1.45157" rx="0.725783" fill="#F09F3C"/>
<rect x="75.1631" y="76.0621" width="0.580627" height="6.96751" rx="0.290313" fill="#CE3A5E"/>
<rect x="66.4531" y="75.1911" width="5.22564" height="0.870939" rx="0.43547" fill="#CE3A5E"/>
<rect x="85.6143" y="75.1911" width="5.22564" height="0.870939" rx="0.43547" fill="#CE3A5E"/>
<mask id="path-30-inside-1_46_37821" fill="white">
<path d="M69.9375 90.5777C69.9375 90.0967 70.3274 89.7068 70.8084 89.7068H94.9044C95.3855 89.7068 95.7754 90.0967 95.7754 90.5777V92.3196C95.7754 92.8006 95.3855 93.1905 94.9044 93.1905H70.8084C70.3274 93.1905 69.9375 92.8006 69.9375 92.3196V90.5777Z"/>
</mask>
<path d="M69.9375 90.5777C69.9375 90.0967 70.3274 89.7068 70.8084 89.7068H94.9044C95.3855 89.7068 95.7754 90.0967 95.7754 90.5777V92.3196C95.7754 92.8006 95.3855 93.1905 94.9044 93.1905H70.8084C70.3274 93.1905 69.9375 92.8006 69.9375 92.3196V90.5777Z" fill="#FFC856"/>
<path d="M69.9375 89.7068H95.7754H69.9375ZM95.7754 92.3196C95.7754 93.1213 95.1255 93.7712 94.3238 93.7712H71.3891C70.5874 93.7712 69.9375 93.1213 69.9375 92.3196C69.9375 92.4799 70.3274 92.6099 70.8084 92.6099H94.9044C95.3855 92.6099 95.7754 92.4799 95.7754 92.3196ZM69.9375 93.1905V89.7068V93.1905ZM95.7754 89.7068V93.1905V89.7068Z" fill="#F99C51" mask="url(#path-30-inside-1_46_37821)"/>
<mask id="path-32-inside-2_46_37821" fill="white">
<path d="M69.3574 94.0615C69.3574 93.5805 69.7474 93.1906 70.2284 93.1906H94.3244C94.8054 93.1906 95.1953 93.5805 95.1953 94.0615V95.8034C95.1953 96.2844 94.8054 96.6743 94.3244 96.6743H70.2284C69.7474 96.6743 69.3574 96.2844 69.3574 95.8034V94.0615Z"/>
</mask>
<path d="M69.3574 94.0615C69.3574 93.5805 69.7474 93.1906 70.2284 93.1906H94.3244C94.8054 93.1906 95.1953 93.5805 95.1953 94.0615V95.8034C95.1953 96.2844 94.8054 96.6743 94.3244 96.6743H70.2284C69.7474 96.6743 69.3574 96.2844 69.3574 95.8034V94.0615Z" fill="#FFC856"/>
<path d="M69.3574 93.1906H95.1953H69.3574ZM95.1953 95.8034C95.1953 96.605 94.5454 97.2549 93.7437 97.2549H70.809C70.0073 97.2549 69.3574 96.605 69.3574 95.8034C69.3574 95.9637 69.7474 96.0937 70.2284 96.0937H94.3244C94.8054 96.0937 95.1953 95.9637 95.1953 95.8034ZM69.3574 96.6743V93.1906V96.6743ZM95.1953 93.1906V96.6743V93.1906Z" fill="#F99C51" mask="url(#path-32-inside-2_46_37821)"/>
<mask id="path-34-inside-3_46_37821" fill="white">
<path d="M68.1958 97.5453C68.1958 97.0642 68.5857 96.6743 69.0667 96.6743H93.1627C93.6438 96.6743 94.0337 97.0642 94.0337 97.5453V99.2871C94.0337 99.7681 93.6438 100.158 93.1627 100.158H69.0667C68.5857 100.158 68.1958 99.7681 68.1958 99.2871V97.5453Z"/>
</mask>
<path d="M68.1958 97.5453C68.1958 97.0642 68.5857 96.6743 69.0667 96.6743H93.1627C93.6438 96.6743 94.0337 97.0642 94.0337 97.5453V99.2871C94.0337 99.7681 93.6438 100.158 93.1627 100.158H69.0667C68.5857 100.158 68.1958 99.7681 68.1958 99.2871V97.5453Z" fill="#FFC856"/>
<path d="M68.1958 96.6743H94.0337H68.1958ZM94.0337 99.2871C94.0337 100.089 93.3838 100.739 92.5821 100.739H69.6474C68.8457 100.739 68.1958 100.089 68.1958 99.2871C68.1958 99.4475 68.5857 99.5774 69.0667 99.5774H93.1627C93.6438 99.5774 94.0337 99.4475 94.0337 99.2871ZM68.1958 100.158V96.6743V100.158ZM94.0337 96.6743V100.158V96.6743Z" fill="#F99C51" mask="url(#path-34-inside-3_46_37821)"/>
<mask id="path-36-inside-4_46_37821" fill="white">
<path d="M69.3574 101.029C69.3574 100.548 69.7474 100.158 70.2284 100.158H94.3244C94.8054 100.158 95.1953 100.548 95.1953 101.029V102.771C95.1953 103.252 94.8054 103.642 94.3244 103.642H70.2284C69.7474 103.642 69.3574 103.252 69.3574 102.771V101.029Z"/>
</mask>
<path d="M69.3574 101.029C69.3574 100.548 69.7474 100.158 70.2284 100.158H94.3244C94.8054 100.158 95.1953 100.548 95.1953 101.029V102.771C95.1953 103.252 94.8054 103.642 94.3244 103.642H70.2284C69.7474 103.642 69.3574 103.252 69.3574 102.771V101.029Z" fill="#FFC856"/>
<path d="M69.3574 100.158H95.1953H69.3574ZM95.1953 102.771C95.1953 103.573 94.5454 104.222 93.7437 104.222H70.809C70.0073 104.222 69.3574 103.573 69.3574 102.771C69.3574 102.931 69.7474 103.061 70.2284 103.061H94.3244C94.8054 103.061 95.1953 102.931 95.1953 102.771ZM69.3574 103.642V100.158V103.642ZM95.1953 100.158V103.642V100.158Z" fill="#F99C51" mask="url(#path-36-inside-4_46_37821)"/>
<mask id="path-38-inside-5_46_37821" fill="white">
<path d="M99.2593 90.5777C99.2593 90.0967 99.6492 89.7068 100.13 89.7068H124.226C124.707 89.7068 125.097 90.0967 125.097 90.5777V92.3196C125.097 92.8006 124.707 93.1905 124.226 93.1905H100.13C99.6492 93.1905 99.2593 92.8006 99.2593 92.3196V90.5777Z"/>
</mask>
<path d="M99.2593 90.5777C99.2593 90.0967 99.6492 89.7068 100.13 89.7068H124.226C124.707 89.7068 125.097 90.0967 125.097 90.5777V92.3196C125.097 92.8006 124.707 93.1905 124.226 93.1905H100.13C99.6492 93.1905 99.2593 92.8006 99.2593 92.3196V90.5777Z" fill="#FFC856"/>
<path d="M99.2593 89.7068H125.097H99.2593ZM125.097 92.3196C125.097 93.1213 124.447 93.7712 123.646 93.7712H100.711C99.9092 93.7712 99.2593 93.1213 99.2593 92.3196C99.2593 92.4799 99.6492 92.6099 100.13 92.6099H124.226C124.707 92.6099 125.097 92.4799 125.097 92.3196ZM99.2593 93.1905V89.7068V93.1905ZM125.097 89.7068V93.1905V89.7068Z" fill="#F99C51" mask="url(#path-38-inside-5_46_37821)"/>
<mask id="path-40-inside-6_46_37821" fill="white">
<path d="M102.453 87.094C102.453 86.613 102.843 86.223 103.324 86.223H127.42C127.901 86.223 128.291 86.613 128.291 87.094V88.8358C128.291 89.3168 127.901 89.7068 127.42 89.7068H103.324C102.843 89.7068 102.453 89.3168 102.453 88.8358V87.094Z"/>
</mask>
<path d="M102.453 87.094C102.453 86.613 102.843 86.223 103.324 86.223H127.42C127.901 86.223 128.291 86.613 128.291 87.094V88.8358C128.291 89.3168 127.901 89.7068 127.42 89.7068H103.324C102.843 89.7068 102.453 89.3168 102.453 88.8358V87.094Z" fill="#FFC856"/>
<path d="M102.453 86.223H128.291H102.453ZM128.291 88.8358C128.291 89.6375 127.641 90.2874 126.839 90.2874H103.905C103.103 90.2874 102.453 89.6375 102.453 88.8358C102.453 88.9962 102.843 89.1262 103.324 89.1262H127.42C127.901 89.1262 128.291 88.9962 128.291 88.8358ZM102.453 89.7068V86.223V89.7068ZM128.291 86.223V89.7068V86.223Z" fill="#F99C51" mask="url(#path-40-inside-6_46_37821)"/>
<mask id="path-42-inside-7_46_37821" fill="white">
<path d="M99.8398 83.6102C99.8398 83.1292 100.23 82.7393 100.711 82.7393H124.807C125.288 82.7393 125.678 83.1292 125.678 83.6102V85.3521C125.678 85.8331 125.288 86.223 124.807 86.223H100.711C100.23 86.223 99.8398 85.8331 99.8398 85.3521V83.6102Z"/>
</mask>
<path d="M99.8398 83.6102C99.8398 83.1292 100.23 82.7393 100.711 82.7393H124.807C125.288 82.7393 125.678 83.1292 125.678 83.6102V85.3521C125.678 85.8331 125.288 86.223 124.807 86.223H100.711C100.23 86.223 99.8398 85.8331 99.8398 85.3521V83.6102Z" fill="#FFC856"/>
<path d="M99.8398 82.7393H125.678H99.8398ZM125.678 85.3521C125.678 86.1538 125.028 86.8036 124.226 86.8036H101.291C100.49 86.8036 99.8398 86.1538 99.8398 85.3521C99.8398 85.5124 100.23 85.6424 100.711 85.6424H124.807C125.288 85.6424 125.678 85.5124 125.678 85.3521ZM99.8398 86.223V82.7393V86.223ZM125.678 82.7393V86.223V82.7393Z" fill="#F99C51" mask="url(#path-42-inside-7_46_37821)"/>
<mask id="path-44-inside-8_46_37821" fill="white">
<path d="M98.6792 94.0615C98.6792 93.5805 99.0691 93.1906 99.5501 93.1906H123.646C124.127 93.1906 124.517 93.5805 124.517 94.0615V95.8034C124.517 96.2844 124.127 96.6743 123.646 96.6743H99.5501C99.0691 96.6743 98.6792 96.2844 98.6792 95.8034V94.0615Z"/>
</mask>
<path d="M98.6792 94.0615C98.6792 93.5805 99.0691 93.1906 99.5501 93.1906H123.646C124.127 93.1906 124.517 93.5805 124.517 94.0615V95.8034C124.517 96.2844 124.127 96.6743 123.646 96.6743H99.5501C99.0691 96.6743 98.6792 96.2844 98.6792 95.8034V94.0615Z" fill="#FFC856"/>
<path d="M98.6792 93.1906H124.517H98.6792ZM124.517 95.8034C124.517 96.605 123.867 97.2549 123.066 97.2549H100.131C99.3291 97.2549 98.6792 96.605 98.6792 95.8034C98.6792 95.9637 99.0691 96.0937 99.5501 96.0937H123.646C124.127 96.0937 124.517 95.9637 124.517 95.8034ZM98.6792 96.6743V93.1906V96.6743ZM124.517 93.1906V96.6743V93.1906Z" fill="#F99C51" mask="url(#path-44-inside-8_46_37821)"/>
<mask id="path-46-inside-9_46_37821" fill="white">
<path d="M97.5176 97.5453C97.5176 97.0642 97.9075 96.6743 98.3885 96.6743H122.485C122.966 96.6743 123.355 97.0642 123.355 97.5453V99.2871C123.355 99.7681 122.966 100.158 122.485 100.158H98.3885C97.9075 100.158 97.5176 99.7681 97.5176 99.2871V97.5453Z"/>
</mask>
<path d="M97.5176 97.5453C97.5176 97.0642 97.9075 96.6743 98.3885 96.6743H122.485C122.966 96.6743 123.355 97.0642 123.355 97.5453V99.2871C123.355 99.7681 122.966 100.158 122.485 100.158H98.3885C97.9075 100.158 97.5176 99.7681 97.5176 99.2871V97.5453Z" fill="#FFC856"/>
<path d="M97.5176 96.6743H123.355H97.5176ZM123.355 99.2871C123.355 100.089 122.706 100.739 121.904 100.739H98.9691C98.1675 100.739 97.5176 100.089 97.5176 99.2871C97.5176 99.4475 97.9075 99.5774 98.3885 99.5774H122.485C122.966 99.5774 123.355 99.4475 123.355 99.2871ZM97.5176 100.158V96.6743V100.158ZM123.355 96.6743V100.158V96.6743Z" fill="#F99C51" mask="url(#path-46-inside-9_46_37821)"/>
<mask id="path-48-inside-10_46_37821" fill="white">
<path d="M98.6792 101.029C98.6792 100.548 99.0691 100.158 99.5501 100.158H123.646C124.127 100.158 124.517 100.548 124.517 101.029V102.771C124.517 103.252 124.127 103.642 123.646 103.642H99.5501C99.0691 103.642 98.6792 103.252 98.6792 102.771V101.029Z"/>
</mask>
<path d="M98.6792 101.029C98.6792 100.548 99.0691 100.158 99.5501 100.158H123.646C124.127 100.158 124.517 100.548 124.517 101.029V102.771C124.517 103.252 124.127 103.642 123.646 103.642H99.5501C99.0691 103.642 98.6792 103.252 98.6792 102.771V101.029Z" fill="#FFC856"/>
<path d="M98.6792 100.158H124.517H98.6792ZM124.517 102.771C124.517 103.573 123.867 104.222 123.066 104.222H100.131C99.3291 104.222 98.6792 103.573 98.6792 102.771C98.6792 102.931 99.0691 103.061 99.5501 103.061H123.646C124.127 103.061 124.517 102.931 124.517 102.771ZM98.6792 103.642V100.158V103.642ZM124.517 100.158V103.642V100.158Z" fill="#F99C51" mask="url(#path-48-inside-10_46_37821)"/>
<g filter="url(#filter0_d_46_37821)">
<ellipse cx="118.276" cy="90.4325" rx="13.2093" ry="13.2092" fill="#F8CF51"/>
</g>
<ellipse cx="118.276" cy="90.4325" rx="10.3061" ry="10.3061" fill="#F9A04C"/>
<path d="M116.711 97.8899C116.245 92.6365 116.029 89.986 116.064 89.9386L116.074 89.9243C116.694 90.3749 117.458 90.6876 118.368 90.8623C118.834 90.9838 119.441 90.9491 120.186 90.7582C120.832 90.5015 121.292 90.2152 121.566 89.8991L122.859 90.8391C122.868 90.8462 123.334 90.6839 124.256 90.3525C124.267 90.3382 124.261 90.3199 124.241 90.2976L122.25 88.8506C122.466 88.3611 122.552 87.8758 122.51 87.3948L124.376 88.7519C124.461 88.7479 124.935 88.5845 125.799 88.2616L125.809 88.2474L118.822 83.1673C118.807 83.1568 118.341 83.3148 117.422 83.6416L117.396 83.6772L119.241 85.0185C119.551 85.2438 119.855 85.559 120.152 85.9641C120.543 86.5674 120.696 87.1252 120.612 87.6377L120.602 87.6519L117.304 85.2545C117.295 85.2474 116.821 85.4044 115.885 85.7253C115.871 85.7443 115.874 85.7608 115.893 85.7749L120.048 88.7955C119.937 88.9474 119.801 89.0735 119.64 89.1738C118.559 89.8762 117.254 89.6712 115.723 88.5587C115.399 88.3229 115.128 88.1003 114.91 87.891L114.869 87.9161L114.181 88.8635C114.17 88.8778 114.396 91.4377 114.859 96.5433L116.711 97.8899Z" fill="url(#paint1_linear_46_37821)"/>
<rect y="103.556" width="131.603" height="1.07871" rx="0.539356" fill="#A5C9FF"/>
<path d="M110.291 102.19H108.632L95.9579 67.4375L90.1071 102.19H88.8629L88.2269 62.7077L87.6187 58.4378L94.3926 57.1917H101.72C101.72 57.1917 103.982 64.8305 105.176 69.7913C108.172 82.2447 110.291 102.19 110.291 102.19Z" fill="#4463CD"/>
<rect x="96.646" y="38.031" width="2.32251" height="4.06438" fill="#FFB0AD"/>
<ellipse cx="97.793" cy="36.7587" rx="2.03054" ry="2.67988" transform="rotate(23.1158 97.793 36.7587)" fill="#FFB0AD"/>
<path d="M97.8808 38.3431C96.908 38.2732 96.7974 36.6657 95.8486 36.8915C95.3742 37.0045 95.066 37.1892 94.8325 37.6173C94.5023 38.2228 94.5422 38.7786 94.9777 39.3592C95.4131 39.9398 96.8749 40.0508 97.8808 39.6495C98.8123 39.278 99.6227 37.9076 99.6227 37.7625C99.6227 37.6173 98.596 38.3945 97.8808 38.3431Z" fill="#473636"/>
<path d="M98.8933 35.0478C98.034 34.496 96.8865 35.827 96.2413 35.0326C95.9187 34.6354 95.7822 34.2803 95.8678 33.7602C95.9889 33.0247 96.387 32.5656 97.1322 32.334C97.8774 32.1024 99.1726 32.9264 99.7506 33.9096C100.286 34.82 100.064 36.5244 99.9691 36.6508C99.8738 36.7773 99.5252 35.4535 98.8933 35.0478Z" fill="#473636"/>
<ellipse cx="99.9504" cy="37.129" rx="0.43547" ry="0.725783" transform="rotate(23.8261 99.9504 37.129)" fill="#FFB0AD"/>
<path d="M97.7168 41.6795L96.6625 40.4526C96.6092 40.3907 96.5323 40.354 96.4506 40.3536C95.6473 40.3497 91.2959 40.4296 89.8613 42.5847C89.1648 43.6311 88.8526 45.6224 88.8122 45.8971C88.809 45.9188 88.8086 45.9398 88.8106 45.9618L89.838 57.2377C89.8513 57.3838 89.9716 57.497 90.1182 57.5015L98.9498 57.7723H101.681C101.845 57.7723 101.976 57.6397 101.972 57.4765C101.953 56.5749 101.903 53.8082 101.979 51.9202C102.115 48.5371 102.833 43.5212 102.999 42.3961C103.019 42.2606 102.941 42.1321 102.813 42.0837L99.4963 40.8305C99.4022 40.795 99.2964 40.8107 99.2167 40.872L98.114 41.7204C97.9918 41.8144 97.8173 41.7964 97.7168 41.6795Z" fill="#FBE1D4"/>
<path d="M97.7172 58.2688L97.9111 58.0012C98.0868 57.7588 97.9457 57.4147 97.652 57.3568C97.5019 57.3272 97.3798 57.2133 97.3422 57.065C97.2819 56.8275 97.4496 56.5928 97.6938 56.5728L99.1122 56.4563C99.262 56.444 99.3996 56.3686 99.4906 56.249C99.6917 55.9847 100.084 55.9684 100.306 56.215L100.931 56.9083C101.121 57.1184 101.078 57.448 100.842 57.6033C100.789 57.6382 100.743 57.6837 100.709 57.7369L99.8019 59.1274C99.4537 59.6612 98.7294 59.8048 98.1969 59.4548C98.14 59.4174 98.0862 59.3741 98.0378 59.3263L97.7842 59.0763C97.5654 58.8607 97.5369 58.5176 97.7172 58.2688Z" fill="#FFB0AD"/>
<path d="M104.92 49.6436C104.92 48.7726 101.872 46.5953 101.872 46.5953L101.291 41.8051L102.743 42.0954C102.743 42.0954 108.694 46.7404 108.84 48.9178C108.985 51.0951 101.059 57.7723 100.711 57.7723C100.362 57.7723 99.598 56.7079 99.2593 56.1756C99.2593 56.1756 104.92 50.5145 104.92 49.6436Z" fill="url(#paint2_linear_46_37821)"/>
<path d="M98.136 41.3244L97.3889 41.2621C97.1779 41.2446 97.0196 41.4516 97.092 41.6507L97.341 42.3355C97.4184 42.5484 97.699 42.5945 97.8405 42.4176L98.3386 41.7951C98.4837 41.6136 98.3675 41.3437 98.136 41.3244Z" fill="#F95A67"/>
<path d="M95.4854 48.0468L97.4363 42.3857H97.8543L98.9691 50.2242L97.8543 53.5628L95.7641 50.2242L95.4854 48.0468Z" fill="#F95A67"/>
<ellipse cx="88.9529" cy="53.2725" rx="10.5964" ry="10.5964" fill="#F8CF51"/>
<ellipse cx="88.9526" cy="53.2725" rx="8.27393" ry="8.27392" fill="#F9A04C"/>
<path d="M85.4237 58.0644C86.0529 58.5279 86.7674 58.8629 87.5261 59.0503C88.2849 59.2377 89.0731 59.2738 89.8458 59.1566C90.6185 59.0393 91.3606 58.771 92.0296 58.367C92.6986 57.963 93.2815 57.4312 93.745 56.8019C94.2085 56.1726 94.5435 55.4582 94.7309 54.6994C94.9183 53.9407 94.9544 53.1524 94.8371 52.3797C94.7199 51.607 94.4516 50.865 94.0476 50.196C93.6436 49.5269 93.1118 48.944 92.4825 48.4805L88.9531 53.2725L85.4237 58.0644Z" fill="#FEC653"/>
<ellipse cx="81.2004" cy="46.5804" rx="1.43298" ry="0.895611" transform="rotate(-37.3946 81.2004 46.5804)" fill="#FFB0AD"/>
<line x1="95.3614" y1="63.6979" x2="95.8943" y2="66.8953" stroke="#1B1DC7" stroke-width="0.290313" stroke-linecap="round"/>
<path d="M88.8618 102.19H90.0985L90.0825 102.481H88.8618V102.19Z" fill="#FFB0AD"/>
<path d="M108.632 102.19H110.291L110.275 102.481H108.632V102.19Z" fill="#FFB0AD"/>
<path d="M87.5592 102.597C87.6141 102.524 87.7001 102.481 87.7915 102.481H89.9688C90.1292 102.481 90.2591 102.611 90.2591 102.771V103.351C90.2591 103.512 90.1292 103.642 89.9688 103.642H87.356C87.1168 103.642 86.9802 103.369 87.1238 103.177L87.5592 102.597Z" fill="#2F308F"/>
<path d="M111.248 102.597C111.194 102.524 111.108 102.481 111.016 102.481H108.839C108.678 102.481 108.548 102.611 108.548 102.771V103.351C108.548 103.512 108.678 103.642 108.839 103.642H111.452C111.691 103.642 111.827 103.369 111.684 103.177L111.248 102.597Z" fill="#2F308F"/>
<rect x="86.1948" y="59.0721" width="13.0658" height="1.16125" transform="rotate(-54.6772 86.1948 59.0721)" fill="#F9A04C"/>
<path d="M76.9866 24.0465C77.6083 24.0465 78.0793 24.2782 78.3998 24.7415C78.7203 25.201 78.8805 25.8516 78.8805 26.6934C78.8805 27.5312 78.7261 28.1857 78.4172 28.6568C78.1121 29.1278 77.6353 29.3634 76.9866 29.3634C76.3804 29.3634 75.919 29.1278 75.6024 28.6568C75.2858 28.1857 75.1274 27.5312 75.1274 26.6934C75.1274 25.8516 75.2761 25.201 75.5734 24.7415C75.8746 24.2782 76.3456 24.0465 76.9866 24.0465ZM76.9924 24.9964C76.7414 24.9964 76.5561 25.1373 76.4364 25.4192C76.3205 25.701 76.2626 26.1277 76.2626 26.6991C76.2626 27.2667 76.3205 27.6953 76.4364 27.9849C76.5561 28.2706 76.7414 28.4135 76.9924 28.4135C77.2472 28.4135 77.4364 28.2706 77.56 27.9849C77.6874 27.6992 77.7511 27.2706 77.7511 26.6991C77.7511 26.1316 77.6893 25.7068 77.5658 25.425C77.4422 25.1392 77.2511 24.9964 76.9924 24.9964ZM82.6741 24.1681L77.977 32.6357H76.8592L81.5563 24.1681H82.6741ZM82.5178 27.4347C83.1394 27.4347 83.6105 27.6664 83.931 28.1297C84.2553 28.5892 84.4175 29.2398 84.4175 30.0815C84.4175 30.9156 84.263 31.5681 83.9541 32.0392C83.6491 32.5102 83.1703 32.7458 82.5178 32.7458C81.9116 32.7458 81.4501 32.5102 81.1335 32.0392C80.8169 31.5681 80.6586 30.9156 80.6586 30.0815C80.6586 29.2398 80.8073 28.5892 81.1046 28.1297C81.4057 27.6664 81.8768 27.4347 82.5178 27.4347ZM82.5236 28.3846C82.2726 28.3846 82.0872 28.5255 81.9675 28.8074C81.8517 29.0892 81.7938 29.5159 81.7938 30.0873C81.7938 30.6549 81.8517 31.0835 81.9675 31.3731C82.0872 31.6588 82.2726 31.8017 82.5236 31.8017C82.7823 31.8017 82.9734 31.6608 83.0969 31.3789C83.2205 31.0932 83.2823 30.6627 83.2823 30.0873C83.2823 29.5197 83.2205 29.095 83.0969 28.8131C82.9734 28.5274 82.7823 28.3846 82.5236 28.3846Z" fill="#A5C9FF"/>
<defs>
<filter id="filter0_d_46_37821" x="101.873" y="77.2233" width="32.8053" height="33.6763" filterUnits="userSpaceOnUse" color-interpolation-filters="sRGB">
<feFlood flood-opacity="0" result="BackgroundImageFix"/>
<feColorMatrix in="SourceAlpha" type="matrix" values="0 0 0 0 0 0 0 0 0 0 0 0 0 0 0 0 0 0 127 0" result="hardAlpha"/>
<feMorphology radius="4.06438" operator="erode" in="SourceAlpha" result="effect1_dropShadow_46_37821"/>
<feOffset dy="4.06438"/>
<feGaussianBlur stdDeviation="3.62892"/>
<feComposite in2="hardAlpha" operator="out"/>
<feColorMatrix type="matrix" values="0 0 0 0 0 0 0 0 0 0 0 0 0 0 0 0 0 0 0.25 0"/>
<feBlend mode="normal" in2="BackgroundImageFix" result="effect1_dropShadow_46_37821"/>
<feBlend mode="normal" in="SourceGraphic" in2="effect1_dropShadow_46_37821" result="shape"/>
</filter>
<linearGradient id="paint0_linear_46_37821" x1="69.5022" y1="0" x2="69.5022" y2="103.932" gradientUnits="userSpaceOnUse">
<stop stop-color="white"/>
<stop offset="1" stop-color="white" stop-opacity="0.23"/>
</linearGradient>
<linearGradient id="paint1_linear_46_37821" x1="116.105" y1="97.3726" x2="115.462" y2="86.697" gradientUnits="userSpaceOnUse">
<stop stop-color="#FFE491"/>
<stop offset="1" stop-color="white"/>
</linearGradient>
<linearGradient id="paint2_linear_46_37821" x1="104.05" y1="41.8051" x2="104.05" y2="57.7723" gradientUnits="userSpaceOnUse">
<stop stop-color="#FBE1D4"/>
<stop offset="1" stop-color="#F5CAB4"/>
</linearGradient>
</defs>
</svg>
