<svg width="40" height="40" viewBox="0 0 40 40" fill="none" xmlns="http://www.w3.org/2000/svg">
<path d="M35.4849 34.5352V14.6914C35.4849 13.8284 34.7854 13.1289 33.9224 13.1289H6.07739C5.21442 13.1289 4.51489 13.8284 4.51489 14.6914V34.5352H35.4849Z" fill="#58595B"/>
<path d="M34.5644 13.2681C34.653 13.4642 34.7035 13.681 34.7035 13.9103V33.129C34.7035 33.4742 34.4236 33.754 34.0785 33.754H4.51489V34.5353H35.4849V14.6915C35.4849 14.0576 35.1068 13.5132 34.5644 13.2681Z" fill="#414042"/>
<path d="M33.1892 34.5352V16.7974C33.1892 16.366 32.8393 16.0161 32.4079 16.0161H7.59229C7.16088 16.0161 6.81104 16.366 6.81104 16.7974V34.5353H33.1892V34.5352Z" fill="#F1F2F2"/>
<path d="M7.74854 32.3988C7.57604 32.3988 7.43604 32.2588 7.43604 32.0863V24.2738C7.43604 24.1013 7.57604 23.9613 7.74854 23.9613C7.92104 23.9613 8.06104 24.1013 8.06104 24.2738V32.0863C8.06104 32.2589 7.92104 32.3988 7.74854 32.3988ZM7.74854 23.3305C7.57604 23.3305 7.43604 23.1964 7.43604 23.0238V23.0122C7.43604 22.8397 7.57604 22.6997 7.74854 22.6997C7.92104 22.6997 8.06104 22.8397 8.06104 23.0122C8.06104 23.1847 7.92104 23.3305 7.74854 23.3305Z" fill="white"/>
<path d="M32.4076 16.0161H31.6263V32.1916C31.6263 32.623 31.2765 32.9728 30.8451 32.9728H6.81104V34.5353H33.189V16.7974C33.1888 16.3658 32.8392 16.0161 32.4076 16.0161Z" fill="#E6E7E8"/>
<path d="M32.4076 16.0161V32.9728C32.4076 33.4042 32.0578 33.7541 31.6263 33.7541H6.81104V34.5353H33.189V16.7974C33.1888 16.3658 32.8392 16.0161 32.4076 16.0161Z" fill="#D1D3D4"/>
<path d="M1.25 34.8477V37.4497C1.25 38.3127 1.94953 39.0122 2.8125 39.0122H37.1875C38.0505 39.0122 38.75 38.3127 38.75 37.4497V34.8477C38.75 34.675 38.6102 34.5352 38.4375 34.5352H1.5625C1.38984 34.5352 1.25 34.6752 1.25 34.8477Z" fill="#939598"/>
<path d="M37.9688 34.5352V36.6684C37.9688 37.5314 37.2693 38.2309 36.4063 38.2309H2.03135C1.80229 38.2309 1.58525 38.1805 1.38916 38.0919C1.63432 38.6342 2.17869 39.0122 2.8126 39.0122H37.1876C38.0506 39.0122 38.7501 38.3127 38.7501 37.4497V34.8477C38.7501 34.675 38.6103 34.5352 38.4376 34.5352H37.9688Z" fill="#808285"/>
<path d="M13.7764 34.5352V35.3873C13.7764 35.8188 14.1262 36.1686 14.5576 36.1686H25.4423C25.8737 36.1686 26.2236 35.8188 26.2236 35.3873V34.5352H13.7764Z" fill="#414042"/>
<path d="M11.0828 4.65164L24.8017 1.0143C25.2975 0.882892 25.7831 1.25664 25.7831 1.76945V4.65164H11.0828Z" fill="#E2E2E2"/>
<path d="M25.0018 0.988527V3.08915C25.0018 3.52056 24.652 3.8704 24.2206 3.8704H14.0293L11.0828 4.65165H25.7832V1.76946C25.7831 1.32634 25.4203 0.987745 25.0018 0.988527Z" fill="#CECECE"/>
<path d="M11.7812 32.2166H28.0531C28.4845 32.2166 28.8344 31.8668 28.8344 31.4354V5.43286C28.8344 5.00146 28.4845 4.65161 28.0531 4.65161H11V31.4354C11 31.8668 11.3497 32.2166 11.7812 32.2166Z" fill="#E2E2E2"/>
<rect x="13" y="21.312" width="14" height="1" rx="0.5" fill="#58595B"/>
<rect x="13" y="24.312" width="14" height="1" rx="0.5" fill="#58595B"/>
<rect x="13" y="27.312" width="14" height="1" rx="0.5" fill="#58595B"/>
<path d="M28.1359 4.65161V30.6541C28.1359 31.0855 27.786 31.4354 27.3546 31.4354H11.0828C11.0828 31.8668 11.4326 32.2166 11.864 32.2166H28.1359C28.5673 32.2166 28.9171 31.8668 28.9171 31.4354V5.43286C28.9171 5.00146 28.5675 4.65161 28.1359 4.65161Z" fill="#CECECE"/>
<circle cx="26.9546" cy="28.5352" r="5" fill="#0C7E42"/>
<path d="M24.291 29.0386L25.9544 30.5352L29.4912 26.9082" stroke="white" stroke-linecap="round" stroke-linejoin="round"/>
<path d="M20.016 7.05664C18.7237 7.05664 18.7237 7.70279 17.4314 7.70279C17.4314 8.67202 18.0775 8.34895 18.0775 9.64125H21.9545C21.9545 8.34895 22.6006 8.67202 22.6006 7.70279C21.3083 7.70279 21.3083 7.05664 20.016 7.05664Z" fill="url(#paint0_linear_1446_11917)"/>
<path d="M25.4621 15.8258C25.4621 18.8592 23.0032 19.0566 19.9698 19.0566C16.9365 19.0566 14.4775 18.8592 14.4775 15.8258C14.4775 12.7924 16.9365 9.36426 19.9698 9.36426C23.0032 9.36426 25.4621 12.7924 25.4621 15.8258Z" fill="url(#paint1_linear_1446_11917)"/>
<g filter="url(#filter0_d_1446_11917)">
<path d="M21.5883 13.2193L21.4365 13.7964H18.6313L18.786 13.2193H21.5883ZM20.1514 16.4648L18.7176 14.7662L18.7146 14.2575H19.4137C19.5763 14.2575 19.7102 14.2258 19.8153 14.1623C19.9204 14.0989 19.9987 14.0136 20.0503 13.9065C20.1019 13.7974 20.1277 13.6765 20.1277 13.5436C20.1277 13.4048 20.1039 13.2818 20.0563 13.1747C20.0087 13.0676 19.9323 12.9843 19.8272 12.9248C19.7221 12.8634 19.5823 12.8326 19.4078 12.8326H18.6343L18.8098 12.1335H19.4078C19.7647 12.1335 20.0622 12.1871 20.3002 12.2942C20.5382 12.4013 20.7167 12.556 20.8356 12.7582C20.9546 12.9585 21.0141 13.2015 21.0141 13.4871C21.0141 13.7369 20.9745 13.9561 20.8951 14.1445C20.8158 14.3329 20.6899 14.4886 20.5173 14.6115C20.3448 14.7325 20.1177 14.8178 19.8361 14.8673L21.1272 16.4231V16.4648H20.1514ZM21.5942 12.1335L21.4395 12.7077H19.1162L19.2709 12.1335H21.5942Z" fill="white"/>
</g>
<path d="M18.0776 9.64111H21.9546" stroke="#B76003" stroke-width="0.646153" stroke-linecap="round" stroke-linejoin="round"/>
<defs>
<filter id="filter0_d_1446_11917" x="18.0775" y="11.5797" width="4.07058" height="5.43899" filterUnits="userSpaceOnUse" color-interpolation-filters="sRGB">
<feFlood flood-opacity="0" result="BackgroundImageFix"/>
<feColorMatrix in="SourceAlpha" type="matrix" values="0 0 0 0 0 0 0 0 0 0 0 0 0 0 0 0 0 0 127 0" result="hardAlpha"/>
<feOffset/>
<feGaussianBlur stdDeviation="0.276923"/>
<feComposite in2="hardAlpha" operator="out"/>
<feColorMatrix type="matrix" values="0 0 0 0 0.763428 0 0 0 0 0.560779 0 0 0 0 0.114365 0 0 0 1 0"/>
<feBlend mode="normal" in2="BackgroundImageFix" result="effect1_dropShadow_1446_11917"/>
<feBlend mode="normal" in="SourceGraphic" in2="effect1_dropShadow_1446_11917" result="shape"/>
</filter>
<linearGradient id="paint0_linear_1446_11917" x1="20.016" y1="5.05615" x2="20.016" y2="11.3135" gradientUnits="userSpaceOnUse">
<stop stop-color="#FED100"/>
<stop offset="1" stop-color="#E36001"/>
</linearGradient>
<linearGradient id="paint1_linear_1446_11917" x1="16.0086" y1="11.1741" x2="25.5836" y2="20.7492" gradientUnits="userSpaceOnUse">
<stop stop-color="#FED100"/>
<stop offset="1" stop-color="#E36001"/>
</linearGradient>
</defs>
</svg>
