<svg xmlns="http://www.w3.org/2000/svg" width="442" height="302" xmlns:v="https://vecta.io/nano"><style><![CDATA[.B{fill:#303d72}.C{fill:#1a2249}.D{fill:#fff}.E{fill:#19192b}.F{fill:#a9c2dc}.G{fill:#fbad83}.H{fill:#26335e}.I{fill:#a55b3a}.J{fill:#e68d5c}.K{fill:#00c99c}.L{fill:#00b98f}.M{fill:#ffb0b2}]]></style><path d="M53.104 287.713V302h32.828a6.4 6.4 0 0 0-4.306-6.041L67.2 290.912l-1.675-6.169-12.421 2.971zm-48.057-3.237l-1.185 16.565h30.897c-.002-2.838-1.862-5.345-4.59-6.186l-14.044-4.316-1.023-6.755-10.055.692z" class="E"/><path d="M97.751 107.39a22.653 22.653 0 0 1 5.233.441c2.993.579 7.086 3.716 7.086 3.716l-7.086 4.46-7.397-3.589 2.164-5.028z" class="I"/><path d="M54.18 152.438l9.853 72.847 4.519 62.125s-5.754 2.507-11.144 2.077l-5.384-.424-9.566-62.868-24.113-69.745 35.835-4.011z" class="E"/><g class="B"><path d="M43.449 155.092l-1.332 72.798c.028 4.266-25.126 61.464-25.126 61.464s-5.328.949-9.705-1.479l-4.389-2.439 17.112-64.046S5.032 170.963 5.847 158.348l.809-12.62 36.793 9.365zm75.311 56.788h10.621v89.162H118.76z"/><path d="M159.312 301.041c0-4.236-3.559-7.67-7.95-7.67H97.744a8.1 8.1 0 0 0-5.621 2.247c-1.491 1.438-2.329 3.389-2.329 5.423h69.518zm-12.552-91.079H98.478c-10.66 0-19.302-8.557-19.305-19.115v-69.173c0-3.659 2.995-6.626 6.69-6.626h54.208c3.695 0 6.69 2.966 6.69 6.626v88.289z"/></g><g class="F"><path d="M152.553 204.21h-52.532c-8.315 0-15.055-6.663-15.055-14.883v-67.664c0-3.653 2.996-6.615 6.691-6.615h54.204c3.696 0 6.691 2.962 6.691 6.615v82.547z"/><path d="M175.934 204.21H99.449v5.752h76.485c1.504-.068 2.688-1.336 2.688-2.876s-1.185-2.808-2.688-2.876z"/></g><g class="B"><path d="M108.973 204.212H96.553v5.747h12.403c1.072.047 2.083-.49 2.633-1.399s.55-2.041 0-2.95-1.561-1.446-2.633-1.399h.017zm7.855 5.75h15.448v9.587h-15.448zm165.105 1.917h10.621v89.162h-10.621z"/><path d="M252.968 301.041c0-4.236 3.56-7.67 7.95-7.67h53.617c2.109 0 4.131.808 5.622 2.247s2.329 3.389 2.329 5.423h-69.518z"/></g><path d="M270.785 278.438l.856 13.932-2.781 2.012c-2.088 1.513-3.331 3.954-3.34 6.559V302h11.435l9.806-11.229-7.404-17.532-8.572 5.2zm-38.093 8.311L231.433 302h-34.466c.001-3.709 2.283-7.018 5.705-8.273l16.461-6.053 5.425-6.765 8.134 5.841z" class="E"/><path d="M264.554 209.962h48.282c5.12.001 10.03-2.012 13.65-5.597s5.655-8.448 5.655-13.518v-69.173c0-3.659-2.995-6.626-6.69-6.626h-54.208c-3.695 0-6.69 2.966-6.69 6.626v88.289z" class="B"/><g class="F"><path d="M258.761 204.21h52.532c8.315 0 15.055-6.663 15.055-14.883v-67.664c0-3.653-2.996-6.615-6.691-6.615h-54.204c-3.695 0-6.691 2.962-6.691 6.615v82.547z"/><path d="M234.691 204.212h77.174v5.747h-77.174a2.83 2.83 0 0 1-2.563-1.399 2.909 2.909 0 0 1 0-2.95 2.83 2.83 0 0 1 2.563-1.399z"/></g><path d="M301.969 204.21h11.827v5.752h-11.827c-1.485-.068-2.656-1.336-2.656-2.876s1.17-2.808 2.656-2.876z" class="B"/><path d="M10.794 301.041H3.862l22.999-128.47h6.932z" class="E"/><path d="M49.86 59.441l11.306 42.084 36.688 4.518a6.69 6.69 0 0 1 0 5.663l-1.437 2.881s-34.742 1.763-42.173-1.61-4.384-53.535-4.384-53.535z" class="H"/><path d="M22.478 52.649S9.638 55.711 5.715 58.96c-3.541 2.93-1.072 73.379-.213 89.17a61.467 61.467 0 0 1 0 6.897l-.707 11.669s32.017 3.972 43.774.833 11.292-1.07 11.292-1.07-6.353-102.444-9.888-108.8c-2.929-5.258-18.464-5.887-18.464-5.887l-9.03.877z" class="B"/><path d="M259.907 110.254s-8.413 20.096-10.537 31.846-3.161 12.546-3.161 12.546l-17.38 3.561v5.736h44.414l-13.337-53.689z" fill="#f89900"/><path d="M176.691 125.66l5.085-2.586c2.49-1.188 16.157.968 16.157.968s-.547 1.659-1.177 1.973-7.394-.377-7.394-.377a4.031 4.031 0 0 1 .394 1.874c0 1.193 0 2.57-1.801 3.444s-7.816 0-7.816 0l-3.448-5.297z" class="G"/><path d="M141.055 116.006l5.399 25.93c.813 3.983 30.532-16.645 30.532-16.645s3.662 1.512 4.58 3.934l.918 2.422s-28.49 22.432-34.35 25.003c-7.33 3.216-12.4 1.479-15.361-6.014s8.281-34.631 8.281-34.631z" fill="#e2e2e2"/><path d="M290.759 102.584s15.384 1.507 20.581 10.056 4.334 72.394 4.334 72.394h-63.671s3.033-69.602 7.798-75.619 18.899-6.832 18.899-6.832h12.059z" fill="#f9c200"/><path d="M273.396 102.794l-4.014 6.803 6.849-1.842 5.336 3.458 7.126-8.629z" class="D"/><path d="M289.658 83.41v19.562s-3.452 2.793-9.52 2.462c-5.612-.31-6.506-2.25-6.506-2.25l-2.319-10.161 18.345-9.612" class="G"/><path d="M273.152 100.667a23.123 23.123 0 0 0 5.918-3.482c2.684-2.053 4.689-4.845 5.761-8.023l-11.716 2.198-1.801.979 1.839 8.312" class="J"/><g class="C"><path d="M257.796 70.946h10.621v1h-10.621z"/><path d="M261.366 57.484s-1.639 4.177-1.639 7.832c0 2.942 1.153 8.506 1.153 8.506l6.572-17.257-6.085.919z"/></g><path d="M261.188 90.62c5.47 11.424 19.05 4.678 24.864-1.103s5.003-27.775 3.402-31.939-15.064-7.53-22.14-4.843-11.601 26.478-6.115 37.886" class="G"/><path d="M259.727 82.451a26.092 26.092 0 0 0 2.153 8.114c2.186 4.586 5.665 6.267 9.433 6.267-3.763 0-7.269-1.67-9.428-6.267a26.093 26.093 0 0 1-2.158-8.114" fill="#dcdde3"/><path d="M290.618 73.822h-6.195s-4.111 10.466-7.642 11.478a3.11 3.11 0 0 1-.873.115c-2.94 0-6.853-3.465-11.792-3.667-.462 0-.873-.033-1.25-.033-2.112 0-3.058.306-4.105.995.279 2.752 1.012 5.443 2.174 7.969 2.202 4.504 5.704 6.154 9.495 6.154 5.744 0 12.141-3.787 15.689-7.225 2.855-2.766 4.133-9.291 4.505-15.773" fill="#d8987a"/><path d="M289.104 75.508a7.325 7.325 0 0 1-5.032-2.704 7.319 7.319 0 0 1-1.558-5.494c.309-2.479 1.038-3.269.398-5.615-1.287-4.676-6.893-4.24-10.683-2.501s-7.915 1.745-11.174-.718c-2.404-1.871-3.005-5.256-1.392-7.84 2.11-3.407 9.611-7.492 9.611-7.492s-.911 2.043-.608 3.103 20.227-4.919 24.303 3.937-1.364 25.557-1.364 25.557l-2.502-.232z" class="C"/><path d="M292.555 75.151c0 2.851-3.912 5.382-6.309 5.382s-2.38-2.531-2.38-5.382 1.945-5.164 4.342-5.164 4.348 2.312 4.348 5.164z" class="G"/><path d="M290.589 75.706c.283 1.234-1.258 2.68-2.362 2.892s1.269-1.472.98-2.706-2.266-1.818-1.133-2.035 2.226.609 2.515 1.849z" class="J"/><path d="M261.658 77.657c-2.119 0-3.862-2.363-3.862-5.27s1.732-5.276 3.862-5.276 3.862 2.369 3.862 5.276-1.732 5.27-3.862 5.27zm0-9.986c-1.838 0-3.332 2.117-3.332 4.716s1.494 4.71 3.332 4.71 3.332-2.112 3.332-4.71-1.494-4.704-3.332-4.704v-.011zm9.655 9.986c-2.119 0-3.862-2.363-3.862-5.27s1.732-5.276 3.862-5.276 3.862 2.369 3.862 5.276-1.732 5.27-3.862 5.27zm0-9.986c-1.838 0-3.332 2.117-3.332 4.716s1.494 4.71 3.332 4.71 3.332-2.112 3.332-4.71-1.494-4.704-3.332-4.704v-.011zm3.862 3.275h9.655v1h-9.655z" class="C"/><path d="M288.091 149.073l-35.225 19.403-.863 16.559h63.672s.6-44.566-2.243-64.235l-15.659 3.637-9.682 24.636z" fill="#edb607"/><path d="M265.52 70.946h1.931v1h-1.931z" class="C"/><path d="M114.122 108.348s-15.927 3.116-19.147 6.304-18.403 37.043-17.71 44.404 8.508 7.367 8.508 7.367h50.14c1.817-2.268 2.581-5.191 2.102-8.047l-45.573-4.555 9.202-22.089-2.46 61.932 43.342-3.658s2.186-75.592-4.053-78.093-14.093-3.575-14.093-3.575l-10.258.011z" fill="#f0f1f4"/><path d="M243.313 163.943h-42.665a1.744 1.744 0 0 1-1.749-1.749v-30.057a1.75 1.75 0 0 1 1.749-1.749h42.665v33.556z" class="F"/><path d="M244.278 163.943h-.808c-.619 0-1.121-.579-1.123-1.295v-30.96c0-.718.503-1.301 1.123-1.301h.808v33.556z" class="B"/><path d="M223.037 147.162c0 1.857-1.077 3.358-2.414 3.358s-2.414-1.501-2.414-3.358 1.082-3.353 2.414-3.353 2.414 1.48 2.414 3.353z" class="D"/><path d="M244.278 163.943h25.104v1.917h-25.104z" class="B"/><path d="M199.864 163.943h44.414v1.917h-44.414z" class="F"/><path d="M113.932 108.337s3.666 4.996 6.892 5.607 5.57-.836 6.185-2.039.405-3.094.405-3.094l-13.483-.474z" class="D"/><path d="M124.553 102l16.414 2.502V79.575z" class="C"/><path d="M113.932 88.203v19.57s2.903 2.777 8.017 2.455c3.756-.245 5.42-1.955 5.42-1.955l2.011-10.437-15.448-9.632z" class="G"/><path d="M113.932 92.408c.141.334.308.658.5.968 2.642 4.187 7.954 10.348 13.579 12.085l1.369-6.919-15.448-9.38v3.246z" class="J"/><path d="M141.51 96.321c-5.294 11.12-18.621 2.171-24.251-3.436s-4.628-24.664-3.093-28.731 14.555-7.355 21.417-4.733 11.22 25.774 5.927 36.9z" class="G"/><path d="M140.967 93.43s-5.793.141-6.756-.146l-.968-.287s0 2.653 2.71 3.571 4.157-.777 4.519-1.715l.495-1.423z" class="D"/><path d="M122.121 106.419l-13.529-4.546s-1.981-30.856 2.347-38.584 15.76-10.331 23.146-7.574c10.744 4.007 10.588 18.163 10.744 19.407a22.003 22.003 0 0 0-7.547-.05 28.067 28.067 0 0 1-8.396.242l-5.272-.627-1.493 31.731z" class="C"/><path d="M114.898 86.204c0 2.073 2.605 3.917 4.204 3.917s1.589-1.844 1.589-3.917-1.295-3.753-2.894-3.753-2.899 1.68-2.899 3.753z" class="G"/><path d="M122.622 91.074c.002 1.164-.702 2.214-1.784 2.661a2.91 2.91 0 0 1-3.158-.62 2.86 2.86 0 0 1-.63-3.135c.448-1.075 1.505-1.777 2.677-1.777a2.902 2.902 0 0 1 2.048.839 2.861 2.861 0 0 1 .849 2.032z" class="D"/><path d="M142.898 89.162c-2.665 0-4.828-2.46-4.828-5.484v-.269h9.655v.269c.006 3.024-2.163 5.484-4.828 5.484zm-4.259-5.258c.113 2.616 1.977 4.7 4.259 4.7s4.152-2.084 4.264-4.7h-8.523zm-7.328 5.258c-2.665 0-4.828-2.46-4.828-5.484v-.269h9.655v.269c0 3.024-2.163 5.484-4.828 5.484zm-4.264-5.258c.118 2.616 1.983 4.7 4.264 4.7s4.146-2.084 4.259-4.7h-8.523z" class="C"/><path d="M85.773 165.716h14.49l-1.079 26.989 43.342-3.624s.458-15.666.358-32.9l-.358-1.864-40.882-22.97-.911 22.707-8.29-.822 4.193-9.969-17.017 4.655c-1.576 4.666-2.538 8.538-2.353 10.501.688 7.298 8.508 7.298 8.508 7.298z" fill="#e5e5e5"/><path d="M263.778 162.772s-3.573 1.171-6.305 1.171-4.505-2.545-4.505-2.545l11.586-.331-.776 1.705z" class="J"/><path d="M120.691 82.451h18.345v1h-18.345z" class="C"/><path d="M270.045 156.05s-2.335-1.537-7.009-1.692-14.238 6.172-14.727 7.107c-.247.526-.221 1.146.069 1.648s.804.814 1.365.83c1.28 0 4.669-1.847 6.438-2.042s6.932 2.042 9.157 2.042 5.01-1.457 5.01-1.457l-.302-6.435z" class="G"/><path d="M306.059 108.337s8.726 2.625 11.081 23.201c2.128 18.566 1.823 31.916 0 33.047s-48.497-1.131-48.497-1.131c-1.077-1.839-1.441-4.004-1.025-6.09.654-3.558 1.224-3.295 1.224-3.295l36.141-.846s-8.815-24.398-7.297-33.893 8.372-10.994 8.372-10.994z" fill="#f9c200"/><path d="M158.936 165.86h-17.969l10.031-20.133h17.969z" class="D"/><path d="M138.149 158.873s2.24-1.606 4.177-1.639 2.503.361 2.503.361l-4.216 8.266-2.542-.333a11.994 11.994 0 0 0 .078-6.649v-.005z" class="J"/><path d="M138.17 158.453a18.722 18.722 0 0 1 5.459-.116c2.766.397 8.761 1.076 9.702 3.179s-1.908 4.249-2.871 4.249-10.216.215-11.062 0a4.242 4.242 0 0 1-1.327-.596s1.25-4.647.1-6.716z" class="G"/><path d="M22.207 53.179s8.272 14.309 11.912 25.986c3.455 11.079 3.536 15.749 3.536 15.749V52.73l-15.448.449z" class="D"/><path d="M22.207 33.556v19.561s3.448 2.798 9.517 2.461c5.614-.31 6.508-2.249 6.508-2.249l2.319-10.161-18.345-9.612z" class="I"/><path d="M37.705 51.636c-2.945.653-6.357-1.167-8.907-3.181-4.693-3.707-6.591-11.065-6.591-11.065l15.531 4.636 1.848 1.013-1.882 8.597z" fill="#8e4a2f"/><path d="M49.783 9.282s2.521.972 2.347 7.155c-.084 2.937-1.15 8.49-1.15 8.49L44.414 7.67l5.369 1.612z" class="C"/><path d="M49.719 41.727c-5.476 11.42-19.057 4.676-24.871-1.103s-5.003-27.758-3.402-31.927 15.054-7.549 22.142-4.858 11.58 26.468 6.132 37.888z" class="I"/><path d="M4.781 166.714s4.293.551 10.285 1.064l38.038-80.783-30.937 17.938L3.888 80.533c-.221 22.894 1.059 57.189 1.611 67.63a62.416 62.416 0 0 1 0 6.891l-.717 11.659z" class="H"/><g class="C"><path d="M29.038 23.01s1.532 12.463 5.071 13.458c3.02.853 7.223-3.31 12.672-3.538 3.031-.125 4.124.158 5.358.962-.271 2.736-.998 5.412-2.152 7.925-5.544 11.257-19.309 4.609-25.203-1.087-2.851-2.718-4.136-9.24-4.507-15.681l8.761-2.038z"/><path d="M26.938 27.664s1.657.164 2.347-.821-1.276-6.522.701-12.403c1.408-4.196 7.807-6.631 13.042-5.608s6.56 1.477 7.095-.033-1.568-5.05-3.385-6.462-10.336-3.879-17.437-1.012-8.52 4.787-10.11 9.345-.552 15.982 0 16.715 7.747.279 7.747.279z"/></g><path d="M18.345 26.256c0 2.851 3.912 5.383 6.309 5.383s2.38-2.531 2.38-5.382-1.945-5.163-4.342-5.163-4.348 2.312-4.348 5.163z" class="I"/><path d="M52.138 33.556s0 14.087-1.646 16.631-6.947 3.094-9.356 2.032-6.321-4.885-7.298-8.119 14.267-7.861 14.267-7.861l4.033-2.684z" class="C"/><path d="M29.931 159.801l-24.108-1.61c-.618 10.057 8.409 43.791 12.231 57.524l11.878-55.913z" class="H"/><path d="M80.81 87.244H59.588c-.996-.099-1.729-.953-1.65-1.924l4.42-37.378c-.079-.971.654-1.825 1.65-1.924h21.234c.998.096 1.732.952 1.65 1.924l-4.42 37.378c.075.974-.662 1.828-1.662 1.924z" class="B"/><path d="M83.718 87.244H62.484c-.995-.101-1.726-.954-1.65-1.924l4.425-37.378c-.082-.97.649-1.825 1.645-1.924h21.234c.998.096 1.732.952 1.65 1.924l-4.42 37.378c.079.971-.654 1.825-1.65 1.924z" class="F"/><path d="M77.223 61.613c-.15 2.108-1.126 3.71-2.182 3.573s-1.791-1.966-1.641-4.08 1.126-3.715 2.182-3.573 1.791 1.966 1.641 4.08z" class="D"/><path d="M58.397 78.616s11.768-3.887 13.54-6.507 1.827-7.389.628-8.674-9.997 2.037-11.663 2.212.056-.679.056-.679l.494-3.61a12.75 12.75 0 0 0-4.382 2.891c-2.399 2.263-2.283 4.889-2.627 5.822s-2.305 3.084-2.305 3.084l6.259 5.46z" class="I"/><path d="M7.975 57.579s3.901-.628 6.443 2.341 7.317 41.611 7.317 41.611l30.285-30.58s4.587 2.88 5.735 5.521l1.142 2.641s-25.709 38.147-37.162 41.494S0 82.7 0 71.646s7.975-14.067 7.975-14.067z" class="B"/><path d="M20.31 24.893c-.283 1.234 1.258 2.681 2.362 2.892s-1.269-1.472-.98-2.707 2.266-1.818 1.133-2.035-2.226.63-2.515 1.849z" fill="#8e4a2f"/><path d="M6.933 301.041H0l22.998-128.47h6.933zm88.479 0h6.933l-22.998-128.47h-6.933z" class="F"/><path d="M91.55 301.041h6.933l-22.998-128.47h-6.933zm171.79-119.945s-25.67-3.337-32.43 3.178c-19.71 18.961 39.609 96.524 39.609 96.524s3.964.909 8.175-2.489l4.205-3.398-29.662-65.86 10.104-27.954z" class="E"/><path d="M85.888 165.86H74.389l-1.975-22.051h15.449z" class="D"/><path d="M84.45 164.902h-8.622l-1.482-16.89a9.737 9.737 0 0 1 4.459-.197c2.38.478 3.743 1.785 5.526 1.239a3.769 3.769 0 0 0 1.602-1.042l-1.482 16.89z" class="B"/><path fill="#f0f1f4" d="M175.77 165.86h11.499l1.975-22.051h-15.448z"/><path d="M176.821 164.902h8.481l1.045-11.576a6.171 6.171 0 0 0-3.514-.081c-2.341.456-3.436-.247-5.196-.772-.738-.22-1.598.67-1.911.343l1.095 12.085zm125.404 39.49h-41.517l-25.732 84.06s-12.802.685-14.316-1.132l-1.486-1.823s17.705-91.589 22.704-98.185 9.568-6.59 12.212-7.043 59.706 4.999 59.706 4.999v7.678c-2.416 3.762-7.08 11.446-11.572 11.446z" class="B"/><path d="M255.408 180.268l-.509.082 27.173 23.859h21.186c4.465 0 9.108-7.626 11.503-11.359v-7.621l-59.354-4.962z" class="H"/><path d="M145.042 280.401l-3.148 10.059 7.867 5.588c1.751 1.24 2.795 3.279 2.792 5.454V302H142.19l-10.878-8.88 1.347-15.089 12.384 2.37zm105.204 20.64h-6.933l22.998-128.47h6.933z" class="E"/><path d="M137.133 280.673l-2.437 7.248 4.468 7.612 1.044.386c2.202.813 3.655 2.85 3.656 5.122h-9.749l-11.493-11.326 4.062-12.642 10.449 3.599z" class="B"/><path d="M134.208 186.247s30.976-4.014 37.436 2.569c14.221 14.479-24.852 92.293-24.852 92.293s-4.37 3.029-8.17 1.041l-3.8-1.988 17.086-80.416-17.7-13.499z" fill="#0cbfd1"/><path d="M246.383 301.041h-6.932l22.999-128.47h6.932z" class="F"/><path d="M280.003 209.962h15.448v9.587h-15.448z" class="B"/><path d="M99.706 188.72l-.235 3.613c-.193 3.039.89 6.022 2.993 8.242a11.17 11.17 0 0 0 8.109 3.479h30.293l-15.194 75.75s.945 4.938 6.283 4.938c2.795 0 7.178-2.572 7.178-2.572s25.368-78.831 23.987-86.584-16.631-9.804-24.758-9.577-38.655 2.71-38.655 2.71z" fill="#60d6e6"/><path d="M15.956 142.851l-.507 23.481 5.472.436c4.345.346 8.645-1.076 11.912-3.939a15.88 15.88 0 0 0 5.411-11.24l.378-8.565s-19.16 1.101-22.665-.173z" class="H"/><path d="M0 165.86h344.693v6.711H0z" class="D"/><path d="M0 169.695h344.693v2.876H0z" class="F"/><path d="M239.451 165.86h105.242v6.711H239.451z" class="B"/><path d="M239.451 169.695h105.242v2.876H239.451z" class="E"/><path d="M57.563 140.939l-8.321 1.321s3.747 13.851 5.96 17.77c.782 1.514 1.932 2.812 3.345 3.779a.863.863 0 0 0 .895.016.843.843 0 0 0 .418-.783l-1.341-21.32a.848.848 0 0 0-.309-.594.867.867 0 0 0-.647-.19z" class="H"/><path d="M263.589 85.327h9.655s-1.952 3.73-5.211 3.833-4.445-3.833-4.445-3.833z" class="D"/><path d="M259.73 85.327h14.479s-.22-2.888-2.72-4.014-5.204.285-6.06.242-3.182-1.503-4.505-.857-1.194 4.629-1.194 4.629z" class="C"/><path d="M49.242 38.782s-5.793.141-6.756-.146l-.968-.287s0 2.653 2.71 3.571 4.157-.777 4.519-1.715l.495-1.423z" class="D"/><path d="M336.794 301.041h6.933l-22.998-128.47h-6.933z" class="F"/><path d="M333.897 301.041h6.933l-22.998-128.47H310.9z" class="E"/><rect x="319.589" y="250.229" width="14.483" height="44.102" rx="7.241" class="F"/><g class="B"><rect x="320.555" y="250.229" width="14.483" height="44.102" rx="7.241"/><rect x="303.175" y="256.94" width="50.207" height="44.102" rx="18.836"/></g><rect fill="#ff9398" x="299.313" y="256.94" width="14.483" height="44.102" rx="7.241"/><path d="M302.787 295.206V262.77c.002-3.055 2.274-5.594 5.216-5.83h-3.03c-3.115 0-5.645 2.606-5.659 5.83v32.414c0 3.235 2.534 5.858 5.659 5.858h3.03c-2.943-.24-5.214-2.78-5.216-5.836z" class="M"/><path d="M341.969 292.413h-15.788c-3.64 0-6.591-2.879-6.591-6.431v-16.578h28.966v16.584c0 3.549-2.949 6.426-6.586 6.426z" class="E"/><path d="M343.895 292.413h-15.783c-3.64 0-6.591-2.879-6.591-6.431v-16.578h28.966v16.584c-.003 3.55-2.953 6.426-6.591 6.426z" class="M"/><path d="M281.934 219.549h10.621v9.587h-10.621zm-163.174 0h10.621v9.587H118.76z" class="E"/><path d="M359.176 258.857h54.07v1h-54.07z" class="B"/><path d="M47.855 21.072c-.23 0-.435-.192-.513-.481-.049-.183-.041-.384.021-.559s.175-.31.312-.374c1.642-.645 3.388-.645 5.029 0 .188.07.334.269.382.522s-.008.521-.147.703-.342.252-.529.181a5.95 5.95 0 0 0-4.364 0 .411.411 0 0 1-.191.007zm-9.629.979a.578.578 0 0 1-.373-.142.565.565 0 0 1-.057-.802c.103-.119 2.659-2.963 7.184-1.53.3.095.467.413.373.711a.57.57 0 0 1-.284.334.58.58 0 0 1-.439.036c-3.813-1.206-5.944 1.171-5.967 1.194a.577.577 0 0 1-.436.199z" class="C"/><g class="B"><path d="M371.728 90.121h1v162.984h-1zm6.759 14.381h1v162.984h-1zm-1.931 33.555h1v135.181h-1zm-12.552 17.257h1v135.181h-1zm19.31 24.927h1v112.171h-1z"/><path d="M361.353 121.087c8.221-4.142 17.538-2.276 20.816 4.164s-.724 15.029-8.944 19.16-25.642 19.636-28.942 13.19 8.85-32.372 17.07-36.514zm-9.468 82.25c7.034-7.576 19.115-7.809 26.988-.521s8.539 19.346 1.505 26.922-17.766 32.202-25.617 24.909-9.91-43.733-2.876-51.31zm59.387 15.086c-12.035-3.313-24.59 4.086-28.041 16.532s3.517 25.229 15.552 28.542 38.674 21.761 42.091 9.315-17.568-51.076-29.602-54.389z"/></g><path d="M345.868 157.703c9.524-6.413 21.37-5.566 26.45 1.888s1.485 18.717-8.039 25.108-28.655 28.312-33.741 20.858 5.829-41.453 15.33-47.855z" class="K"/><path d="M345.888 157.734c-8.975 6.086-19.153 36.666-16.086 46.475 8.281-24.975 13.662-32.361 22.237-41.435a41.86 41.86 0 0 1 11.964-8.819c-5.48-1.394-12.225-.194-18.116 3.779z" class="L"/><path d="M400.344 127.86c-10.984-3.597-22.192.483-25.053 9.11s3.758 18.537 14.742 22.134 35.547 19.575 38.387 10.942-17.092-38.589-28.076-42.186z" class="K"/><path d="M400.05 127.843c10.429 3.344 28.866 29.733 28.641 39.935-15.028-21.543-22.318-27.124-33.202-33.439a43.03 43.03 0 0 0-14.107-5.159c4.948-2.834 11.85-3.525 18.667-1.338z" class="L"/><path d="M387.65 94.703c-7.002 2.944-10.801 9.796-8.483 15.311s9.876 7.6 16.878 4.656 26.083-5.575 23.765-11.09-25.175-11.816-32.161-8.877z" class="K"/><path d="M372.683 77.498c4.485 3.006 6.149 8.247 3.723 11.7s-8.021 3.806-12.5.794-17.487-7.524-15.05-10.972 19.348-4.534 23.827-1.522z" class="B"/><path d="M387.177 94.713c6.673-2.808 27.474 2.707 31.861 8.06-16.981-4.527-23.07-4.218-31.266-2.724a27.74 27.74 0 0 0-9.286 3.494c1.201-3.623 4.32-6.982 8.691-8.83z" class="L"/><path d="M408.967 184.819c-12.752-8.675-29.67-8.659-37.787.039s-4.351 22.774 8.429 31.449 37.286 37.148 45.397 28.456-3.281-51.268-16.038-59.944z" class="K"/><path d="M409.761 184.785c12.116 8.121 23.001 46.108 17.438 57.774-8.848-31.003-15.66-40.421-26.848-52.164a57.68 57.68 0 0 0-16.071-11.721c8.038-1.236 17.55.797 25.481 6.11z" class="L"/><path d="M403.343 255.022h-41.984c-2.776 0-5.08 10.303-5.08 23.01v23.01h52.138v-23.01c0-12.707-2.271-23.01-5.074-23.01z" fill="#ff9398"/><path d="M372.693 255.022h-11.166c-2.868 0-5.248 10.303-5.248 23.01v23.01h11.172v-23.01c0-12.707 2.346-23.01 5.242-23.01z" fill="#f4828b"/><path d="M404.907 259.816H359.79c-2.461 0-4.461-1.999-4.476-4.476v-5.112h54.069v5.112c.002 1.192-.471 2.336-1.311 3.176a4.429 4.429 0 0 1-3.165 1.299z" class="M"/><path d="M330.238 237.563c5.349-10.16 16.153-14.94 24.133-10.735s10.098 15.892 4.748 26.052-11.851 38.569-19.826 34.308-14.394-39.465-9.055-49.625z" class="K"/><path d="M330.284 238.069c-5.135 9.562.365 41.348 7.803 48.591-4.494-25.931-3.225-34.973.112-47.008a41.45 41.45 0 0 1 6.494-13.392c-5.578 1.328-11.039 5.556-14.409 11.809z" class="L"/></svg>