<svg width="394" height="319" fill="none" xmlns="http://www.w3.org/2000/svg" xmlns:xlink="http://www.w3.org/1999/xlink"><path fill-rule="evenodd" clip-rule="evenodd" d="M349.655 85.642c22.681 36.05 58.158 84.075 33.505 118.896-26.183 36.983-87.552-4.678-128.035 14.625-32.012 15.264-32.713 70.248-67.107 78.422-49.029 11.653-108.761 9.492-142.36-28.639-36.42-41.335-59.044-117.11-22.898-158.916 38.102-44.067 112.54 15.912 165.793-6.353 37.376-15.627 32.355-88.775 72.474-93.266 39.771-4.452 67.04 40.917 88.628 75.231Z" fill="url(#a)"/><path d="M227.683 30.485c13.525 0 24.489 10.964 24.489 24.488 0 13.525-10.964 24.488-24.489 24.488-13.524 0-24.488-10.963-24.488-24.488 0-13.524 10.964-24.488 24.488-24.488Z" fill="#fff"/><path d="M227.683 30.485c13.525 0 24.489 10.964 24.489 24.488 0 13.525-10.964 24.488-24.489 24.488-13.524 0-24.488-10.963-24.488-24.488 0-13.524 10.964-24.488 24.488-24.488Z" stroke="#E4E4E3"/><circle cx="228.524" cy="54.973" r="10.556" fill="url(#b)"/><circle cx="228.523" cy="54.973" r="8.022" fill="url(#c)"/><path d="M242.04 49.906h1.266v15.2h-1.266v-15.2Z" fill="#0078D4"/><path d="M240.771 46.95c0-1.398 1.134-2.533 2.533-2.533v8.867h-2.533v-6.333Z" fill="#199BE2"/><path d="M214.172 52.862h.845l.393 11.4a.816.816 0 1 1-1.631 0l.393-11.4Z" fill="#0078D4"/><path d="M212.061 49.061h5.066v1.69a2.533 2.533 0 1 1-5.066 0v-1.69Z" fill="#199BE2"/><path fill="#199BE2" d="M212.061 44.417h.844v5.067h-.844zM216.285 44.417h.844v5.067h-.844zM214.173 44.417h.844v5.067h-.844z"/><mask id="d" style="mask-type:luminance" maskUnits="userSpaceOnUse" x="65" y="108" width="220" height="157"><path d="M253.231 108.902 78.045 133.381c-7.93 1.108-13.456 8.399-12.341 16.284l14.43 102.082c1.114 7.885 8.446 13.379 16.377 12.271l175.185-24.48c7.931-1.108 13.456-8.399 12.342-16.284l-14.43-102.082c-1.114-7.885-8.447-13.379-16.377-12.27Z" fill="#fff"/></mask><g mask="url(#d)"><path d="m253.231 108.901-175.186 24.48c-7.93 1.108-13.456 8.399-12.341 16.284l14.43 102.082c1.114 7.885 8.446 13.379 16.377 12.27l175.185-24.479c7.931-1.108 13.456-8.399 12.342-16.284l-14.43-102.082c-1.114-7.885-8.447-13.379-16.377-12.271Z" fill="url(#e)"/><path d="M111.975 205.077c64.436-9.004 109.33-68.239 100.274-132.305-9.056-64.066-68.632-108.703-133.068-99.7-64.436 9.005-109.33 68.24-100.274 132.306 9.056 64.066 68.632 108.703 133.068 99.699Z" fill="#C2DDE4" fill-opacity=".17"/><path d="M267.594 106.9 63.69 135.392l18.667 132.065 203.905-28.493L267.594 106.9Z" fill="url(#f)" fill-opacity=".02"/><path d="m192.037 229.435-.088-.625 1.723-.241-.682-4.822-.06.008-1.318 1.617-.487-.394 1.385-1.706 1.129-.158.757 5.355 1.585-.222.088.625-4.032.563Zm9.061-1.265-4.015.562-.104-.738 1.752-2.08c.256-.303.459-.605.61-.905.151-.306.205-.614.161-.922l-.015-.103c-.052-.36-.185-.624-.402-.792-.217-.173-.513-.234-.887-.181-.368.052-.638.185-.813.402-.17.209-.282.475-.335.797l-.681-.148c.033-.186.087-.368.161-.548a1.84 1.84 0 0 1 .323-.508c.137-.153.309-.284.516-.395.213-.111.466-.188.758-.228.299-.043.569-.036.812.018.246.052.459.146.635.277.184.133.33.299.44.499.116.198.192.423.227.675a1.95 1.95 0 0 1-.013.657 2.345 2.345 0 0 1-.193.613c-.09.198-.205.398-.346.598-.137.194-.294.39-.471.59l-1.475 1.692 3.266-.457.089.625Zm1.481.998 1.912-8.111.619-.086-1.91 8.111-.621.086Zm8.851-2.442-4.016.561-.104-.736 1.754-2.08c.256-.303.459-.606.61-.906.149-.307.203-.613.159-.923l-.015-.102c-.05-.361-.184-.623-.401-.791-.218-.173-.514-.234-.886-.183-.368.052-.639.186-.813.402-.17.211-.282.477-.335.799l-.681-.15c.033-.184.086-.367.16-.546a1.814 1.814 0 0 1 .838-.903c.213-.111.466-.188.76-.229.299-.042.567-.035.81.018a1.59 1.59 0 0 1 1.077.775c.115.2.192.425.226.676.033.229.028.448-.012.658a2.253 2.253 0 0 1-.195.611 3.52 3.52 0 0 1-.346.599 6.405 6.405 0 0 1-.47.589l-1.474 1.692 3.265-.457.089.626Zm3.139-.333a3.082 3.082 0 0 1-.941 0 2.064 2.064 0 0 1-.715-.275 1.592 1.592 0 0 1-.473-.494 1.802 1.802 0 0 1-.227-.666c-.058-.412.008-.754.198-1.025.191-.27.463-.481.816-.63l-.011-.067a1.625 1.625 0 0 1-.839-.416 1.45 1.45 0 0 1-.401-.844c-.065-.456.053-.843.355-1.158.301-.323.755-.526 1.364-.61.608-.086 1.102-.014 1.479.212.376.221.598.56.662 1.017a1.41 1.41 0 0 1-.16.922c-.15.266-.378.475-.684.629l.009.068c.382.046.702.172.959.382.258.208.417.517.475.929.035.245.021.481-.042.705a1.425 1.425 0 0 1-.318.603c-.157.18-.36.333-.611.461a2.967 2.967 0 0 1-.895.257Zm-.087-.608c.425-.06.746-.201.959-.423.216-.222.299-.505.251-.847l-.027-.189c-.049-.342-.208-.591-.475-.746-.263-.156-.609-.203-1.039-.144-.431.061-.754.202-.969.424-.208.222-.288.503-.241.847l.027.188c.049.342.208.591.475.746.267.155.615.203 1.039.144Zm-.413-2.93c.39-.055.674-.179.852-.372.182-.196.253-.448.209-.756l-.017-.12c-.043-.308-.183-.53-.418-.666-.232-.136-.535-.178-.916-.125-.379.053-.662.177-.852.372-.182.194-.253.446-.209.755l.017.119c.044.31.178.532.403.669.229.138.539.178.931.124ZM97.801 242.709c-.736.103-1.32-.086-1.758-.566-.43-.482-.717-1.223-.859-2.222-.141-.999-.072-1.789.21-2.37.286-.582.797-.924 1.533-1.027a2.08 2.08 0 0 1 .731.012c.21.046.398.122.558.227.162.106.304.231.423.378.12.141.228.286.326.435l-.58.369a2.568 2.568 0 0 0-.233-.343 1.21 1.21 0 0 0-.294-.273.972.972 0 0 0-.367-.167 1.28 1.28 0 0 0-.476-.013c-.477.067-.807.297-.992.69-.178.392-.225.888-.142 1.486l.138.977c.085.601.268 1.064.55 1.392.285.327.668.456 1.144.389.184-.025.335-.072.455-.14.124-.071.226-.155.306-.254.085-.104.153-.219.206-.344.052-.128.094-.262.127-.401l.66.197c-.05.175-.114.347-.19.514a1.891 1.891 0 0 1-.301.47 1.667 1.667 0 0 1-.475.373 2.06 2.06 0 0 1-.7.211Zm6.513-1.015-.75-1.634-2.11.296-.267 1.776-.75.104.998-6.236.956-.135 2.689 5.723-.766.106Zm-2.263-5.003-.077.011-.437 3.005 1.766-.247-1.252-2.769Zm4.784 4.651-.723.102-.846-5.98 2.188-.305c.557-.078 1.004.014 1.34.275.335.261.541.664.618 1.207.069.485-.003.891-.214 1.218-.212.327-.555.545-1.031.66l1.899 2.371-.81.114-1.825-2.348-.956.133.36 2.553Zm1-3.363c.305-.042.53-.15.676-.322.149-.178.206-.406.165-.686l-.063-.446c-.039-.28-.155-.483-.349-.606-.187-.132-.434-.175-.739-.133l-1.447.201.31 2.194 1.447-.202Zm2.64-3.242 1.679-.236c.736-.102 1.32.071 1.754.525.432.452.718 1.171.858 2.159.14.988.065 1.759-.226 2.312-.291.552-.805.881-1.54.984l-1.679.234-.846-5.978Zm2.403 5.123c.483-.067.821-.283 1.016-.649.199-.366.256-.85.171-1.457l-.131-.924c-.086-.605-.275-1.057-.569-1.354-.287-.297-.673-.413-1.155-.345l-.924.129.67 4.728.922-.128Zm11.328-3.715-2.343.329.384 2.714-.724.101-.844-5.978.723-.102.373 2.639 2.343-.328-.373-2.638.723-.101.846 5.978-.723.102-.385-2.716Zm4.393 2.261c-.368.052-.693.027-.976-.073a1.824 1.824 0 0 1-.741-.518 2.81 2.81 0 0 1-.516-.915 6.386 6.386 0 0 1-.306-1.293 6.35 6.35 0 0 1-.063-1.319c.025-.4.105-.743.24-1.029.136-.287.326-.517.571-.692.244-.179.549-.294.917-.346.368-.052.693-.025.978.081.283.1.53.269.739.508.209.24.382.548.517.924.136.371.236.799.305 1.286.07.491.092.933.065 1.327a2.838 2.838 0 0 1-.242 1.021 1.821 1.821 0 0 1-.569.7c-.244.174-.551.286-.919.338Zm-.088-.625c.241-.035.439-.108.591-.224.155-.12.272-.274.357-.46a1.78 1.78 0 0 0 .147-.648 4.035 4.035 0 0 0-.04-.834l-.138-.977a3.88 3.88 0 0 0-.192-.802 1.759 1.759 0 0 0-.321-.594 1.159 1.159 0 0 0-1.102-.396 1.2 1.2 0 0 0-.591.232 1.133 1.133 0 0 0-.357.452 1.857 1.857 0 0 0-.153.658c-.012.252.003.527.046.824l.138.975c.043.304.104.574.184.813.087.233.195.427.329.584.134.156.291.272.47.345.181.067.39.085.632.052Zm3.689.017-.846-5.98.725-.1.756 5.353 2.851-.399.09.626-3.576.5Zm4.106-6.671 1.679-.235c.736-.103 1.32.072 1.752.524.434.452.72 1.172.86 2.159.138.988.063 1.759-.228 2.312-.291.554-.803.882-1.538.984l-1.681.234-.844-5.978Zm2.403 5.123c.481-.067.82-.283 1.014-.647.201-.366.258-.852.173-1.457l-.132-.926c-.085-.605-.275-1.057-.57-1.352-.287-.299-.673-.413-1.155-.346l-.922.128.669 4.73.923-.13Zm3.564.141-.844-5.98 3.705-.518.088.625-2.982.416.285 2.014 2.878-.402.088.626-2.878.401.296 2.091 2.981-.418.088.626-3.705.519Zm5.891-.824-.724.101-.846-5.98 2.189-.305c.557-.078 1.004.014 1.338.276.337.262.543.664.62 1.207.068.484-.003.891-.215 1.218-.211.326-.555.545-1.03.659l1.898 2.372-.81.114-1.826-2.348-.956.133.362 2.553Zm1-3.363c.305-.042.53-.15.674-.322.151-.178.206-.407.167-.687l-.063-.445c-.039-.28-.155-.482-.349-.607-.189-.131-.434-.175-.739-.133l-1.448.204.311 2.192 1.447-.202Zm8.521-3.13-.06.008.716 5.064-.656.09-.844-5.978 1.025-.144 2.758 4.725.061-.008-.709-5.013.656-.09.844 5.978-1.025.144-2.766-4.776Zm8.622 3.959-.75-1.634-2.111.294-.267 1.776-.75.104.999-6.236.957-.135 2.689 5.723-.767.108Zm-2.263-5.005-.077.011-.437 3.005 1.767-.247-1.253-2.769Zm6.78 1.315-.267-1.894-.069.01-.832 3.253-1.701-2.898-.068.009.267 1.893.423 2.999-.663.092-.845-5.98.931-.13 1.433 2.491.052-.008.685-2.786.897-.125.846 5.98-.664.092-.425-2.998Zm2.446 2.715-.845-5.978 3.705-.518.088.626-2.981.416.284 2.013 2.878-.403.088.625-2.878.404.296 2.09 2.981-.417.088.625-3.704.517ZM251.775 154.783a.57.57 0 0 1-.166-.409.58.58 0 0 1 .994-.399 3.385 3.385 0 0 1 .568 4.018.586.586 0 0 1-.786.233.58.58 0 0 1-.235-.782 2.222 2.222 0 0 0 .263-1.391 2.221 2.221 0 0 0-.217-.699 2.227 2.227 0 0 0-.421-.571Zm1.816-1.338a4.55 4.55 0 0 1 1.017 2.3 4.543 4.543 0 0 1-.335 2.487.574.574 0 0 0 .297.76.569.569 0 0 0 .445.01.58.58 0 0 0 .32-.305 5.67 5.67 0 0 0 .419-3.111 5.695 5.695 0 0 0-1.265-2.879.605.605 0 0 0-.176-.142.639.639 0 0 0-.217-.064.609.609 0 0 0-.225.023.585.585 0 0 0-.406.499c-.008.075 0 .15.024.224a.557.557 0 0 0 .107.197l-.005.001Zm1.94-1.368a6.956 6.956 0 0 1 1.439 3.351 6.912 6.912 0 0 1-.456 3.61.596.596 0 0 0 .002.442.575.575 0 0 0 .536.355.607.607 0 0 0 .223-.044.593.593 0 0 0 .313-.313 8.036 8.036 0 0 0 .53-4.208 8.058 8.058 0 0 0-1.676-3.918.586.586 0 0 0-.821-.091.578.578 0 0 0-.09.816Zm1.93-1.38a9.255 9.255 0 0 1 1.858 4.402 9.22 9.22 0 0 1-.567 4.738.591.591 0 0 0-.04.22.592.592 0 0 0 .178.403.592.592 0 0 0 .412.16.594.594 0 0 0 .22-.047.587.587 0 0 0 .307-.317c.674-1.691.894-3.526.638-5.326a10.417 10.417 0 0 0-2.093-4.959.581.581 0 0 0-.81-.108.58.58 0 0 0-.221.382c-.021.15.02.303.113.423M129.44 146.851l-.846-5.979 3.843-.538.149 1.054-2.55.357.193 1.371 2.464-.344.15 1.054-2.465.344.205 1.447 2.55-.356.15 1.054-3.843.536ZM126.206 144.586l-.167-1.681-.079.011-.685 3.232-1.554-2.918-.079.011.306 1.66.377 2.665-1.12.156-.846-5.98 1.526-.213 1.025 1.911.069-.011.456-2.116 1.422-.2.846 5.98-1.122.157-.375-2.664ZM120.73 148.07l-.583-1.385-1.645.23-.168 1.492-1.309.182.783-6.206 1.826-.257 2.474 5.752-1.378.192Zm-1.833-4.574-.07.011-.265 2.342 1.24-.172-.905-2.181ZM112.261 145.198l-.095.013.562 3.974-1.103.155-.846-5.979 1.552-.217 1.931 3.783.095-.014-.562-3.974 1.103-.153.846 5.978-1.551.218-1.932-3.784ZM101.394 148.228l-.43.821.247 1.746-1.292.182-.845-5.98 1.293-.18.354 2.501.069-.009.514-1.085.846-1.656 1.448-.203-1.443 2.778 2.374 3.19-1.456.203-1.679-2.308ZM94.61 147.666l-.094.012.561 3.976-1.102.153-.846-5.978 1.55-.218 1.933 3.784.094-.013-.561-3.976 1.102-.153.846 5.979-1.552.217-1.93-3.783ZM91.308 152.174l-.582-1.385-1.646.23-.167 1.491-1.31.183.784-6.206 1.827-.257 2.473 5.752-1.379.192Zm-1.832-4.574-.069.011-.266 2.342 1.241-.172-.906-2.181ZM81.498 147.453l2.112-.296c.591-.082 1.061-.003 1.412.24.357.242.57.608.638 1.099.05.342.002.628-.141.858-.139.224-.359.403-.662.538l.008.051c.385.04.695.16.929.36.239.2.387.502.443.907.073.503-.033.925-.313 1.268-.273.341-.698.552-1.272.631l-2.308.322-.846-5.978Zm2.63 4.812c.31-.044.53-.126.66-.248.129-.124.174-.322.135-.596l-.035-.249c-.039-.275-.137-.453-.295-.536-.158-.083-.392-.102-.702-.058l-.655.091.239 1.688.654-.092Zm-.523-2.522c.305-.042.519-.122.643-.237.124-.122.167-.315.13-.577l-.037-.258c-.036-.263-.13-.433-.283-.51-.15-.078-.379-.095-.684-.053l-.49.069.23 1.635.491-.069ZM94.181 216.708c-.803.111-1.435-.076-1.898-.566-.456-.489-.753-1.222-.89-2.198-.138-.977-.056-1.763.246-2.357.308-.598.865-.951 1.67-1.064.803-.112 1.434.076 1.888.566.462.488.763 1.221.9 2.197.138.977.053 1.764-.255 2.359-.302.596-.856.951-1.66 1.063Zm-.141-1.011c.383-.053.632-.225.744-.514.116-.291.141-.676.073-1.156l-.157-1.113c-.067-.48-.198-.843-.391-1.09-.187-.247-.474-.344-.859-.291-.383.055-.635.227-.752.516-.111.29-.133.674-.066 1.154l.158 1.113c.067.48.195.845.382 1.092.193.247.483.342.868.289Zm-.224-1.576c-.2.028-.347.008-.438-.061a.42.42 0 0 1-.154-.275l-.027-.189a.418.418 0 0 1 .07-.307c.07-.092.205-.151.406-.18.202-.028.345-.006.431.063a.409.409 0 0 1 .162.275l.027.188a.4.4 0 0 1-.08.308c-.063.09-.195.15-.396.178Zm8.404 1.463c-.804.113-1.438-.075-1.898-.564-.456-.489-.753-1.223-.892-2.2-.137-.975-.055-1.762.247-2.358.308-.595.865-.95 1.668-1.063.806-.112 1.435.077 1.891.566.462.49.761 1.221.899 2.199.138.977.053 1.763-.255 2.359-.303.595-.855.949-1.66 1.061Zm-.143-1.01c.385-.054.633-.225.745-.514.116-.291.141-.675.074-1.155l-.157-1.114c-.068-.48-.199-.842-.392-1.089-.187-.249-.473-.346-.858-.291-.386.053-.636.225-.754.516-.111.289-.132.674-.064 1.152l.157 1.115c.068.48.195.843.382 1.091.194.246.483.343.867.289Zm-.222-1.576c-.201.027-.348.007-.44-.061a.422.422 0 0 1-.153-.276l-.027-.188a.425.425 0 0 1 .071-.308c.069-.091.205-.15.406-.178.201-.028.344-.008.431.062a.4.4 0 0 1 .16.274l.027.189a.395.395 0 0 1-.079.308c-.063.091-.196.15-.396.178Zm8.403 1.464c-.803.112-1.437-.077-1.898-.565-.456-.489-.753-1.222-.891-2.199-.139-.978-.055-1.762.246-2.358.309-.597.865-.951 1.669-1.063.803-.113 1.434.076 1.89.566.461.488.761 1.221.899 2.198.139.976.052 1.762-.256 2.359-.302.596-.855.949-1.659 1.062Zm-.143-1.012c.385-.053.634-.225.744-.514.118-.289.143-.676.074-1.154l-.158-1.115c-.067-.48-.198-.842-.39-1.089-.188-.247-.473-.344-.858-.291-.385.054-.637.226-.753.516-.112.289-.134.674-.066 1.154l.157 1.113c.069.48.196.844.384 1.091.193.247.481.344.866.289Zm-.223-1.576c-.2.028-.348.008-.439-.061a.406.406 0 0 1-.152-.275l-.027-.189a.406.406 0 0 1 .071-.306c.069-.091.204-.151.405-.179.2-.028.345-.008.43.061a.396.396 0 0 1 .161.275l.027.188a.399.399 0 0 1-.078.308c-.065.091-.197.15-.398.178Zm8.405 1.464c-.806.112-1.438-.075-1.9-.565-.456-.489-.752-1.222-.89-2.198-.138-.977-.057-1.764.247-2.359.308-.596.863-.951 1.668-1.063.804-.111 1.434.076 1.89.566.461.489.761 1.222.898 2.198.139.977.054 1.763-.255 2.359-.301.596-.855.951-1.658 1.062Zm-.144-1.01c.386-.055.633-.225.744-.515.118-.291.142-.675.074-1.155l-.157-1.113c-.068-.48-.198-.843-.392-1.09-.187-.247-.473-.344-.857-.291-.385.053-.637.225-.753.516-.112.289-.134.674-.066 1.154l.157 1.113c.068.48.195.843.384 1.091.192.247.481.343.866.29Zm-.223-1.576c-.201.028-.347.008-.439-.061a.432.432 0 0 1-.154-.277l-.026-.188a.405.405 0 0 1 .072-.306c.068-.092.203-.152.404-.18.201-.028.344-.008.431.063a.4.4 0 0 1 .162.273l.027.19a.397.397 0 0 1-.081.307c-.062.091-.195.151-.396.179Zm24.48-.784c-.805.113-1.437-.075-1.899-.564-.455-.489-.752-1.223-.89-2.2-.139-.975-.055-1.762.247-2.357.308-.596.863-.951 1.668-1.064.803-.112 1.434.077 1.89.566.461.49.761 1.221.899 2.199.137.977.052 1.763-.256 2.359-.302.596-.855.949-1.659 1.061Zm-.143-1.01c.385-.054.632-.225.744-.514.118-.291.143-.675.074-1.155l-.157-1.113c-.068-.48-.199-.843-.392-1.09-.187-.249-.473-.346-.857-.291-.385.053-.637.225-.753.516-.112.289-.134.674-.066 1.152l.157 1.115c.069.48.197.843.384 1.091.191.246.481.343.866.289Zm-.223-1.577c-.201.028-.348.008-.439-.059a.417.417 0 0 1-.152-.277l-.027-.188a.407.407 0 0 1 .071-.308c.069-.09.204-.15.404-.178.201-.028.346-.008.431.063a.395.395 0 0 1 .162.273l.026.189a.4.4 0 0 1-.08.308c-.063.091-.195.15-.396.177Zm8.405 1.465c-.806.112-1.438-.077-1.9-.565-.456-.489-.752-1.222-.89-2.199-.138-.977-.057-1.762.247-2.358.308-.597.863-.951 1.668-1.063.804-.113 1.434.077 1.889.566.462.488.762 1.221.899 2.198.139.976.054 1.762-.254 2.359-.302.596-.856.949-1.659 1.062Zm-.143-1.012c.383-.053.632-.225.743-.514.118-.289.142-.675.074-1.154l-.157-1.115c-.068-.48-.198-.842-.392-1.089-.187-.247-.473-.344-.858-.291-.384.055-.635.227-.752.516-.111.289-.133.674-.066 1.154l.157 1.113c.068.48.195.844.383 1.091.193.247.482.344.868.289Zm-.224-1.576c-.201.029-.347.008-.439-.061a.42.42 0 0 1-.154-.275l-.026-.189a.419.419 0 0 1 .07-.306c.07-.091.205-.152.406-.179.201-.028.344-.007.431.061a.405.405 0 0 1 .162.276l.027.187a.4.4 0 0 1-.081.308c-.062.091-.195.15-.396.178Zm8.403 1.464c-.803.112-1.437-.075-1.898-.565-.456-.489-.753-1.222-.891-2.198-.137-.977-.055-1.763.247-2.359.308-.596.865-.951 1.668-1.063.805-.111 1.434.076 1.89.566.463.489.761 1.222.9 2.198.138.977.053 1.764-.255 2.359-.302.596-.855.949-1.661 1.062Zm-.143-1.01c.386-.055.634-.225.746-.515.116-.29.141-.675.074-1.155l-.158-1.113c-.067-.48-.198-.843-.391-1.09-.187-.247-.474-.344-.859-.291-.385.054-.635.225-.753.516-.112.29-.132.674-.064 1.154l.157 1.113c.067.48.195.843.382 1.092.193.247.483.342.866.289Zm-.221-1.576c-.202.028-.348.008-.441-.061a.423.423 0 0 1-.152-.277l-.027-.187a.415.415 0 0 1 .071-.307c.069-.092.204-.152.406-.18.201-.028.344-.008.43.063a.4.4 0 0 1 .162.273l.026.19a.395.395 0 0 1-.079.308c-.063.09-.195.15-.396.178Zm8.403 1.463c-.804.113-1.437-.076-1.898-.564-.456-.49-.753-1.223-.892-2.2-.138-.976-.055-1.762.247-2.358.308-.595.865-.95 1.669-1.063.803-.112 1.434.077 1.89.566.46.49.761 1.221.899 2.198.138.976.054 1.762-.255 2.36-.303.595-.857.949-1.66 1.061Zm-.143-1.011c.385-.053.633-.225.744-.515.117-.289.143-.674.075-1.154l-.159-1.114c-.067-.479-.198-.843-.39-1.09-.187-.247-.473-.344-.858-.289-.386.053-.636.225-.754.514-.111.289-.133.674-.066 1.154l.159 1.115c.068.478.195.842.382 1.089.194.247.481.344.867.29Zm-.224-1.576c-.199.028-.345.008-.438-.061a.417.417 0 0 1-.153-.275l-.027-.19a.42.42 0 0 1 .071-.306c.069-.091.205-.15.406-.178.2-.028.344-.008.429.061a.397.397 0 0 1 .162.275l.027.189a.4.4 0 0 1-.079.308c-.064.089-.196.149-.398.177Zm24.48-.782c-.803.113-1.437-.077-1.897-.564-.456-.491-.754-1.223-.892-2.2-.137-.977-.055-1.762.247-2.358.308-.597.865-.95 1.668-1.063.805-.113 1.434.077 1.89.566.463.488.761 1.221.9 2.198.138.976.053 1.762-.255 2.359-.303.595-.855.949-1.661 1.062Zm-.143-1.012c.386-.053.634-.225.746-.514.116-.289.141-.675.074-1.154l-.158-1.114c-.067-.48-.198-.843-.391-1.09-.187-.247-.473-.344-.859-.291-.385.055-.635.227-.753.516-.112.289-.132.674-.064 1.154l.157 1.113c.067.48.195.844.382 1.091.193.247.483.344.866.289Zm-.221-1.575c-.202.028-.348.007-.441-.061a.418.418 0 0 1-.152-.276l-.027-.189a.415.415 0 0 1 .071-.306c.069-.091.204-.152.406-.178.201-.029.344-.008.43.06a.402.402 0 0 1 .161.276l.027.187a.394.394 0 0 1-.079.308c-.063.091-.197.15-.396.179Zm8.403 1.463c-.805.112-1.437-.075-1.898-.565-.456-.489-.753-1.222-.892-2.198-.138-.977-.055-1.763.247-2.359.308-.596.865-.951 1.669-1.063.803-.111 1.434.077 1.89.566.46.489.761 1.222.899 2.198.137.977.052 1.764-.256 2.359-.302.596-.856.949-1.659 1.062Zm-.143-1.01c.385-.055.633-.225.744-.514.117-.291.143-.676.073-1.156l-.157-1.113c-.067-.48-.198-.843-.39-1.09-.188-.247-.473-.344-.858-.291-.386.054-.637.226-.754.516-.111.29-.133.674-.066 1.154l.158 1.113c.069.48.196.843.383 1.092.194.245.482.342.867.289Zm-.224-1.576c-.201.028-.347.008-.438-.061a.416.416 0 0 1-.153-.277l-.026-.187a.402.402 0 0 1 .07-.307c.069-.092.205-.151.404-.18.202-.028.346-.007.431.063a.393.393 0 0 1 .162.274l.027.189a.395.395 0 0 1-.079.308c-.064.09-.196.15-.398.178Zm8.405 1.463c-.805.113-1.437-.076-1.899-.564-.456-.489-.752-1.223-.89-2.2-.139-.975-.057-1.762.247-2.358.308-.597.863-.95 1.668-1.063.804-.112 1.434.077 1.89.566.461.488.761 1.221.898 2.199.138.975.053 1.762-.255 2.359-.302.595-.855.949-1.659 1.061Zm-.143-1.011c.384-.053.632-.225.744-.515.118-.289.141-.673.074-1.153l-.157-1.115c-.068-.479-.198-.843-.392-1.09-.187-.247-.473-.344-.857-.289-.385.053-.637.225-.753.514-.112.29-.134.674-.066 1.154l.157 1.115c.068.478.195.843.384 1.09.192.247.481.344.866.289Zm-.223-1.576c-.201.028-.348.008-.439-.061a.418.418 0 0 1-.154-.275l-.027-.189a.422.422 0 0 1 .071-.307c.069-.091.205-.15.406-.178.201-.028.344-.008.431.061a.405.405 0 0 1 .162.275l.026.188a.402.402 0 0 1-.08.309c-.063.089-.195.149-.396.177Zm8.403 1.465c-.803.111-1.436-.077-1.898-.566-.456-.49-.753-1.223-.89-2.198-.138-.978-.056-1.764.245-2.358.309-.597.865-.952 1.669-1.063.805-.113 1.434.075 1.89.564.462.49.761 1.223.899 2.198.139.978.054 1.764-.254 2.36-.302.595-.856.95-1.661 1.063Zm-.143-1.012c.385-.053.634-.225.745-.514.117-.291.142-.676.074-1.156l-.157-1.113c-.068-.48-.198-.842-.392-1.089-.187-.247-.473-.344-.858-.291-.385.055-.635.225-.753.516-.11.289-.132.674-.065 1.154l.157 1.113c.068.48.195.844.383 1.091.193.247.482.342.866.289Zm-.222-1.576c-.201.028-.347.008-.438-.061a.414.414 0 0 1-.155-.275l-.026-.189a.415.415 0 0 1 .071-.306c.069-.093.204-.152.405-.18.201-.028.345-.007.431.062.091.069.145.16.162.275l.027.188a.404.404 0 0 1-.08.308c-.063.091-.195.15-.397.178Zm24.48-.783c-.805.113-1.437-.075-1.899-.564-.456-.49-.752-1.223-.89-2.199-.139-.977-.057-1.763.247-2.359.306-.596.863-.95 1.668-1.063.804-.113 1.434.077 1.889.566.462.489.762 1.221.899 2.198.138.977.053 1.764-.255 2.359-.302.596-.855.949-1.659 1.062Zm-.143-1.01c.384-.055.632-.225.744-.514.118-.291.142-.676.074-1.156l-.157-1.113c-.068-.48-.198-.843-.392-1.09-.187-.248-.473-.344-.858-.29-.384.053-.636.225-.752.516-.112.289-.134.673-.066 1.153l.157 1.113c.068.48.195.843.382 1.092.194.245.483.342.868.289Zm-.223-1.576c-.201.028-.348.008-.439-.061a.423.423 0 0 1-.154-.277l-.027-.187a.42.42 0 0 1 .071-.307c.069-.092.205-.151.406-.179.201-.029.344-.008.431.062a.41.41 0 0 1 .162.274l.026.189a.4.4 0 0 1-.08.308c-.063.091-.195.15-.396.178Zm8.403 1.463c-.803.113-1.437-.076-1.898-.564-.456-.489-.753-1.223-.891-2.2-.137-.975-.055-1.762.246-2.357.309-.598.865-.951 1.669-1.064.805-.112 1.434.077 1.89.566.462.488.761 1.221.899 2.199.139.975.054 1.762-.254 2.359-.304.596-.856.949-1.661 1.061Zm-.143-1.011c.385-.053.634-.225.745-.514.117-.29.142-.674.074-1.154l-.157-1.115c-.068-.478-.198-.843-.391-1.09-.188-.247-.474-.344-.859-.291-.385.055-.635.227-.753.516-.112.29-.132.674-.065 1.154l.158 1.113c.067.48.195.845.382 1.092.193.247.482.344.866.289Zm-.222-1.576c-.201.028-.347.008-.44-.061a.412.412 0 0 1-.152-.275l-.027-.189a.418.418 0 0 1 .071-.307c.069-.09.204-.15.405-.178.202-.028.345-.008.431.061a.399.399 0 0 1 .16.275l.027.188a.393.393 0 0 1-.078.309c-.063.089-.195.149-.397.177Zm8.404 1.463c-.804.113-1.438-.075-1.898-.564-.456-.489-.754-1.223-.892-2.198-.138-.977-.055-1.764.247-2.359.308-.596.865-.951 1.668-1.062.804-.113 1.434.075 1.89.564.461.49.761 1.223.9 2.199.138.977.052 1.763-.255 2.359-.303.595-.857.95-1.66 1.061Zm-.144-1.01c.386-.053.634-.225.744-.514.118-.291.143-.675.076-1.155l-.159-1.114c-.068-.48-.198-.842-.39-1.089-.187-.247-.473-.344-.859-.291-.385.053-.636.225-.753.516-.111.289-.133.674-.066 1.154l.159 1.113c.068.48.195.843.382 1.091.193.247.481.343.866.289Zm-.223-1.576c-.2.029-.347.008-.439-.061a.414.414 0 0 1-.152-.275l-.027-.189a.415.415 0 0 1 .071-.306c.069-.093.204-.152.406-.18.199-.028.344-.006.429.062.093.069.146.16.162.276l.027.187a.403.403 0 0 1-.079.308c-.064.091-.197.15-.398.178Zm8.405 1.464c-.805.112-1.437-.075-1.9-.565-.456-.489-.751-1.222-.89-2.199-.138-.976-.056-1.762.247-2.358.309-.596.864-.951 1.669-1.063.803-.113 1.434.076 1.89.566.461.489.761 1.221.898 2.198.138.977.053 1.764-.255 2.359-.302.596-.855.949-1.659 1.062Zm-.143-1.01c.385-.055.632-.227.744-.516.118-.289.141-.674.074-1.154l-.158-1.113c-.067-.48-.198-.844-.391-1.09-.187-.248-.474-.345-.857-.291-.385.054-.637.225-.753.516-.112.29-.134.674-.066 1.153l.157 1.114c.067.479.195.843.383 1.09.192.247.482.344.867.291Zm-.223-1.578c-.202.028-.348.008-.439-.061a.412.412 0 0 1-.154-.275l-.025-.187a.405.405 0 0 1 .07-.308c.07-.091.203-.151.404-.179.202-.028.345-.008.431.063a.393.393 0 0 1 .162.273l.027.19a.402.402 0 0 1-.08.308c-.063.09-.195.148-.396.176Z" fill="#fff"/><path d="m109.921 164.167-20.965 2.929c-2.379.332-4.037 2.52-3.702 4.885l1.937 13.706c.335 2.366 2.534 4.014 4.913 3.682l20.965-2.93c2.38-.332 4.037-2.52 3.703-4.885l-1.937-13.706c-.335-2.366-2.535-4.014-4.914-3.681Z" fill="url(#g)" stroke="#666" stroke-width=".527"/><path fill-rule="evenodd" clip-rule="evenodd" d="M104.353 169.762c-1.32-1.903-3.166-3.284-4.32-3.762a.314.314 0 0 1-.17-.166.315.315 0 0 1-.001-.236.31.31 0 0 1 .404-.169c1.509.618 3.395 2.258 4.585 3.971a.294.294 0 0 1 .06.111.293.293 0 0 1-.135.326.287.287 0 0 1-.294.029.293.293 0 0 1-.129-.104Zm-7.948 11.095c.422 2.835 3.584 5.843 5.586 6.678a.27.27 0 0 1 .104.062.294.294 0 0 1 .061.333.315.315 0 0 1-.096.124.303.303 0 0 1-.145.061.282.282 0 0 1-.157-.022c-2.135-.88-5.312-3.882-5.912-6.884l-9.088 1.271a.315.315 0 0 1-.21-.07.306.306 0 0 1 .126-.532l9.145-1.279c.29-2.076-.01-4.191-.863-6.106l-9.146 1.277a.305.305 0 0 1-.344-.258.3.3 0 0 1 .26-.341l9.087-1.271c-.257-3.06 1.976-6.807 3.773-8.236a.315.315 0 0 1 .23-.064c.08.011.156.051.206.115a.309.309 0 0 1-.053.433c-1.697 1.337-3.902 5.097-3.521 7.94a11.988 11.988 0 0 1 .957 6.769Zm19.821-3.105-9.164 1.281a11.2 11.2 0 0 1-.863-6.109l9.162-1.28a.303.303 0 1 0-.083-.599l-9.395 1.313a.304.304 0 0 0-.257.26 12.004 12.004 0 0 0 .964 6.821c.381 2.839-1.824 6.596-3.519 7.949a.269.269 0 0 0-.085.086.27.27 0 0 0-.041.114.285.285 0 0 0 .066.227.3.3 0 0 0 .128.093.324.324 0 0 0 .155.019.309.309 0 0 0 .147-.064c1.798-1.416 4.028-5.187 3.773-8.238l9.097-1.271a.298.298 0 0 0 .181-.125.295.295 0 0 0 .05-.214.305.305 0 0 0-.316-.263Zm-16.867-10.529a.545.545 0 0 1 .902.328.539.539 0 0 1-.262.542.539.539 0 0 1-.605-.034.54.54 0 0 1-.2-.568.533.533 0 0 1 .165-.268Z" fill="#666"/></g><mask id="h" style="mask-type:luminance" maskUnits="userSpaceOnUse" x="98" y="133" width="220" height="156"><path d="m286.061 133.499-175.186 24.48c-7.93 1.108-13.456 8.399-12.341 16.284l14.429 102.082c1.115 7.885 8.447 13.379 16.378 12.27l175.186-24.479c7.93-1.108 13.456-8.399 12.341-16.284L302.439 145.77c-1.115-7.885-8.448-13.379-16.378-12.271Z" fill="#fff"/></mask><g mask="url(#h)"><path d="m286.059 133.499-175.186 24.48c-7.93 1.108-13.456 8.399-12.341 16.284l14.429 102.082c1.115 7.885 8.447 13.379 16.378 12.27l175.186-24.479c7.93-1.108 13.456-8.399 12.341-16.284L302.437 145.77c-1.115-7.885-8.448-13.379-16.378-12.271Z" fill="url(#i)"/><path d="m332.011 127.078-237.65 33.208 21.09 149.197L353.1 276.275l-21.089-149.197Z" fill="#42189A"/><path d="M50.443 213.055c-19.241-45.069 12.01-101.376 69.801-125.767 57.791-24.39 128.338-1.29 136.997 31.634 8.661 32.924-13.289 4.736-70.927 89.105-57.637 84.368-116.63 50.096-135.871 5.028Z" fill="#461AA1"/><path d="M53.63 209.698c-19.24-45.067 12.01-101.375 69.802-125.765 57.789-24.39 128.337-1.29 136.997 31.634 8.661 32.924-13.289 4.735-70.928 89.103-57.636 84.37-116.63 50.098-135.87 5.028Z" fill="#622AD9"/><path d="M312.639 259.381c6.853 48.484-37.99 94.831-100.16 103.519-62.171 8.688-124.302-31.78-124.096-65.812.205-34.03 14.069-1.152 91.706-67.814 77.635-66.662 125.696-18.377 132.55 30.107Z" fill="#622AD9"/><path opacity=".1" d="M315.622 254.594c6.854 48.486-37.989 94.832-100.159 103.519-62.172 8.688-124.302-31.78-124.097-65.81.206-34.032 14.07-1.154 91.705-67.816 77.636-66.662 125.698-18.377 132.551 30.107Z" fill="#622AD9"/><path d="M298.266 131.793 94.361 160.286 113.03 292.35l203.905-28.493-18.668-132.064Z" fill="url(#j)" fill-opacity=".02"/><path d="M285.323 179.283a.574.574 0 0 1 .008-.816.584.584 0 0 1 .821.008 3.4 3.4 0 0 1 .926 3.017 3.369 3.369 0 0 1-.359 1.001.586.586 0 0 1-.786.233.577.577 0 0 1-.234-.782 2.24 2.24 0 0 0 .045-2.09 2.171 2.171 0 0 0-.421-.571Zm1.815-1.338a4.56 4.56 0 0 1 1.018 2.3 4.571 4.571 0 0 1-.334 2.487.558.558 0 0 0-.01.441.574.574 0 0 0 .75.328.598.598 0 0 0 .192-.12.584.584 0 0 0 .129-.184 5.69 5.69 0 0 0 .42-3.112 5.694 5.694 0 0 0-1.266-2.878.597.597 0 0 0-.618-.183.571.571 0 0 0-.406.497.569.569 0 0 0 .131.422l-.006.002Zm1.94-1.368a6.938 6.938 0 0 1 .984 6.96.568.568 0 0 0 .128.629.57.57 0 0 0 .632.125.589.589 0 0 0 .314-.313 8.018 8.018 0 0 0 .53-4.209 8.09 8.09 0 0 0-1.676-3.918.587.587 0 0 0-.821-.09.58.58 0 0 0-.091.816Zm1.931-1.381a9.28 9.28 0 0 1 1.859 4.401 9.241 9.241 0 0 1-.568 4.739.58.58 0 0 0 .138.624.574.574 0 0 0 .631.111.534.534 0 0 0 .185-.128.507.507 0 0 0 .121-.188c.677-1.69.897-3.525.64-5.326a10.436 10.436 0 0 0-2.092-4.958.581.581 0 0 0-.81-.108.58.58 0 0 0-.222.382c-.02.15.02.303.113.423M162.987 171.352l-.846-5.979 3.843-.538.149 1.054-2.55.357.193 1.371 2.464-.344.149 1.053-2.464.344.205 1.448 2.55-.356.15 1.053-3.843.537ZM159.753 169.091l-.167-1.681-.077.011-.685 3.232-1.556-2.919-.077.011.305 1.662.376 2.664-1.119.156-.845-5.98 1.524-.213 1.027 1.909.067-.009.458-2.117 1.421-.198.845 5.98-1.12.156-.377-2.664ZM154.281 172.57l-.584-1.385-1.644.229-.167 1.49-1.31.185.783-6.207 1.826-.256 2.473 5.752-1.377.192Zm-1.834-4.575-.069.011-.266 2.342 1.241-.172-.906-2.181ZM145.81 169.701l-.095.012.562 3.975-1.103.154-.844-5.98 1.551-.216 1.931 3.784.095-.014-.563-3.974 1.104-.155.845 5.98-1.551.216-1.932-3.782ZM134.939 172.732l-.43.821.249 1.746-1.293.182-.846-5.98 1.293-.18.353 2.501.07-.009.514-1.087.846-1.655 1.448-.202-1.443 2.778 2.374 3.19-1.456.203-1.679-2.308ZM128.157 172.169l-.096.013.563 3.974-1.104.155-.844-5.979 1.55-.217 1.933 3.784.094-.014-.561-3.975 1.102-.153.844 5.979-1.55.217-1.931-3.784ZM124.857 176.678l-.583-1.385-1.645.23-.167 1.49-1.31.183.783-6.207 1.828-.255 2.473 5.752-1.379.192Zm-1.833-4.574-.068.009-.267 2.344 1.24-.174-.905-2.179ZM115.043 171.954l2.112-.296c.591-.083 1.061-.003 1.412.239.357.241.569.609.638 1.1.049.342.002.628-.141.858-.139.223-.359.402-.662.538l.008.051c.385.039.695.16.929.36.239.198.387.502.443.907.073.503-.033.925-.313 1.266-.273.342-.698.552-1.272.633l-2.308.322-.846-5.978Zm2.631 4.812c.309-.044.53-.127.659-.25.128-.122.174-.321.135-.594l-.035-.249c-.039-.275-.137-.453-.295-.536-.158-.083-.392-.102-.702-.059l-.655.092.239 1.687.654-.091Zm-.524-2.522c.305-.042.519-.122.643-.237.124-.122.167-.315.129-.577l-.036-.258c-.036-.263-.131-.433-.283-.51-.151-.078-.379-.097-.684-.053l-.491.069.231 1.635.491-.069ZM126.716 241.403c-.805.111-1.437-.076-1.899-.566-.456-.489-.752-1.222-.89-2.198-.139-.977-.057-1.763.246-2.357.309-.598.864-.951 1.669-1.064.803-.112 1.434.076 1.89.566.461.488.761 1.221.899 2.197.137.977.052 1.764-.256 2.359-.302.596-.855.951-1.659 1.063Zm-.143-1.011c.385-.053.632-.225.744-.514.118-.291.141-.676.074-1.156l-.158-1.113c-.067-.48-.198-.843-.391-1.09-.187-.247-.473-.344-.857-.291-.385.055-.637.227-.753.516-.112.29-.134.674-.066 1.154l.157 1.113c.067.48.195.845.384 1.092.191.247.481.342.866.289Zm-.223-1.576c-.202.028-.348.008-.439-.061a.416.416 0 0 1-.154-.275l-.025-.189a.403.403 0 0 1 .07-.307c.07-.092.203-.151.405-.18.201-.028.344-.006.43.063a.397.397 0 0 1 .162.275l.027.188a.4.4 0 0 1-.08.308c-.063.09-.195.15-.396.178Zm8.403 1.463c-.804.113-1.436-.075-1.898-.564-.456-.489-.753-1.223-.89-2.2-.138-.975-.057-1.762.245-2.358.308-.595.865-.95 1.669-1.063.805-.112 1.434.077 1.89.566.462.49.761 1.221.899 2.199.139.977.054 1.763-.255 2.359-.302.595-.855.949-1.66 1.061Zm-.142-1.01c.384-.054.633-.225.744-.516.117-.289.142-.673.074-1.153l-.157-1.114c-.068-.48-.198-.844-.392-1.089-.187-.249-.473-.346-.858-.291-.384.053-.636.225-.754.516-.11.289-.132.674-.064 1.152l.157 1.115c.068.48.195.843.382 1.09.194.247.483.344.868.29Zm-.223-1.577c-.201.028-.347.008-.439-.061a.414.414 0 0 1-.154-.275l-.026-.188a.42.42 0 0 1 .07-.308c.069-.091.205-.15.406-.178.201-.028.344-.008.431.062a.41.41 0 0 1 .162.274l.027.189a.402.402 0 0 1-.081.308c-.063.091-.195.149-.396.177Zm8.403 1.465c-.803.112-1.437-.077-1.898-.565-.456-.489-.753-1.222-.891-2.199-.137-.978-.055-1.762.247-2.358.308-.597.864-.951 1.668-1.063.805-.113 1.434.076 1.89.566.462.488.761 1.221.9 2.198.138.976.053 1.762-.255 2.359-.304.596-.856.949-1.661 1.062Zm-.143-1.012c.385-.053.634-.225.746-.514.116-.289.141-.676.073-1.154l-.157-1.115c-.069-.48-.198-.842-.391-1.089-.187-.247-.474-.344-.859-.291-.385.055-.635.226-.753.516-.112.289-.134.674-.065 1.154l.158 1.113c.067.48.195.844.382 1.091.193.247.483.344.866.289Zm-.222-1.576c-.201.028-.347.008-.44-.061a.41.41 0 0 1-.152-.275l-.027-.189a.415.415 0 0 1 .071-.306c.069-.091.204-.152.405-.179.202-.028.345-.008.43.061a.401.401 0 0 1 .162.275l.026.188a.39.39 0 0 1-.078.308c-.065.091-.197.15-.397.178Zm8.404 1.464c-.805.112-1.438-.075-1.898-.565-.456-.489-.753-1.222-.892-2.198-.138-.977-.055-1.763.247-2.359.308-.596.863-.951 1.668-1.063.804-.111 1.434.076 1.891.566.46.489.761 1.222.899 2.198.137.977.052 1.763-.256 2.359-.302.596-.856.949-1.659 1.062Zm-.143-1.01c.385-.055.633-.225.743-.515.118-.29.143-.675.074-1.155l-.157-1.113c-.068-.48-.198-.843-.392-1.09-.187-.247-.473-.344-.856-.291-.386.053-.637.225-.754.516-.111.289-.133.674-.066 1.154l.157 1.113c.07.48.197.843.384 1.091.194.246.481.343.867.29Zm-.224-1.576c-.201.028-.347.008-.438-.061a.418.418 0 0 1-.153-.277l-.027-.188a.405.405 0 0 1 .071-.306c.069-.092.205-.152.404-.18.202-.028.346-.008.431.063a.393.393 0 0 1 .162.273l.027.19a.404.404 0 0 1-.079.307c-.064.091-.196.151-.398.179ZM288.177 219.398c-.804.113-1.438-.075-1.898-.564-.456-.49-.753-1.223-.892-2.2-.138-.976-.055-1.762.247-2.358.308-.596.865-.95 1.668-1.063.804-.113 1.434.077 1.89.566.461.489.762 1.221.9 2.198.138.977.052 1.764-.256 2.359-.302.596-.856.949-1.659 1.062Zm-.143-1.01c.385-.055.633-.225.743-.514.118-.291.143-.676.076-1.156l-.159-1.113c-.068-.48-.198-.843-.39-1.09-.189-.248-.473-.345-.859-.29-.385.053-.636.225-.753.516-.111.289-.133.673-.066 1.152l.159 1.114c.068.48.195.843.382 1.092.194.245.481.342.867.289Zm-.224-1.578c-.199.029-.347.008-.438-.059a.416.416 0 0 1-.153-.277l-.027-.187a.424.424 0 0 1 .071-.308c.069-.091.204-.15.406-.178.199-.029.344-.008.429.062.093.069.146.16.162.274l.027.189a.404.404 0 0 1-.079.308c-.064.091-.196.15-.398.176Zm8.405 1.465c-.805.113-1.437-.076-1.899-.564-.456-.489-.752-1.223-.89-2.2-.139-.977-.057-1.762.246-2.357.309-.598.864-.951 1.669-1.064.803-.112 1.434.077 1.89.566.461.488.761 1.221.898 2.199.138.975.053 1.762-.255 2.359-.302.596-.855.949-1.659 1.061Zm-.143-1.011c.385-.053.632-.225.744-.514.118-.29.141-.676.074-1.154l-.158-1.115c-.067-.48-.198-.843-.391-1.09-.187-.247-.473-.344-.857-.291-.385.055-.637.227-.753.516-.112.29-.134.674-.066 1.154l.157 1.113c.068.48.195.845.384 1.092.191.247.481.344.866.289Zm-.223-1.576c-.202.028-.348.008-.439-.061a.414.414 0 0 1-.154-.275l-.025-.189a.403.403 0 0 1 .07-.307c.07-.09.203-.15.405-.178.201-.028.344-.008.43.061a.397.397 0 0 1 .162.275l.027.188a.4.4 0 0 1-.08.308c-.063.09-.195.15-.396.178ZM171.348 235.165c-.804.113-1.437-.075-1.898-.564-.456-.49-.753-1.223-.892-2.2-.136-.976-.055-1.762.247-2.358.308-.595.865-.95 1.669-1.063.805-.112 1.434.077 1.89.566.462.489.761 1.221.899 2.198.138.977.054 1.764-.255 2.359-.303.596-.855.95-1.66 1.062Zm-.143-1.01c.385-.055.633-.225.745-.514.116-.291.142-.676.074-1.156l-.157-1.113c-.068-.48-.198-.843-.392-1.09-.187-.248-.473-.345-.858-.29-.386.053-.636.225-.754.516-.111.289-.132.673-.064 1.153l.157 1.114c.068.48.195.842.382 1.091.194.245.483.342.867.289Zm-.222-1.576c-.201.028-.347.008-.44-.061a.422.422 0 0 1-.153-.277l-.026-.187a.42.42 0 0 1 .07-.308c.069-.091.205-.15.406-.178.201-.029.344-.008.431.062a.4.4 0 0 1 .16.274l.027.189a.391.391 0 0 1-.079.308c-.063.091-.195.15-.396.178Zm8.403 1.464c-.803.112-1.437-.077-1.898-.565-.456-.489-.753-1.223-.891-2.2-.139-.977-.055-1.762.247-2.357.308-.598.864-.951 1.668-1.063.804-.113 1.434.076 1.89.566.461.487.761 1.221.9 2.198.138.975.051 1.762-.257 2.359-.302.596-.855.949-1.659 1.062Zm-.143-1.012c.385-.053.634-.225.744-.514.118-.29.143-.676.074-1.154l-.157-1.115c-.068-.48-.199-.843-.39-1.09-.189-.247-.474-.344-.859-.29-.385.054-.637.226-.753.515-.112.29-.134.674-.066 1.154l.159 1.113c.067.48.195.845.382 1.092.193.247.481.344.866.289Zm-.223-1.576c-.2.028-.348.008-.439-.061a.408.408 0 0 1-.152-.275l-.027-.189a.418.418 0 0 1 .071-.307c.069-.09.204-.15.405-.178.2-.028.345-.008.43.061a.401.401 0 0 1 .162.275l.026.188a.399.399 0 0 1-.078.308c-.065.09-.197.15-.398.178Z" fill="#fff"/><path d="m143.47 188.662-20.965 2.93c-2.379.332-4.037 2.52-3.702 4.885l1.937 13.706c.334 2.366 2.534 4.014 4.913 3.681l20.965-2.929c2.379-.332 4.037-2.52 3.703-4.885l-1.938-13.706c-.334-2.366-2.534-4.014-4.913-3.682Z" fill="url(#k)" stroke="#666" stroke-width=".527"/><path fill-rule="evenodd" clip-rule="evenodd" d="M129.95 205.358c.422 2.835 3.584 5.841 5.587 6.676a.287.287 0 0 1 .17.163.26.26 0 0 1 .022.117.296.296 0 0 1-.028.117.315.315 0 0 1-.096.124.329.329 0 0 1-.145.061.282.282 0 0 1-.157-.022c-2.135-.88-5.312-3.882-5.912-6.884l-9.088 1.27a.308.308 0 0 1-.317-.263.305.305 0 0 1 .232-.339l9.146-1.278a11.199 11.199 0 0 0-.863-6.108l-9.146 1.279a.313.313 0 0 1-.226-.058.301.301 0 0 1 .141-.543l9.087-1.269c-.256-3.061 1.977-6.807 3.774-8.238a.315.315 0 0 1 .436.053.308.308 0 0 1-.054.433c-1.696 1.337-3.901 5.097-3.52 7.94a11.98 11.98 0 0 1 .957 6.769Zm7.951-11.094c-1.32-1.903-3.166-3.283-4.32-3.763a.307.307 0 0 1-.005-.569.316.316 0 0 1 .238-.002c1.509.619 3.395 2.259 4.587 3.973a.295.295 0 0 1 .064.234.267.267 0 0 1-.049.116.278.278 0 0 1-.092.085.288.288 0 0 1-.129.053.318.318 0 0 1-.165-.022.315.315 0 0 1-.129-.105Zm11.872 7.986-9.163 1.281a11.203 11.203 0 0 1-.865-6.109l9.164-1.28a.303.303 0 1 0-.084-.599l-9.396 1.313a.298.298 0 0 0-.171.088.291.291 0 0 0-.085.172 11.997 11.997 0 0 0 .964 6.821c.38 2.839-1.824 6.596-3.519 7.949a.259.259 0 0 0-.085.086.257.257 0 0 0-.041.114.27.27 0 0 0 .008.12.29.29 0 0 0 .058.106.317.317 0 0 0 .283.113.305.305 0 0 0 .146-.064c1.799-1.417 4.029-5.188 3.774-8.238l9.097-1.271a.3.3 0 0 0 .18-.125.292.292 0 0 0 .051-.214.308.308 0 0 0-.107-.193.311.311 0 0 0-.209-.07Zm-16.868-10.525a.55.55 0 0 1 .692-.03.545.545 0 0 1 .163.669.547.547 0 0 1-1.006-.056.534.534 0 0 1 .151-.583Z" fill="#666"/><path d="M129.91 267.41c-.734.103-1.321-.086-1.758-.566-.431-.482-.717-1.223-.858-2.222-.142-.999-.071-1.79.209-2.37.287-.582.798-.924 1.533-1.027.277-.038.52-.035.731.012.212.046.398.122.56.227.16.106.302.231.421.378.12.141.228.285.326.435l-.581.369a2.412 2.412 0 0 0-.232-.342 1.226 1.226 0 0 0-.294-.274.964.964 0 0 0-.367-.167 1.231 1.231 0 0 0-.475-.013c-.478.067-.808.297-.992.69-.179.392-.226.888-.141 1.486l.138.978c.085.598.267 1.063.547 1.391.286.327.669.457 1.145.389.184-.025.335-.072.454-.142.125-.069.228-.153.307-.252.085-.104.154-.22.206-.344a2.8 2.8 0 0 0 .129-.401l.66.195a3.628 3.628 0 0 1-.191.516 1.924 1.924 0 0 1-.302.471c-.126.145-.285.27-.475.372-.19.103-.423.173-.7.211Zm6.513-1.015-.748-1.634-2.112.296-.267 1.776-.749.105.999-6.239.956-.132 2.689 5.722-.768.106Zm-2.263-5.003-.077.009-.435 3.005 1.766-.245-1.254-2.769Zm4.784 4.651-.723.1-.845-5.978 2.187-.307c.559-.076 1.005.014 1.34.277.337.261.543.663.618 1.205.069.487-.001.893-.214 1.22-.21.325-.555.546-1.031.658l1.899 2.373-.81.113-1.825-2.348-.956.134.36 2.553Zm1.002-3.363c.303-.043.528-.15.674-.322.151-.178.206-.408.167-.688l-.063-.444c-.039-.28-.156-.483-.349-.606-.189-.132-.436-.175-.739-.133l-1.448.202.309 2.193 1.449-.202Zm2.638-3.244 1.681-.234c.734-.102 1.319.072 1.752.523.432.452.718 1.173.858 2.161s.065 1.759-.226 2.311c-.291.553-.804.882-1.54.985l-1.679.234-.846-5.98Zm2.403 5.125c.483-.067.821-.284 1.016-.649.199-.366.258-.852.171-1.457l-.13-.924c-.085-.606-.276-1.057-.57-1.354-.287-.297-.673-.412-1.155-.345l-.922.13.668 4.727.922-.128Zm11.329-3.715-2.343.327.384 2.716-.725.101-.844-5.978.723-.102.373 2.638 2.344-.327-.374-2.639.725-.1.844 5.979-.723.101-.384-2.716Zm4.392 2.261c-.366.05-.692.027-.976-.073a1.824 1.824 0 0 1-.741-.518 2.841 2.841 0 0 1-.516-.914 6.562 6.562 0 0 1-.306-1.295 6.408 6.408 0 0 1-.063-1.318c.025-.4.105-.743.24-1.03a1.76 1.76 0 0 1 .571-.691c.244-.18.551-.296.917-.346.368-.051.693-.025.978.081.285.101.53.269.741.509.209.239.38.545.517.924.134.37.236.799.304 1.285.069.491.091.933.064 1.327a2.807 2.807 0 0 1-.242 1.021 1.814 1.814 0 0 1-.568.699c-.245.175-.552.288-.92.339Zm-.088-.625c.242-.035.439-.108.593-.224.153-.12.272-.273.357-.459.085-.188.132-.404.145-.651.017-.252.004-.53-.038-.832l-.138-.977a4.038 4.038 0 0 0-.194-.803 1.744 1.744 0 0 0-.321-.593 1.153 1.153 0 0 0-1.1-.395 1.19 1.19 0 0 0-.592.229 1.154 1.154 0 0 0-.358.452 1.923 1.923 0 0 0-.153.66c-.011.252.005.527.046.824l.138.976c.043.303.104.573.186.813.085.232.195.426.329.583.132.156.289.27.47.345.179.067.39.085.63.052Zm3.689.017-.844-5.98.723-.1.756 5.353 2.853-.399.088.626-3.576.5Zm4.106-6.671 1.681-.235c.734-.103 1.319.072 1.752.524.432.452.718 1.171.858 2.159.14.988.065 1.759-.226 2.312-.291.554-.804.881-1.54.984l-1.679.234-.846-5.978Zm2.403 5.123c.482-.067.82-.283 1.015-.649.2-.365.257-.85.172-1.455l-.131-.926c-.086-.605-.275-1.057-.569-1.354-.288-.297-.673-.411-1.156-.344l-.921.129.668 4.729.922-.13Zm3.566.139-.846-5.978 3.705-.518.088.626-2.98.415.283 2.014 2.878-.402.089.626-2.877.402.295 2.09 2.98-.418.09.626-3.705.517Zm5.889-.822-.724.102-.846-5.981 2.189-.304c.557-.079 1.004.014 1.34.275.335.261.541.664.618 1.207.069.484-.003.891-.214 1.218-.212.326-.555.545-1.031.659l1.899 2.372-.81.114-1.825-2.348-.956.133.36 2.553Zm1-3.363c.305-.042.53-.15.676-.322.149-.178.206-.407.167-.686l-.063-.446c-.041-.28-.157-.483-.351-.607-.187-.131-.434-.175-.739-.133l-1.447.202.31 2.194 1.447-.202Z" fill="#fff"/></g><path d="M286.882 217.485c1.981-1.98 5.204-2.042 7.262-.186l.195.186 5.578 5.578c.548.548 1.328 1.016 2.127 1.348.799.331 1.676.55 2.438.55h7.889c2.903 0 5.28 2.377 5.281 5.28v7.889c0 .762.217 1.639.548 2.438.29.699.686 1.384 1.147 1.911l.202.216 5.578 5.578c1.98 1.981 2.042 5.204.186 7.262l-.186.195-5.578 5.578c-.548.548-1.017 1.328-1.349 2.127-.331.799-.548 1.676-.548 2.438v7.889c-.001 2.903-2.378 5.28-5.281 5.281h-7.889c-.762 0-1.639.218-2.438.549-.699.29-1.384.686-1.911 1.147l-.216.201-5.578 5.578c-1.98 1.98-5.204 2.042-7.262.186l-.195-.186-5.578-5.578c-.548-.548-1.328-1.016-2.127-1.348-.799-.331-1.676-.549-2.437-.549h-7.89c-2.903 0-5.28-2.378-5.28-5.281v-7.889c0-.778-.218-1.664-.55-2.465-.29-.7-.687-1.382-1.153-1.898l-.204-.211-5.569-5.569c-1.98-1.98-2.042-5.204-.186-7.262l.186-.195 5.578-5.578c.548-.548 1.016-1.328 1.348-2.127.331-.799.55-1.676.55-2.438v-7.889c0-2.903 2.377-5.28 5.28-5.28h7.89c.761 0 1.638-.219 2.437-.55.699-.29 1.384-.685 1.911-1.147l.216-.201 5.578-5.578Z" fill="url(#l)" stroke="#E89B27" stroke-width="1.182"/><path d="M301.662 266.644c-2.055 0-3.706-1.652-3.706-3.67a3.68 3.68 0 0 1 3.669-3.67 3.68 3.68 0 0 1 3.67 3.67c0 2.018-1.615 3.67-3.633 3.67ZM279.678 244.626c-2.055 0-3.706-1.652-3.706-3.67a3.68 3.68 0 0 1 3.67-3.67 3.68 3.68 0 0 1 3.669 3.67c0 2.018-1.614 3.67-3.633 3.67Z" fill="#fff"/><g filter="url(#m)"><path d="M279.643 265.726a2.725 2.725 0 0 1-1.945-.807 2.77 2.77 0 0 1 0-3.89l22.018-22.018a2.77 2.77 0 0 1 3.89 0 2.77 2.77 0 0 1 0 3.89l-22.018 22.018c-.55.55-1.248.807-1.945.807Z" fill="#fff"/></g><path d="M85.672 62.705c13.524 0 24.488 10.964 24.488 24.488 0 13.525-10.963 24.489-24.488 24.489-13.525-.001-24.488-10.964-24.488-24.489 0-13.524 10.963-24.488 24.488-24.488Z" fill="#fff"/><path d="M85.672 62.705c13.524 0 24.488 10.964 24.488 24.488 0 13.525-10.963 24.489-24.488 24.489-13.525-.001-24.488-10.964-24.488-24.489 0-13.524 10.963-24.488 24.488-24.488Z" stroke="#E4E4E3"/><path fill="#B31523" d="m91.281 75.366 3.881 3.881-2.09 2.09-3.881-3.881z"/><rect x="91.583" y="73.873" width="7.178" height="1.689" rx=".844" transform="rotate(45 91.583 73.873)" fill="#F14652"/><path d="M85.241 73.682c.338 0 .661.135.898.375l9.29 9.389c.235.237.367.557.367.89v15.102c0 .699-.568 1.267-1.267 1.267H75.952c-.7 0-1.267-.568-1.267-1.267v-24.49c0-.699.567-1.266 1.267-1.266h9.289Zm-8.654 1.267a.633.633 0 0 0-.633.633v3.378c0 .35.283.633.633.633h11.858a.422.422 0 0 0 .299-.72l-3.738-3.739a.634.634 0 0 0-.449-.185h-7.97Z" fill="url(#n)"/><rect x="80.174" y="85.082" width="8.444" height="10.978" rx=".422" stroke="#B31523" stroke-width=".844"/><path d="m80.17 85.082-1.688-1.69M90.306 97.749l-1.69-1.69M88.615 85.082l1.689-1.69M78.48 97.749l1.689-1.69" stroke="#B31523" stroke-width=".844" stroke-linecap="round"/><rect x="262.195" y="64.703" width="48.977" height="48.977" rx="24.488" fill="#fff"/><rect x="262.195" y="64.703" width="48.977" height="48.977" rx="24.488" stroke="#E4E4E3"/><path d="M271.392 78.185c.895.448 3.296 1.382 3.635 2.907.339 1.525 1.571 8.83 2.371 12.62-1.787 2.334-.912 4.592 1.32 4.592h18.918" stroke="#B2C6D6" stroke-width="1.267" stroke-linecap="round"/><rect x="282.479" y="75.891" width="12.851" height="12.851" rx="1.689" transform="rotate(32.068 282.479 75.89)" fill="url(#o)"/><rect x="287.991" y="75.891" width="12.851" height="12.851" rx="1.689" transform="rotate(32.068 287.991 75.89)" fill="url(#p)"/><path d="m275.232 85.326 24.095 1.205-1.025 6.306a2.534 2.534 0 0 1-2.501 2.127h-16.694a2.533 2.533 0 0 1-2.492-2.077l-1.383-7.56Z" fill="#2E7AD5"/><circle cx="271.794" cy="78.187" r="1.786" fill="url(#q)"/><circle cx="294.072" cy="100.905" r="2.008" fill="#5C5F61"/><circle cx="294.067" cy="100.904" r=".803" fill="#716A53"/><path d="m274.941 85.325 24.385 1.206.299-2.541a.844.844 0 0 0-.773-.94l-23.662-1.855a.845.845 0 0 0-.893 1.012l.644 3.118Z" fill="#42A3F1"/><circle cx="281.041" cy="100.905" r="2.008" fill="#5C5F61"/><circle cx="281.042" cy="100.905" r=".803" fill="#716A53"/><path d="M149.683 26.5c13.525 0 24.489 10.964 24.489 24.488 0 13.525-10.964 24.489-24.489 24.489-13.524 0-24.488-10.964-24.488-24.489 0-13.524 10.964-24.488 24.488-24.488Z" fill="#fff"/><path d="M149.683 26.5c13.525 0 24.489 10.964 24.489 24.488 0 13.525-10.964 24.489-24.489 24.489-13.524 0-24.488-10.964-24.488-24.489 0-13.524 10.964-24.488 24.488-24.488Z" stroke="#E4E4E3"/><rect x="136.589" y="48.877" width="19" height="15.2" rx="2.533" fill="url(#r)"/><circle cx="151.796" cy="52.678" r="1.267" fill="#D9D9D9"/><path fill="#45494D" d="M155.595 53.099h1.267v6.756h-1.267z"/><path fill="#7C8994" d="M161.083 49.722h2.111v13.511h-2.111z"/><path d="m156.864 53.1 4.222-3.378v13.511l-4.222-3.378V53.1Z" fill="#646D76"/><circle cx="150.106" cy="43.388" r="5.489" fill="#0076D7"/><circle cx="150.107" cy="43.389" r="1.689" fill="#32BDEF"/><circle cx="140.395" cy="44.655" r="4.222" fill="#0076D7"/><circle cx="140.395" cy="44.652" r="1.299" fill="#32BDEF"/><defs><linearGradient id="a" x1="183" y1="79.5" x2="190.704" y2="264.387" gradientUnits="userSpaceOnUse"><stop stop-color="#F1F1FF"/><stop offset="1" stop-color="#fff"/></linearGradient><linearGradient id="b" x1="223.246" y1="46.232" x2="234.956" y2="65.529" gradientUnits="userSpaceOnUse"><stop stop-color="#9EDFF8"/><stop offset="1" stop-color="#5EC9FD"/></linearGradient><linearGradient id="c" x1="221.595" y1="47.862" x2="229.617" y2="63.36" gradientUnits="userSpaceOnUse"><stop stop-color="#2EB7ED"/><stop offset="1" stop-color="#25ABE8"/></linearGradient><linearGradient id="e" x1="256.821" y1="108.4" x2="103.464" y2="266.238" gradientUnits="userSpaceOnUse"><stop stop-color="#159292"/><stop offset="1" stop-color="#0F5959"/></linearGradient><linearGradient id="g" x1="81.417" y1="167.902" x2="120.036" y2="185.958" gradientUnits="userSpaceOnUse"><stop stop-color="#DDD9D6"/><stop offset=".213" stop-color="#8A868C"/><stop offset=".548" stop-color="#F2F3F3" stop-opacity=".8"/><stop offset=".914" stop-color="#807C80"/><stop offset="1" stop-color="#A6A8AB"/></linearGradient><linearGradient id="i" x1="303.964" y1="128.086" x2="110.897" y2="379.817" gradientUnits="userSpaceOnUse"><stop stop-color="#FF9787"/><stop offset="1" stop-color="#C56456"/></linearGradient><linearGradient id="k" x1="114.966" y1="192.398" x2="153.583" y2="210.454" gradientUnits="userSpaceOnUse"><stop stop-color="#DDD9D6"/><stop offset=".213" stop-color="#8A868C"/><stop offset=".548" stop-color="#F2F3F3" stop-opacity=".8"/><stop offset=".914" stop-color="#807C80"/><stop offset="1" stop-color="#A6A8AB"/></linearGradient><linearGradient id="l" x1="290.61" y1="215.361" x2="290.61" y2="288.642" gradientUnits="userSpaceOnUse"><stop stop-color="#FFE599"/><stop offset="1" stop-color="#F90"/></linearGradient><linearGradient id="n" x1="85.24" y1="73.682" x2="85.24" y2="100.705" gradientUnits="userSpaceOnUse"><stop stop-color="#EF404D"/><stop offset="1" stop-color="#E82938"/></linearGradient><linearGradient id="o" x1="285.21" y1="75.891" x2="289.461" y2="85.654" gradientUnits="userSpaceOnUse"><stop stop-color="#F9C43F"/><stop offset="1" stop-color="#F4BB2F"/></linearGradient><linearGradient id="p" x1="287.628" y1="76.368" x2="297.575" y2="79.818" gradientUnits="userSpaceOnUse"><stop stop-color="#D89500"/><stop offset="1" stop-color="#CE8C00"/></linearGradient><linearGradient id="q" x1="270.902" y1="76.937" x2="272.33" y2="79.973" gradientUnits="userSpaceOnUse"><stop stop-color="#1695DE"/><stop offset="1" stop-color="#2F7AD5"/></linearGradient><linearGradient id="r" x1="140.987" y1="48.877" x2="148.503" y2="64.187" gradientUnits="userSpaceOnUse"><stop stop-color="#727E89"/><stop offset="1" stop-color="#5D666D"/></linearGradient><pattern id="f" patternContentUnits="objectBoundingBox" width="1" height="1"><use xlink:href="#s" transform="scale(.00093)"/></pattern><pattern id="j" patternContentUnits="objectBoundingBox" width="1" height="1"><use xlink:href="#s" transform="scale(.00093)"/></pattern><filter id="m" x="276.9" y="238.213" width="27.504" height="30.468" filterUnits="userSpaceOnUse" color-interpolation-filters="sRGB"><feFlood flood-opacity="0" result="BackgroundImageFix"/><feColorMatrix in="SourceAlpha" values="0 0 0 0 0 0 0 0 0 0 0 0 0 0 0 0 0 0 127 0" result="hardAlpha"/><feOffset dy="2.955"/><feComposite in2="hardAlpha" operator="out"/><feColorMatrix values="0 0 0 0 0.909804 0 0 0 0 0.607843 0 0 0 0 0.152941 0 0 0 1 0"/><feBlend in2="BackgroundImageFix" result="effect1_dropShadow_40_93412"/><feBlend in="SourceGraphic" in2="effect1_dropShadow_40_93412" result="shape"/></filter></defs></svg>