<svg width="486" height="328" viewBox="0 0 486 328" fill="none" xmlns="http://www.w3.org/2000/svg">
<path fill-rule="evenodd" clip-rule="evenodd" d="M23.4859 266.482C18.1229 260.022 15.4409 253.232 15.4409 246.108C15.4409 240.858 19.0429 236.6 23.4859 236.6C27.9289 236.6 31.5309 240.857 31.5309 246.108C31.5309 253.231 28.8489 260.022 23.4859 266.482ZM23.4859 278.656C31.8459 277.881 38.5459 274.976 43.5819 269.938C47.2949 266.225 47.7579 260.668 44.6159 257.526C41.4739 254.384 35.9159 254.846 32.2039 258.56C27.1669 263.597 24.2609 270.295 23.4859 278.656Z" fill="#E8EEF8"/>
<path fill-rule="evenodd" clip-rule="evenodd" d="M23.5899 278.704C15.2299 277.929 8.52995 275.024 3.49395 269.986C-0.219052 266.273 -0.682052 260.716 2.45995 257.574C5.60195 254.432 11.1599 254.894 14.8719 258.608C19.9089 263.645 22.8149 270.343 23.5899 278.704Z" fill="#D7E1F2"/>
<path d="M12.2129 267.326L23.5909 278.704" stroke="#C2CFE5" stroke-width="3.295" stroke-linecap="round" stroke-linejoin="round"/>
<path d="M34.8632 267.326L23.4788 278.71" stroke="#C2CFE5" stroke-width="3.295" stroke-linecap="round" stroke-linejoin="round"/>
<path d="M23.4861 250.392V296.365" stroke="#C2CFE5" stroke-width="3.295" stroke-linecap="round" stroke-linejoin="round"/>
<path fill-rule="evenodd" clip-rule="evenodd" d="M39.3441 284.87H7.16309L10.0611 309.833C10.2478 311.441 11.0187 312.924 12.2275 314.001C13.4363 315.077 14.9985 315.672 16.6171 315.672H29.8901C31.5088 315.672 33.071 315.077 34.2797 314.001C35.4885 312.924 36.2595 311.441 36.4461 309.833L39.3441 284.87Z" fill="#E8EEF8"/>
<path fill-rule="evenodd" clip-rule="evenodd" d="M7.16309 284.87L7.69709 289.467H38.8101L39.3431 284.87H7.16309Z" fill="#C2CFE5"/>
<path opacity="0.6" fill-rule="evenodd" clip-rule="evenodd" d="M288.487 289.626C436.529 288.826 491.407 200.078 481.855 145.404C472.303 90.73 423.315 66.702 357.631 66.702C291.947 66.702 286.553 4 193.362 4C126.32 4 68.2331 58.692 65.1681 117.476C59.6121 224.011 140.445 290.426 288.488 289.626H288.487Z" fill="#F1F6FF"/>
<path fill-rule="evenodd" clip-rule="evenodd" d="M200.73 0H302.962C313.897 0 322.762 8.865 322.762 19.8V237.6C322.762 248.535 313.897 257.4 302.962 257.4H200.73C189.795 257.4 180.93 248.535 180.93 237.6V19.8C180.93 8.865 189.795 0 200.73 0Z" fill="#C2CFE5"/>
<path fill-rule="evenodd" clip-rule="evenodd" d="M207.528 0H309.76C320.695 0 329.56 8.865 329.56 19.8V237.6C329.56 248.535 320.695 257.4 309.76 257.4H207.528C196.593 257.4 187.728 248.535 187.728 237.6V19.8C187.728 8.865 196.593 0 207.528 0Z" fill="#E8EEF8"/>
<path d="M196.377 25.9131H320.912V231.487H196.377V25.9131Z" fill="white"/>
<g filter="url(#filter0_d_2967_24293)">
<path d="M257.198 137.976C278.289 137.976 295.386 120.879 295.386 99.7881C295.386 78.6974 278.289 61.6001 257.198 61.6001C236.107 61.6001 219.01 78.6974 219.01 99.7881C219.01 120.879 236.107 137.976 257.198 137.976Z" fill="black"/>
</g>
<path d="M257.198 137.976C278.289 137.976 295.386 120.879 295.386 99.7881C295.386 78.6974 278.289 61.6001 257.198 61.6001C236.107 61.6001 219.01 78.6974 219.01 99.7881C219.01 120.879 236.107 137.976 257.198 137.976Z" fill="#F7EDEC"/>
<g filter="url(#filter1_d_2967_24293)">
<path d="M257.51 127.6C272.698 127.6 285.01 115.288 285.01 100.1C285.01 84.9122 272.698 72.6001 257.51 72.6001C242.322 72.6001 230.01 84.9122 230.01 100.1C230.01 115.288 242.322 127.6 257.51 127.6Z" fill="black"/>
</g>
<path d="M257.51 127.6C272.698 127.6 285.01 115.288 285.01 100.1C285.01 84.9122 272.698 72.6001 257.51 72.6001C242.322 72.6001 230.01 84.9122 230.01 100.1C230.01 115.288 242.322 127.6 257.51 127.6Z" fill="white"/>
<path d="M250.26 62.2468C232.84 65.8328 219.74 81.2558 219.74 99.7398C219.74 112.765 226.246 124.27 236.186 131.185" stroke="#E5121B" stroke-width="3.646" stroke-linecap="round"/>
<path d="M275.485 65.668C270.248 62.978 264.31 61.46 258.02 61.46C257.228 61.4598 256.437 61.4838 255.647 61.532" stroke="#FD4501" stroke-width="3.646" stroke-linecap="round"/>
<path d="M292.28 82.6499C289.398 76.8904 285.115 71.9472 279.825 68.2739" stroke="#FFAF00" stroke-width="3.646" stroke-linecap="round"/>
<path d="M295.3 108.452C295.952 105.652 296.296 102.736 296.296 99.739C296.296 95.637 295.651 91.685 294.456 87.981" stroke="#52DA1F" stroke-width="3.646" stroke-linecap="round"/>
<path d="M279.827 131.202C285.927 126.966 290.735 121.002 293.545 114.019" stroke="#08A42A" stroke-width="3.646" stroke-linecap="round"/>
<path d="M246.695 107.883C248.158 107.883 249.318 107.533 250.175 106.829C251.032 106.125 251.461 105.192 251.461 104.025C251.461 103.271 251.227 102.588 250.761 101.975C250.295 101.362 249.506 100.779 248.397 100.225C250.137 99.3678 250.997 98.2148 250.997 96.7648C250.997 95.7348 250.597 94.9098 249.827 94.2948C249.057 93.6798 247.987 93.3718 246.647 93.3718C245.351 93.3718 244.301 93.6768 243.495 94.2858C242.689 94.8948 242.287 95.7118 242.287 96.7358C242.287 97.4508 242.471 98.0958 242.837 98.6698C243.203 99.2438 243.82 99.7878 244.684 100.304C243.679 100.804 242.954 101.354 242.514 101.981C242.074 102.608 241.852 103.317 241.852 104.103C241.852 105.308 242.274 106.24 243.119 106.897C243.964 107.554 245.152 107.883 246.686 107.883H246.695ZM246.695 99.2978C246.05 98.9948 245.593 98.7358 245.322 98.5198C245.051 98.3038 244.845 98.0638 244.702 97.7998C244.557 97.5227 244.484 97.2136 244.489 96.9008C244.489 96.3528 244.686 95.9208 245.089 95.6008C245.492 95.2808 246.001 95.1208 246.646 95.1208C247.303 95.1208 247.83 95.2808 248.226 95.6008C248.622 95.9208 248.821 96.3528 248.821 96.9008C248.828 97.3846 248.657 97.8541 248.342 98.2208C248.022 98.5978 247.477 98.9568 246.702 99.2988L246.695 99.2978ZM246.655 106.143C245.849 106.143 245.211 105.958 244.741 105.587C244.271 105.216 244.035 104.697 244.035 104.027C244.035 103.447 244.222 102.933 244.595 102.485C244.968 102.037 245.581 101.625 246.432 101.252L246.712 101.378C247.576 101.745 248.22 102.145 248.646 102.578C249.072 103.011 249.284 103.488 249.284 104.008C249.284 104.665 249.054 105.186 248.594 105.568C248.134 105.95 247.486 106.143 246.655 106.143ZM257.995 107.883C259.458 107.883 260.618 107.533 261.475 106.829C262.332 106.125 262.761 105.192 262.761 104.025C262.761 103.271 262.527 102.588 262.061 101.975C261.595 101.362 260.806 100.779 259.697 100.225C261.437 99.3678 262.297 98.2148 262.297 96.7648C262.297 95.7348 261.897 94.9098 261.127 94.2948C260.357 93.6798 259.287 93.3718 257.947 93.3718C256.651 93.3718 255.601 93.6768 254.795 94.2858C253.989 94.8948 253.587 95.7118 253.587 96.7358C253.587 97.4508 253.771 98.0958 254.137 98.6698C254.503 99.2438 255.12 99.7878 255.984 100.304C254.979 100.804 254.254 101.354 253.814 101.981C253.374 102.608 253.152 103.317 253.152 104.103C253.152 105.308 253.574 106.24 254.419 106.897C255.264 107.554 256.452 107.883 257.986 107.883H257.995ZM257.995 99.2978C257.35 98.9948 256.893 98.7358 256.622 98.5198C256.351 98.3038 256.145 98.0638 256.002 97.7998C255.857 97.5227 255.784 97.2136 255.789 96.9008C255.789 96.3528 255.986 95.9208 256.389 95.6008C256.792 95.2808 257.301 95.1208 257.946 95.1208C258.603 95.1208 259.13 95.2808 259.526 95.6008C259.922 95.9208 260.121 96.3528 260.121 96.9008C260.128 97.3846 259.957 97.8541 259.642 98.2208C259.322 98.5978 258.777 98.9568 258.002 99.2988L257.995 99.2978ZM257.955 106.143C257.149 106.143 256.511 105.958 256.041 105.587C255.571 105.216 255.335 104.697 255.335 104.027C255.335 103.447 255.522 102.933 255.895 102.485C256.268 102.037 256.881 101.625 257.732 101.252L258.012 101.378C258.876 101.745 259.52 102.145 259.946 102.578C260.372 103.011 260.584 103.488 260.584 104.008C260.584 104.665 260.354 105.186 259.894 105.568C259.434 105.95 258.786 106.143 257.955 106.143ZM269.257 107.883C270.881 107.883 272.087 107.287 272.877 106.093C273.667 104.899 274.061 103.077 274.061 100.621C274.061 98.2358 273.655 96.4248 272.843 95.1878C272.031 93.9508 270.835 93.3318 269.256 93.3318C267.638 93.3318 266.436 93.9218 265.646 95.1058C264.856 96.2898 264.462 98.1258 264.462 100.622C264.462 103 264.868 104.805 265.68 106.036C266.492 107.267 267.684 107.883 269.257 107.883ZM269.257 105.988C268.387 105.988 267.754 105.575 267.357 104.751C266.96 103.927 266.762 102.551 266.762 100.623C266.762 98.6948 266.96 97.3168 267.357 96.4848C267.754 95.6528 268.387 95.2378 269.257 95.2378C270.127 95.2378 270.764 95.6618 271.167 96.5078C271.57 97.3538 271.771 98.7278 271.771 100.622C271.771 102.522 271.571 103.892 271.167 104.732C270.763 105.572 270.127 105.988 269.257 105.988Z" fill="#052F5F"/>
<g filter="url(#filter2_d_2967_24293)">
<path d="M288.97 124.74C290.884 124.74 292.435 123.189 292.435 121.275C292.435 119.361 290.884 117.81 288.97 117.81C287.056 117.81 285.505 119.361 285.505 121.275C285.505 123.189 287.056 124.74 288.97 124.74Z" fill="black"/>
</g>
<path d="M288.97 124.74C290.884 124.74 292.435 123.189 292.435 121.275C292.435 119.361 290.884 117.81 288.97 117.81C287.056 117.81 285.505 119.361 285.505 121.275C285.505 123.189 287.056 124.74 288.97 124.74Z" fill="white" stroke="#08A42A" stroke-width="1.98"/>
<path opacity="0.4" d="M289.673 136.697C290.575 136.697 291.251 136.422 291.699 135.873C292.147 135.324 292.372 134.493 292.372 133.379C292.372 132.859 292.292 132.412 292.128 132.039C291.964 131.666 291.735 131.382 291.436 131.186C291.137 130.99 290.786 130.892 290.384 130.892C289.812 130.892 289.36 131.067 289.029 131.416C288.698 131.765 288.532 132.236 288.532 132.816C288.532 133.36 288.675 133.788 288.962 134.1C289.249 134.412 289.642 134.568 290.142 134.568C290.442 134.568 290.682 134.516 290.898 134.413C291.125 134.299 291.315 134.125 291.449 133.91H291.495C291.467 134.616 291.302 135.135 291 135.465C290.698 135.795 290.24 135.96 289.627 135.96C289.393 135.96 289.16 135.927 288.935 135.863V136.625C289.085 136.665 289.331 136.687 289.675 136.687L289.673 136.697ZM290.369 133.855C290.052 133.855 289.815 133.763 289.669 133.578C289.523 133.393 289.435 133.14 289.435 132.818C289.435 132.448 289.519 132.158 289.685 131.954C289.851 131.75 290.085 131.647 290.408 131.647C290.605 131.644 290.798 131.705 290.957 131.821C291.117 131.937 291.241 132.095 291.33 132.295C291.419 132.495 291.463 132.709 291.463 132.939C291.462 133.063 291.433 133.184 291.379 133.295C291.325 133.406 291.247 133.504 291.15 133.581C290.95 133.764 290.683 133.856 290.377 133.856L290.369 133.855ZM294.969 136.697C295.619 136.697 296.101 136.459 296.417 135.982C296.733 135.505 296.891 134.775 296.891 133.782C296.891 132.828 296.729 132.104 296.404 131.609C296.079 131.114 295.601 130.867 294.969 130.867C294.322 130.867 293.839 131.104 293.525 131.567C293.211 132.03 293.051 132.775 293.051 133.773C293.051 134.723 293.213 135.446 293.538 135.939C293.863 136.432 294.34 136.679 294.968 136.679L294.969 136.697ZM294.969 135.939C294.807 135.944 294.647 135.9 294.511 135.811C294.375 135.723 294.269 135.595 294.209 135.444C294.049 135.114 293.971 134.564 293.971 133.794C293.971 133.024 294.051 132.471 294.209 132.139C294.269 131.988 294.374 131.858 294.51 131.769C294.646 131.68 294.806 131.635 294.969 131.64C295.317 131.64 295.572 131.81 295.733 132.14C295.894 132.47 295.975 133.028 295.975 133.785C295.975 134.542 295.895 135.093 295.733 135.429C295.571 135.765 295.317 135.932 294.969 135.932V135.939ZM299.489 136.697C300.139 136.697 300.621 136.459 300.937 135.982C301.253 135.505 301.411 134.775 301.411 133.782C301.411 132.828 301.249 132.104 300.924 131.609C300.599 131.114 300.121 130.867 299.489 130.867C298.842 130.867 298.359 131.104 298.045 131.567C297.731 132.03 297.571 132.775 297.571 133.773C297.571 134.723 297.733 135.446 298.058 135.939C298.383 136.432 298.86 136.679 299.488 136.679L299.489 136.697ZM299.489 135.939C299.327 135.944 299.167 135.9 299.031 135.811C298.895 135.723 298.789 135.595 298.729 135.444C298.569 135.114 298.491 134.564 298.491 133.794C298.491 133.024 298.571 132.471 298.729 132.139C298.789 131.988 298.894 131.858 299.03 131.769C299.166 131.68 299.326 131.635 299.489 131.64C299.837 131.64 300.092 131.81 300.253 132.14C300.414 132.47 300.495 133.028 300.495 133.785C300.495 134.542 300.415 135.093 300.253 135.429C300.091 135.765 299.837 135.932 299.489 135.932V135.939ZM215.649 136.697C216.349 136.697 216.905 136.549 217.289 136.254C217.673 135.959 217.865 135.539 217.865 134.994C217.865 134.62 217.752 134.32 217.525 134.094C217.298 133.868 216.958 133.727 216.505 133.671V133.641C216.885 133.558 217.178 133.398 217.387 133.161C217.596 132.924 217.7 132.624 217.7 132.266C217.7 131.836 217.54 131.498 217.22 131.253C216.9 131.008 216.456 130.886 215.886 130.886C215.2 130.886 214.598 131.086 214.08 131.458L214.525 132.092C214.795 131.917 215.03 131.799 215.229 131.738C215.43 131.677 215.638 131.646 215.848 131.647C216.155 131.647 216.388 131.713 216.544 131.844C216.7 131.975 216.78 132.162 216.78 132.404C216.78 133.028 216.33 133.34 215.426 133.34H214.926V134.08H215.426C215.939 134.08 216.326 134.15 216.556 134.293C216.786 134.436 216.916 134.657 216.916 134.958C216.916 135.298 216.808 135.55 216.591 135.712C216.374 135.874 216.047 135.956 215.609 135.956C215.348 135.954 215.089 135.922 214.836 135.859C214.572 135.796 214.317 135.704 214.074 135.584V136.392C214.504 136.596 215.034 136.698 215.66 136.698L215.649 136.697ZM220.509 136.697C221.159 136.697 221.641 136.459 221.957 135.982C222.273 135.505 222.431 134.775 222.431 133.782C222.431 132.828 222.269 132.104 221.944 131.609C221.619 131.114 221.141 130.867 220.509 130.867C219.862 130.867 219.379 131.104 219.065 131.567C218.751 132.03 218.591 132.775 218.591 133.773C218.591 134.723 218.753 135.446 219.078 135.939C219.403 136.432 219.88 136.679 220.508 136.679L220.509 136.697ZM220.509 135.939C220.347 135.944 220.187 135.9 220.051 135.811C219.915 135.723 219.809 135.595 219.749 135.444C219.589 135.114 219.511 134.564 219.511 133.794C219.511 133.024 219.591 132.471 219.749 132.139C219.809 131.988 219.914 131.858 220.05 131.769C220.186 131.68 220.346 131.635 220.509 131.64C220.857 131.64 221.112 131.81 221.273 132.14C221.434 132.47 221.515 133.028 221.515 133.785C221.515 134.542 221.435 135.093 221.273 135.429C221.111 135.765 220.857 135.932 220.509 135.932V135.939ZM225.029 136.697C225.679 136.697 226.161 136.459 226.477 135.982C226.793 135.505 226.951 134.775 226.951 133.782C226.951 132.828 226.789 132.104 226.464 131.609C226.139 131.114 225.661 130.867 225.029 130.867C224.382 130.867 223.899 131.104 223.585 131.567C223.271 132.03 223.111 132.775 223.111 133.773C223.111 134.723 223.273 135.446 223.598 135.939C223.923 136.432 224.4 136.679 225.028 136.679L225.029 136.697ZM225.029 135.939C224.867 135.944 224.707 135.9 224.571 135.811C224.435 135.723 224.329 135.595 224.269 135.444C224.109 135.114 224.031 134.564 224.031 133.794C224.031 133.024 224.111 132.471 224.269 132.139C224.329 131.988 224.434 131.858 224.57 131.769C224.706 131.68 224.866 131.635 225.029 131.64C225.377 131.64 225.632 131.81 225.793 132.14C225.954 132.47 226.035 133.028 226.035 133.785C226.035 134.542 225.955 135.093 225.793 135.429C225.631 135.765 225.377 135.932 225.029 135.932V135.939Z" fill="#052F5F"/>
<path opacity="0.6" d="M211.12 187.11V183.436L211.052 181.792L211.028 181.478H211.068L214.544 187.11H215.96V180.043H214.9V183.746L214.93 184.846L214.97 185.646H214.94L211.474 180.043H210.07V187.11H211.12ZM220.04 187.207C220.404 187.207 220.728 187.18 221.012 187.125C221.303 187.068 221.586 186.974 221.853 186.845V185.922C221.54 186.062 221.248 186.16 220.976 186.219C220.704 186.278 220.41 186.309 220.094 186.309C219.614 186.309 219.242 186.169 218.977 185.891C218.712 185.613 218.573 185.213 218.557 184.695H222.12V184.081C222.12 183.331 221.915 182.741 221.506 182.311C221.097 181.881 220.539 181.668 219.833 181.668C219.073 181.668 218.475 181.918 218.04 182.418C217.605 182.918 217.387 183.604 217.387 184.478C217.387 185.328 217.621 185.998 218.09 186.482C218.559 186.966 219.21 187.21 220.04 187.21V187.207ZM221.002 183.872H218.575C218.617 183.434 218.747 183.1 218.965 182.872C219.183 182.644 219.472 182.529 219.833 182.529C220.194 182.529 220.478 182.643 220.683 182.869C220.888 183.095 220.995 183.431 221.002 183.872ZM224.004 187.112L225.319 185.112L226.639 187.112H227.925L226.025 184.382L227.823 181.767H226.537L225.309 183.637L224.091 181.767H222.795L224.588 184.382L222.708 187.112H223.994H224.004ZM230.584 187.209C230.797 187.209 231.002 187.189 231.2 187.153C231.398 187.117 231.56 187.07 231.686 187.015V186.159C231.409 186.246 231.132 186.289 230.856 186.289C230.634 186.289 230.454 186.224 230.316 186.093C230.178 185.962 230.111 185.76 230.111 185.486V182.624H231.634V181.764H230.111V180.574H229.411L229.024 181.704L228.241 182.12V182.623H228.971V185.503C228.971 186.637 229.509 187.205 230.586 187.205L230.584 187.209ZM237.207 187.209C237.581 187.209 237.914 187.139 238.205 186.996C238.496 186.853 238.721 186.659 238.879 186.411H238.937L239.097 187.111H239.991V181.765H238.851V184.429C238.851 185.099 238.739 185.577 238.515 185.862C238.291 186.147 237.941 186.29 237.465 186.29C237.107 186.29 236.845 186.188 236.677 185.983C236.509 185.778 236.427 185.471 236.427 185.063V181.766H235.281V185.261C235.281 185.915 235.441 186.403 235.761 186.726C236.081 187.049 236.563 187.209 237.211 187.209H237.207ZM242.747 189.491V187.291C242.747 187.194 242.724 186.921 242.679 186.469H242.747C243.121 186.956 243.647 187.199 244.323 187.199C244.99 187.199 245.523 186.954 245.893 186.464C246.263 185.974 246.461 185.294 246.461 184.419C246.461 183.544 246.275 182.867 245.903 182.384C245.531 181.901 245.011 181.659 244.343 181.659C243.633 181.659 243.103 181.929 242.748 182.471H242.69L242.53 181.756H241.612V189.481H242.748L242.747 189.491ZM244.067 186.291C243.6 186.291 243.263 186.145 243.067 185.854C242.871 185.563 242.757 185.091 242.757 184.44V184.27C242.757 183.69 242.861 183.268 243.069 183.003C243.277 182.738 243.606 182.607 244.059 182.607C244.469 182.607 244.779 182.761 244.989 183.069C245.199 183.377 245.306 183.829 245.306 184.429C245.306 185.029 245.2 185.484 244.986 185.807C244.772 186.13 244.47 186.29 244.076 186.29L244.067 186.291ZM249.583 187.219C250.286 187.219 250.819 186.953 251.183 186.421H251.236L251.434 187.121H252.324V179.599H251.184V181.547C251.191 181.851 251.218 182.155 251.266 182.456H251.208C250.841 181.936 250.306 181.678 249.603 181.678C248.933 181.678 248.408 181.922 248.03 182.41C247.652 182.898 247.462 183.58 247.462 184.457C247.462 185.334 247.649 186.009 248.022 186.492C248.395 186.975 248.916 187.217 249.582 187.217L249.583 187.219ZM249.888 186.301C249.468 186.301 249.155 186.146 248.945 185.835C248.735 185.524 248.631 185.072 248.631 184.479C248.631 183.879 248.739 183.419 248.955 183.094C249.171 182.769 249.479 182.608 249.878 182.608C250.345 182.608 250.678 182.75 250.908 183.033C251.138 183.316 251.238 183.795 251.238 184.469V184.629C251.232 185.229 251.122 185.645 250.908 185.909C250.694 186.173 250.355 186.303 249.888 186.303V186.301ZM255.244 187.219C255.654 187.219 255.988 187.159 256.249 187.043C256.51 186.927 256.769 186.703 257.027 186.378H257.067L257.294 187.122H258.106V183.522C258.106 182.887 257.933 182.422 257.586 182.125C257.239 181.828 256.726 181.68 256.046 181.68C255.74 181.68 255.414 181.72 255.07 181.798C254.726 181.876 254.408 181.992 254.118 182.144L254.485 182.956C254.717 182.856 254.959 182.751 255.21 182.671C255.461 182.591 255.724 182.551 255.998 182.551C256.333 182.551 256.58 182.636 256.74 182.805C256.9 182.974 256.98 183.23 256.98 183.571V183.856L256.057 183.886C255.219 183.912 254.597 184.066 254.187 184.346C253.777 184.626 253.573 185.042 253.573 185.593C253.573 186.113 253.72 186.513 254.015 186.797C254.31 187.081 254.72 187.222 255.245 187.222L255.244 187.219ZM255.602 186.349C255.318 186.349 255.106 186.284 254.964 186.153C254.822 186.022 254.751 185.838 254.751 185.6C254.751 185.27 254.873 185.027 255.116 184.868C255.359 184.709 255.748 184.618 256.283 184.6L256.969 184.57V185.034C256.969 185.45 256.844 185.774 256.594 186.004C256.344 186.234 256.014 186.35 255.601 186.35L255.602 186.349ZM261.402 187.219C261.615 187.219 261.82 187.199 262.018 187.163C262.216 187.127 262.378 187.08 262.504 187.025V186.169C262.227 186.256 261.95 186.299 261.674 186.299C261.452 186.299 261.272 186.234 261.134 186.103C260.996 185.972 260.929 185.77 260.929 185.496V182.634H262.452V181.774H260.929V180.584H260.229L259.842 181.714L259.059 182.13V182.633H259.789V185.513C259.789 186.647 260.327 187.215 261.404 187.215L261.402 187.219ZM265.907 187.219C266.271 187.219 266.595 187.192 266.879 187.137C267.17 187.08 267.453 186.986 267.72 186.857V185.934C267.407 186.074 267.115 186.172 266.843 186.231C266.571 186.29 266.277 186.321 265.961 186.321C265.481 186.321 265.109 186.181 264.844 185.903C264.579 185.625 264.44 185.225 264.424 184.707H267.987V184.093C267.987 183.343 267.782 182.753 267.373 182.323C266.964 181.893 266.406 181.68 265.7 181.68C264.94 181.68 264.342 181.93 263.907 182.43C263.472 182.93 263.254 183.616 263.254 184.49C263.254 185.34 263.488 186.01 263.957 186.494C264.426 186.978 265.077 187.222 265.907 187.222V187.219ZM266.869 183.884H264.442C264.484 183.446 264.614 183.112 264.832 182.884C265.05 182.656 265.339 182.541 265.7 182.541C266.061 182.541 266.345 182.655 266.55 182.881C266.755 183.107 266.862 183.443 266.869 183.884ZM274.047 187.219C274.847 187.219 275.47 186.974 275.917 186.484C276.364 185.994 276.589 185.314 276.589 184.439C276.589 183.595 276.363 182.924 275.912 182.426C275.461 181.928 274.849 181.679 274.075 181.679C273.265 181.679 272.639 181.922 272.195 182.409C271.751 182.896 271.528 183.572 271.528 184.439C271.528 184.997 271.631 185.486 271.838 185.909C272.045 186.332 272.338 186.655 272.723 186.881C273.108 187.107 273.548 187.219 274.048 187.219H274.047ZM274.067 186.291C273.155 186.291 272.699 185.674 272.699 184.441C272.699 183.841 272.806 183.398 273.019 183.083C273.232 182.768 273.579 182.609 274.056 182.609C274.966 182.609 275.419 183.219 275.419 184.441C275.419 185.675 274.969 186.291 274.065 186.291H274.067ZM279.032 187.121V184.457C279.032 183.79 279.142 183.315 279.366 183.031C279.59 182.747 279.94 182.606 280.42 182.606C280.78 182.606 281.044 182.708 281.22 182.911C281.396 183.114 281.47 183.421 281.47 183.834V187.121H282.61V183.636C282.61 182.331 281.97 181.678 280.686 181.678C280.346 181.673 280.009 181.745 279.7 181.886C279.419 182.011 279.18 182.217 279.014 182.476H278.956L278.796 181.776H277.906V187.122H279.042L279.032 187.121ZM291.165 187.121V186.121H287.81V186.073L289.038 184.883C289.588 184.363 289.983 183.953 290.22 183.648C290.457 183.343 290.632 183.048 290.747 182.761C290.862 182.472 290.92 182.163 290.919 181.852C290.919 181.272 290.721 180.81 290.324 180.467C289.927 180.124 289.401 179.952 288.744 179.952C288.324 179.952 287.93 180.022 287.56 180.16C287.19 180.298 286.808 180.534 286.414 180.866L287.028 181.616C287.36 181.356 287.652 181.174 287.905 181.076C288.155 180.976 288.422 180.926 288.691 180.926C289.029 180.926 289.294 181.018 289.486 181.202C289.678 181.386 289.774 181.637 289.774 181.956C289.774 182.188 289.734 182.406 289.654 182.609C289.574 182.812 289.444 183.029 289.27 183.259C289.096 183.489 288.737 183.879 288.2 184.431L286.378 186.263V187.123H291.178L291.165 187.121ZM296.115 187.121V185.579H297.067V184.636H296.115V180.034H295.008L291.778 184.704V185.579H295.008V187.121H296.115ZM295.008 184.636H292.838L294.593 182.084C294.786 181.781 294.928 181.524 295.018 181.311H295.058L295.01 182.863V184.637L295.008 184.636ZM299.774 187.216C299.987 187.216 300.192 187.196 300.39 187.16C300.588 187.124 300.75 187.077 300.876 187.022V186.166C300.599 186.253 300.322 186.296 300.046 186.296C299.824 186.296 299.644 186.231 299.506 186.1C299.368 185.969 299.301 185.767 299.301 185.493V182.631H300.824V181.771H299.301V180.581H298.601L298.214 181.711L297.431 182.127V182.63H298.161V185.51C298.161 186.644 298.699 187.212 299.776 187.212L299.774 187.216ZM303.08 187.119V184.465C303.08 183.795 303.192 183.317 303.416 183.032C303.64 182.747 303.99 182.604 304.466 182.604C304.826 182.604 305.09 182.706 305.266 182.909C305.442 183.112 305.516 183.419 305.516 183.832V187.119H306.656V183.634C306.656 182.329 306.008 181.676 304.713 181.676C304.379 181.668 304.049 181.742 303.749 181.889C303.473 182.031 303.259 182.231 303.104 182.489H303.031C303.068 182.163 303.088 181.836 303.089 181.508V179.598H301.96V187.12H303.096L303.08 187.119Z" fill="#052F5F"/>
<path opacity="0.1" fill-rule="evenodd" clip-rule="evenodd" d="M200.86 170.29H315.7V171.29H200.86V170.29Z" fill="#052F5F"/>
<path d="M237.29 162.36V160.875H234.204V158.688H237.074V157.215H234.204V155.353H237.29V153.88H232.406V162.36H237.29ZM240.057 162.36L241.427 160.138L242.79 162.36H244.803L242.603 159.048L244.713 155.875H242.706L241.436 157.94L240.176 155.875H238.16L240.248 159.048L238.05 162.36H240.057ZM248.422 162.476C248.867 162.476 249.235 162.441 249.527 162.372C249.835 162.295 250.128 162.168 250.394 161.995V160.481C250.094 160.674 249.814 160.816 249.524 160.907C249.234 160.998 248.919 161.043 248.578 161.043C247.658 161.043 247.198 160.409 247.198 159.14C247.198 157.833 247.658 157.18 248.578 157.18C248.818 157.18 249.058 157.216 249.298 157.287C249.561 157.367 249.82 157.459 250.075 157.563L250.597 156.193C250.001 155.899 249.329 155.753 248.577 155.753C247.552 155.753 246.765 156.043 246.217 156.626C245.669 157.209 245.393 158.05 245.393 159.152C245.393 161.368 246.404 162.476 248.422 162.476ZM254.822 162.476C255.329 162.476 255.758 162.438 256.11 162.363C256.462 162.288 256.793 162.163 257.102 162.018V160.648C256.722 160.826 256.36 160.955 256.012 161.038C255.664 161.121 255.295 161.16 254.904 161.16C254.401 161.16 254.011 161.02 253.732 160.737C253.453 160.454 253.305 160.062 253.285 159.559H257.467V158.69C257.467 157.77 257.212 157.048 256.701 156.526C256.19 156.004 255.477 155.743 254.561 155.743C253.601 155.743 252.861 156.04 252.307 156.643C251.753 157.246 251.492 158.077 251.492 159.163C251.492 160.219 251.786 161.035 252.374 161.611C252.962 162.187 253.778 162.476 254.822 162.476ZM255.808 158.381H253.325C253.355 157.944 253.478 157.607 253.69 157.369C253.902 157.131 254.197 157.012 254.572 157.012C254.947 157.012 255.245 157.132 255.465 157.369C255.685 157.606 255.8 157.944 255.807 158.381H255.808ZM260.675 162.361V153.335H258.905V162.361H260.675ZM264.3 162.361V153.335H262.53V162.361H264.3ZM269.09 162.477C269.597 162.477 270.026 162.439 270.378 162.364C270.73 162.289 271.061 162.164 271.37 162.019V160.649C270.99 160.827 270.627 160.956 270.28 161.039C269.933 161.122 269.563 161.161 269.172 161.161C268.669 161.161 268.279 161.021 268 160.738C267.721 160.455 267.573 160.063 267.553 159.56H271.735V158.69C271.735 157.77 271.48 157.048 270.969 156.526C270.458 156.004 269.745 155.743 268.829 155.743C267.869 155.743 267.129 156.04 266.575 156.643C266.021 157.246 265.76 158.077 265.76 159.163C265.76 160.219 266.054 161.035 266.642 161.611C267.23 162.187 268.046 162.475 269.09 162.475V162.477ZM270.076 158.382H267.593C267.623 157.945 267.746 157.608 267.958 157.37C268.17 157.132 268.465 157.013 268.84 157.013C269.215 157.013 269.513 157.133 269.733 157.37C269.953 157.607 270.069 157.945 270.076 158.382ZM274.943 162.362V159.312C274.943 158.546 275.043 157.998 275.273 157.667C275.503 157.336 275.851 157.171 276.346 157.171C276.71 157.171 276.974 157.288 277.141 157.521C277.308 157.754 277.391 158.106 277.391 158.574V162.362H279.161V158.132C279.161 157.362 278.966 156.774 278.575 156.366C278.184 155.958 277.612 155.754 276.858 155.754C276.418 155.754 276.024 155.834 275.678 155.994C275.342 156.146 275.059 156.393 274.863 156.705H274.763L274.525 155.875H273.173V162.36H274.943V162.362ZM283.203 162.478C283.845 162.478 284.386 162.378 284.827 162.182V160.865C284.394 161 284.023 161.068 283.713 161.068C283.481 161.068 283.293 161.008 283.153 160.888C283.013 160.768 282.941 160.582 282.941 160.331V157.204H284.757V155.876H282.941V154.496H281.811L281.311 155.866L280.336 156.458V157.206H281.183V160.333C281.183 161.048 281.343 161.585 281.667 161.933C281.991 162.281 282.505 162.47 283.213 162.47L283.203 162.478Z" fill="#08A42A"/>
<path d="M299.126 62.7921L296.118 67.1921C295.98 67.3961 295.906 67.6021 295.906 67.7701C295.906 68.0991 296.17 68.2921 296.611 68.2921H303.109C303.549 68.2921 303.813 68.0891 303.813 67.7621C303.813 67.5921 303.739 67.3921 303.6 67.1881L300.593 62.8021C300.399 62.5191 300.139 62.3621 299.859 62.3621C299.579 62.3621 299.319 62.5171 299.125 62.8001L299.126 62.7921Z" fill="#08A42A"/>
<path d="M307.718 68.3869C308.428 68.3869 308.974 68.239 309.358 67.944C309.742 67.649 309.934 67.2289 309.934 66.6839C309.934 66.3099 309.821 66.01 309.594 65.784C309.367 65.558 309.027 65.417 308.574 65.361V65.3309C308.954 65.2479 309.247 65.0879 309.456 64.8509C309.665 64.6139 309.769 64.3139 309.769 63.9559C309.769 63.5259 309.609 63.1879 309.289 62.9429C308.969 62.6979 308.525 62.5759 307.955 62.5759C307.269 62.5759 306.667 62.766 306.149 63.148L306.594 63.7819C306.864 63.6069 307.099 63.4889 307.298 63.4279C307.499 63.367 307.707 63.3364 307.917 63.3369C308.224 63.3369 308.457 63.403 308.613 63.534C308.769 63.665 308.849 63.8519 308.849 64.0939C308.849 64.7179 308.399 65.03 307.495 65.03H306.995V65.77H307.485C307.998 65.77 308.375 65.8399 308.615 65.9829C308.855 66.1259 308.975 66.347 308.975 66.648C308.975 66.988 308.867 67.24 308.65 67.402C308.433 67.564 308.106 67.646 307.668 67.646C307.42 67.646 307.163 67.614 306.895 67.549C306.632 67.4861 306.376 67.3938 306.133 67.2739V68.0819C306.563 68.2859 307.093 68.388 307.719 68.388L307.718 68.3869ZM312.672 68.3869C313.244 68.3869 313.696 68.2149 314.027 67.8709C314.358 67.5269 314.524 67.058 314.524 66.465C314.524 65.925 314.381 65.4989 314.094 65.1849C313.807 64.8709 313.408 64.7129 312.894 64.7129C312.598 64.7129 312.34 64.7699 312.121 64.8849C311.902 64.9999 311.731 65.162 311.621 65.37H311.575C311.601 64.653 311.765 64.133 312.07 63.808C312.375 63.483 312.83 63.321 313.435 63.321C313.693 63.321 313.92 63.3489 314.115 63.4059V62.648C313.919 62.604 313.679 62.582 313.395 62.582C311.593 62.582 310.692 63.6879 310.692 65.8999C310.692 66.4229 310.772 66.87 310.934 67.244C311.096 67.618 311.324 67.8999 311.634 68.0939C311.944 68.2879 312.284 68.3859 312.69 68.3859L312.672 68.3869ZM312.657 67.6369C312.35 67.6369 312.097 67.513 311.901 67.264C311.705 67.015 311.605 66.7089 311.605 66.3459C311.605 66.1939 311.653 66.0459 311.748 65.8989C311.843 65.7519 311.974 65.639 312.138 65.555C312.306 65.4705 312.491 65.4273 312.679 65.4289C312.996 65.4289 313.234 65.5219 313.392 65.7069C313.55 65.8919 313.63 66.147 313.63 66.473C313.63 66.847 313.546 67.133 313.377 67.335C313.208 67.537 312.967 67.6369 312.657 67.6369Z" fill="#08A42A"/>
<path fill-rule="evenodd" clip-rule="evenodd" d="M200.86 199.98H317.68V237.947H200.86V199.98Z" fill="#67B5F7"/>
<path fill-rule="evenodd" clip-rule="evenodd" d="M304.828 209.91H286.138V228.6H304.828V209.91Z" fill="white"/>
<path d="M295.485 218.087C296.453 218.087 297.237 217.303 297.237 216.335C297.237 215.367 296.453 214.583 295.485 214.583C294.517 214.583 293.733 215.367 293.733 216.335C293.733 217.303 294.517 218.087 295.485 218.087Z" stroke="#67B5F7" stroke-width="1.46" stroke-linejoin="round"/>
<path d="M298.99 223.345C298.99 221.409 297.42 219.84 295.485 219.84C293.55 219.84 291.98 221.409 291.98 223.345" stroke="#67B5F7" stroke-width="1.46" stroke-linecap="round" stroke-linejoin="round"/>
<path d="M276.793 214.73H218.393" stroke="white" stroke-width="2.921" stroke-linecap="round" stroke-linejoin="round"/>
<path d="M268.032 223.052H261.14M253.644 223.052H218.384" stroke="#C5E4FF" stroke-width="2.921" stroke-linecap="round" stroke-linejoin="round"/>
<path fill-rule="evenodd" clip-rule="evenodd" d="M240.483 12.093H276.806V15.548H240.483V12.093Z" fill="#C2CFE5"/>
<path fill-rule="evenodd" clip-rule="evenodd" d="M371.3 39.8H406.5V75H371.3V39.8Z" fill="#6792F7"/>
<path d="M375.993 47.427H381.86V67.374H375.993V47.427Z" fill="#4879EB"/>
<path d="M385.967 47.427H391.834V67.374H385.967V47.427Z" fill="#4879EB"/>
<path d="M395.94 47.427H401.807V67.374H395.94V47.427Z" fill="#4879EB"/>
<path fill-rule="evenodd" clip-rule="evenodd" d="M375.993 51.8269H381.86V67.3739H375.993V51.8269ZM385.967 57.6929H391.834V67.3729H385.967V57.6929Z" fill="#D0DEFF"/>
<path fill-rule="evenodd" clip-rule="evenodd" d="M395.94 54.76H401.807V67.373H395.94V54.76Z" fill="white"/>
<path fill-rule="evenodd" clip-rule="evenodd" d="M414.4 84.6001H315.4C313.941 84.6001 312.542 85.1795 311.511 86.211C310.48 87.2424 309.9 88.6414 309.9 90.1001V114.85C309.9 116.309 310.48 117.708 311.511 118.739C312.542 119.771 313.941 120.35 315.4 120.35H414.4C415.859 120.35 417.258 119.771 418.289 118.739C419.321 117.708 419.9 116.309 419.9 114.85V90.1001C419.9 88.6414 419.321 87.2424 418.289 86.211C417.258 85.1795 415.859 84.6001 414.4 84.6001Z" fill="#E8EEF8"/>
<path d="M353.9 98.488H408.9" stroke="white" stroke-width="2.75" stroke-linecap="round" stroke-linejoin="round"/>
<path d="M353.9 106.325H360.4M367.458 106.325H400.658" stroke="#C2CFE5" stroke-width="2.75" stroke-linecap="round" stroke-linejoin="round"/>
<path d="M320.9 108.8C322.43 104.162 324.393 102.115 326.786 102.658C330.386 103.472 330.386 107.206 334.09 106.6C337.794 105.994 338.93 95.6001 342.89 95.6001" stroke="#C2CFE5" stroke-width="2.75" stroke-linecap="round" stroke-linejoin="round"/>
<path d="M320.9 108.8C322.43 104.162 324.393 102.115 326.786 102.658C330.386 103.472 330.386 107.206 334.09 106.6C336.09 106.275 337.33 103.123 338.675 100.276" stroke="#59DC7F" stroke-width="2.75" stroke-linecap="round" stroke-linejoin="round"/>
<path fill-rule="evenodd" clip-rule="evenodd" d="M159.77 159.4C161.067 160.64 162.848 161.484 165.13 161.71C175.93 162.785 189.83 152.32 207.948 122.738C213.39 120.44 216.414 118.53 217.02 117.006C218.022 114.496 209.12 117.506 208.426 116.276C207.732 115.046 210.541 113.176 210.959 111.948C211.377 110.72 205.229 114.783 204.575 115.561C203.937 116.035 179.825 131.554 168.815 138.015C165.515 132.018 160.689 124.332 154.339 114.957L137.459 126.452C148.379 144.658 155.544 155.415 158.952 158.722C159.212 158.972 159.482 159.199 159.765 159.402" fill="#FFBF99"/>
<path fill-rule="evenodd" clip-rule="evenodd" d="M141.734 99.3321L147.978 149.084C158.931 142.746 165.258 138.116 166.955 135.194C169.501 130.812 164.807 130.102 163.355 128.087C161.903 126.072 161.411 116.487 157.459 110.37C154.824 106.292 149.586 102.613 141.744 99.3301" fill="#EA6676"/>
<path opacity="0.08" fill-rule="evenodd" clip-rule="evenodd" d="M158.822 142.376C157.2 143.01 156.138 142.796 155.638 141.736C155.138 140.676 155.045 136.378 155.36 128.846L153.867 145.566L158.822 142.366V142.376Z" fill="#06090E"/>
<path fill-rule="evenodd" clip-rule="evenodd" d="M151.695 297.84L153.639 313.565V316.798H182.105V313.565L167.692 305.502L167.415 298.622L151.695 297.84Z" fill="#0C121B"/>
<path fill-rule="evenodd" clip-rule="evenodd" d="M151.277 154.13L125.077 159.626C123.772 168.839 123.34 176.054 123.781 181.271C124.321 187.655 137.766 201.221 137.766 234.411C137.766 248.853 141.566 270.473 149.194 299.271H167.528C169.282 267.464 169.248 243.439 167.431 227.195C165.614 210.951 160.226 186.594 151.277 154.13ZM97.162 297.841L95.218 313.566V316.799H123.684V313.566L111.864 305.503L113.531 297.977L97.162 297.841Z" fill="#0C121B"/>
<path fill-rule="evenodd" clip-rule="evenodd" d="M130.013 155.93L104.55 156.803C99.885 163.497 97.772 170.527 98.212 177.893C98.872 188.943 108.512 199.963 102.738 232.649C100.225 246.871 98.055 268.822 96.238 298.503H114.293C125.875 269.601 132.193 246.995 133.219 230.683C134.245 214.371 133.189 189.453 130.024 155.93" fill="#0C121B"/>
<path fill-rule="evenodd" clip-rule="evenodd" d="M130.256 158.54L130.046 156.3L128.19 155.995L104.548 156.805C103.148 158.829 101.96 160.885 101.016 162.97C108.909 166.77 116.544 169.032 123.923 169.785C134.423 170.858 144.423 168.851 153.89 163.765L152.892 160.051L136.152 157.303L130.254 158.54H130.256Z" fill="#06090E"/>
<path fill-rule="evenodd" clip-rule="evenodd" d="M153.37 152.9C154.107 155.923 155.164 157.2 155.572 158.928C157.312 166.298 124.328 168.734 103.057 159.462C97.623 144.245 97.227 98.9299 109.697 96.4639C119.741 94.4789 137.947 94.5459 150.451 104.099C159.276 110.839 152.841 150.736 153.371 152.899" fill="#EA6676"/>
<path fill-rule="evenodd" clip-rule="evenodd" d="M106.322 208.015L137.182 225.795L162.774 181.562L131.914 163.782L106.322 208.015Z" fill="#E9EEF7"/>
<path fill-rule="evenodd" clip-rule="evenodd" d="M76.547 153.78C77.37 164.68 82.749 174.965 115.827 187.778C119.375 188.948 122.204 189.548 124.313 189.578C127.476 189.624 121.573 183.498 121.583 182.095C121.587 181.589 123.341 179.733 123.775 179.121C121.795 179.124 119.155 179.356 118.605 179.555C117.649 179.902 97.071 153.499 96.447 151.788C95.823 150.077 107.494 133.728 108.42 123.533C109.346 113.338 110.493 107.613 96.44 109.613C82.387 111.613 75.723 142.87 76.547 153.78Z" fill="#FFBF99"/>
<path fill-rule="evenodd" clip-rule="evenodd" d="M82.6599 122.685C81.1199 126.145 77.4299 126.829 77.4299 131.305C77.4299 135.781 93.8729 144.247 103.38 144.247C114.07 142.327 122.598 115.517 123.713 104.439C124.533 96.2969 119.696 94.4589 106.983 96.7429C93.1749 99.2229 85.4599 116.393 82.6589 122.686" fill="#EA6676"/>
<path opacity="0.08" fill-rule="evenodd" clip-rule="evenodd" d="M99.983 142.84C100.31 146.527 100.779 149.987 101.37 153.01C102.545 146.61 103.764 142.642 105.026 141.107C106.361 139.484 110.186 135.555 116.501 129.319C111.578 133.614 108.306 135.987 106.681 136.441C105.056 136.895 106.097 131.738 109.801 120.974L99.981 142.84H99.983Z" fill="#06090E"/>
<path fill-rule="evenodd" clip-rule="evenodd" d="M138.516 98.015C132.643 102.753 122.596 100.961 119.096 95.459C125.083 95.287 131.969 95.917 138.516 98.015Z" fill="#FFBF99"/>
<path fill-rule="evenodd" clip-rule="evenodd" d="M124.148 83.5969L121.5 96.2739L133.817 100.02L132.905 88.5929L124.148 83.5969Z" fill="#FFBF99"/>
<path fill-rule="evenodd" clip-rule="evenodd" d="M133.217 92.4999L126.439 87.8569L126.259 88.2439L133.494 95.9769L133.217 92.4999Z" fill="#0C121B"/>
<path fill-rule="evenodd" clip-rule="evenodd" d="M120.48 77.2759C120.323 79.0729 120.583 80.8099 121.182 82.3919C124.222 88.3439 133.212 94.5639 137.014 94.5279C140.816 94.4919 143.314 89.6899 143.159 86.2259C143.019 83.0959 142.759 84.0559 143.843 78.4289C144.927 72.8019 139.364 67.2359 133.14 66.6919C126.71 66.1319 121.042 70.8689 120.48 77.2759Z" fill="#FFBF99"/>
<path fill-rule="evenodd" clip-rule="evenodd" d="M137.875 89.0019C139.279 89.1239 140.483 88.4619 140.515 88.1189C140.547 87.7759 139.39 87.8749 137.985 87.7529C136.58 87.6309 135.461 87.3299 135.431 87.6749C135.401 88.0199 136.471 88.8789 137.875 89.0019Z" fill="white"/>
<path fill-rule="evenodd" clip-rule="evenodd" d="M135.292 77.868C136.442 78.132 136.826 78.498 136.887 78.234C136.948 77.97 136.667 77.176 135.514 76.912C134.361 76.648 132.722 77.252 132.66 77.517C132.598 77.782 134.14 77.604 135.292 77.869M141.934 78.449C143.114 78.389 144.601 78.829 144.586 78.549C144.571 78.269 143.061 77.399 141.881 77.449C140.701 77.499 140.285 78.242 140.301 78.513C140.317 78.784 140.755 78.49 141.935 78.429" fill="#0C121B"/>
<path fill-rule="evenodd" clip-rule="evenodd" d="M138.63 86.288C138.662 86.371 138.755 86.413 138.84 86.382C138.774 86.407 139.186 86.252 139.283 86.212L139.675 86.048C140.635 85.608 140.712 85.04 139.793 83.948C139.023 83.036 139.041 81.728 139.867 80.002C139.907 79.922 139.872 79.825 139.791 79.786C139.71 79.747 139.613 79.782 139.575 79.862C138.699 81.692 138.681 83.132 139.545 84.156C140.345 85.093 140.291 85.408 139.539 85.753L139.165 85.909L138.725 86.077C138.643 86.109 138.601 86.202 138.632 86.285" fill="#B07451"/>
<path fill-rule="evenodd" clip-rule="evenodd" d="M143.324 80.633C145.737 79.903 146.699 76.846 146.934 74.143C147.169 71.44 149.354 71.113 148.911 67.789C148.468 64.465 145.173 63.934 143.096 64.289C141.019 64.644 139.986 64.809 135.768 64.106C131.55 63.403 129.348 66.36 128.434 66.28C127.52 66.2 123.054 67.033 120.95 71.874C119.547 75.101 119.623 78.606 121.18 82.39C124.308 81.987 127.003 79.298 129.264 74.325C135.264 74.335 139.171 73.165 140.954 70.817C143.454 73.049 144.234 76.32 143.324 80.631" fill="#0C121B"/>
<path fill-rule="evenodd" clip-rule="evenodd" d="M123.47 83.9729C125.01 84.1069 126.367 82.9789 126.5 81.4529C126.633 79.9269 125.494 78.5809 123.954 78.4469C122.414 78.3129 121.058 79.4409 120.924 80.9669C120.79 82.4929 121.93 83.8389 123.47 83.9729ZM130.07 70.0429C129.857 72.4769 129.366 74.3029 128.603 75.5179C128.556 75.5939 128.578 75.6929 128.653 75.7399C128.728 75.7869 128.829 75.7649 128.877 75.6899C129.671 74.4229 130.174 72.5499 130.392 70.0699C130.4 69.9699 130.334 69.9029 130.245 69.8949C130.156 69.8869 130.077 69.9529 130.069 70.0419M142.412 67.4719C141.819 69.6119 140.985 71.0319 139.912 71.7439C139.837 71.7939 139.818 71.8939 139.868 71.9689C139.918 72.0439 140.018 72.0629 140.093 72.0129C141.231 71.2509 142.093 69.7629 142.713 67.5579C142.719 67.5376 142.72 67.5163 142.718 67.4953C142.715 67.4743 142.709 67.454 142.698 67.4356C142.688 67.4172 142.674 67.401 142.657 67.388C142.641 67.375 142.621 67.3655 142.601 67.3599C142.514 67.3359 142.425 67.3869 142.401 67.4719" fill="#FFBF99"/>
<path fill-rule="evenodd" clip-rule="evenodd" d="M134.57 81.47C134.765 81.4872 134.959 81.4262 135.11 81.3004C135.26 81.1746 135.354 80.9943 135.372 80.799C135.389 80.6034 135.328 80.409 135.202 80.2585C135.076 80.108 134.895 80.0138 134.7 79.9965C134.504 79.9793 134.309 80.0404 134.159 80.1666C134.008 80.2927 133.914 80.4734 133.897 80.669C133.88 80.8643 133.942 81.0582 134.068 81.2082C134.194 81.3582 134.375 81.453 134.57 81.47ZM141.62 82.085C141.766 82.0975 141.912 82.0665 142.04 81.9959C142.169 81.9253 142.273 81.8182 142.34 81.6883C142.408 81.5583 142.435 81.4113 142.419 81.2658C142.403 81.1203 142.344 80.9829 142.249 80.8709C142.155 80.759 142.03 80.6775 141.889 80.6369C141.748 80.5962 141.599 80.5981 141.459 80.6425C141.32 80.6868 141.197 80.7715 141.105 80.8859C141.014 81.0003 140.958 81.1392 140.946 81.285C140.929 81.4805 140.991 81.6745 141.117 81.8245C141.244 81.9745 141.425 82.0682 141.62 82.085Z" fill="#0C121B"/>
<path fill-rule="evenodd" clip-rule="evenodd" d="M47.3151 233.1H101.985C103.899 233.1 105.45 234.65 105.45 236.565C105.45 238.48 103.9 240.03 101.985 240.03H47.3151C45.4011 240.03 43.8501 238.48 43.8501 236.565C43.8501 234.65 45.4001 233.1 47.3151 233.1Z" fill="#E8EEF8"/>
<path fill-rule="evenodd" clip-rule="evenodd" d="M70.8 240.03H78.5L76.96 327.81H72.34L70.8 240.03Z" fill="#C2CFE5"/>
<path fill-rule="evenodd" clip-rule="evenodd" d="M43.8501 312.4H105.45V316.25H43.8501V312.4Z" fill="#E8EEF8"/>
<path fill-rule="evenodd" clip-rule="evenodd" d="M97.75 240.03L109.3 327.81H105.45L90.05 240.03H97.75ZM59.25 240.03L43.85 327.81H40L51.55 240.03H59.25Z" fill="#E8EEF8"/>
<path fill-rule="evenodd" clip-rule="evenodd" d="M59.25 240.03L58.575 243.88H51.043L51.55 240.03H59.25ZM97.75 240.03L98.257 243.88H90.725L90.05 240.03H97.75ZM78.5 240.03L78.42 244.65H70.88L70.8 240.03H78.5ZM64.344 230.265C66.024 229.263 67.39 227.85 68.444 226.025C69.498 224.2 70.038 222.311 70.066 220.355C68.386 221.357 67.02 222.77 65.966 224.595C64.912 226.42 64.372 228.309 64.344 230.265Z" fill="#C2CFE5"/>
<path fill-rule="evenodd" clip-rule="evenodd" d="M64.333 227.652C65.696 226.249 66.65 224.532 67.195 222.496C67.74 220.46 67.773 218.496 67.295 216.6C65.932 218.003 64.978 219.72 64.433 221.756C63.888 223.792 63.855 225.756 64.333 227.652Z" fill="#C2CFE5"/>
<path fill-rule="evenodd" clip-rule="evenodd" d="M65.5199 227.652C64.1569 226.249 63.2029 224.532 62.6579 222.496C62.1129 220.46 62.0799 218.496 62.5579 216.6C63.9209 218.003 64.8749 219.72 65.4199 221.756C65.9649 223.792 65.9979 225.756 65.5199 227.652Z" fill="#C2CFE5"/>
<path fill-rule="evenodd" clip-rule="evenodd" d="M65.5201 230.265C63.8401 229.263 62.4741 227.85 61.4201 226.025C60.3661 224.2 59.8261 222.311 59.7981 220.355C61.4781 221.357 62.8441 222.77 63.8981 224.595C64.9521 226.42 65.4921 228.309 65.5201 230.265Z" fill="#C2CFE5"/>
<path fill-rule="evenodd" clip-rule="evenodd" d="M60.5129 226.58H69.5429L68.3549 233.233H61.6999L60.5129 226.58ZM75.7279 216.424H90.5119L88.3999 233.32H77.8399L75.7279 216.424Z" fill="#E8EEF8"/>
<path fill-rule="evenodd" clip-rule="evenodd" d="M76.256 219.064H89.984L89.456 225.928H76.784L76.256 219.064ZM75.728 214.312H90.512L91.04 216.424H75.2L75.728 214.312Z" fill="#C2CFE5"/>
<path fill-rule="evenodd" clip-rule="evenodd" d="M76.7841 212.2H89.4561L89.9841 214.312H76.2561L76.7841 212.2Z" fill="#E8EEF8"/>
<path fill-rule="evenodd" clip-rule="evenodd" d="M414.03 198.89L433.714 202.57C434.237 223.734 427.777 232.34 414.334 228.384C400.891 224.428 385.139 219.502 367.077 213.604C360.404 216.317 356.161 217.672 354.349 217.672C351.629 217.672 357.316 211.642 365.002 208.022C370.126 205.608 385.346 206.18 410.662 209.74L414.029 198.89H414.03Z" fill="#DD9266"/>
<path fill-rule="evenodd" clip-rule="evenodd" d="M428.684 162.773C425.318 163.725 422.469 165.953 420.139 169.461C416.644 174.721 412.459 194.118 411.726 195.081C410.993 196.044 410.186 197.081 410.186 198.401C410.186 199.281 414.994 201.076 424.611 203.788L428.684 162.776V162.773Z" fill="#4E51F0"/>
<path opacity="0.548" fill-rule="evenodd" clip-rule="evenodd" d="M420.73 202.663L412.363 199.837C416.139 200.197 418.275 200.134 418.77 199.649C419.34 199.091 419.594 193.634 419.53 183.279L420.728 202.663H420.73Z" fill="#06090E"/>
<path fill-rule="evenodd" clip-rule="evenodd" d="M408.25 306.583L393.402 307.323L394.976 313.813L381.363 321.413V324.463H408.251V321.413L408.25 306.583Z" fill="#0C121B"/>
<path fill-rule="evenodd" clip-rule="evenodd" d="M412.357 245.437C411.587 267.601 411.587 274.922 409.073 308.301L393.198 307.996C384.701 271.034 386.152 247.691 397.55 237.97C405.452 232.823 412.363 232.823 412.358 245.437" fill="#0C121B"/>
<path fill-rule="evenodd" clip-rule="evenodd" d="M412.25 248.57L412.167 251.048L404.371 250.72C402.471 250.72 398.011 255.327 390.958 264.54L398.468 242.663L412.248 248.573L412.25 248.57Z" fill="#06090E"/>
<path fill-rule="evenodd" clip-rule="evenodd" d="M365.062 299.494L351.787 294.186L348.887 300.446L334.447 302.148L333.202 304.934L357.765 315.837L359.009 313.051L365.062 299.494Z" fill="#0C121B"/>
<path fill-rule="evenodd" clip-rule="evenodd" d="M334.77 302.117L334.444 302.147L333.2 304.933L357.763 315.836L359.008 313.05L359.066 312.9L334.77 302.117Z" fill="#E9EEF7"/>
<path fill-rule="evenodd" clip-rule="evenodd" d="M467.342 220.785C473.557 237.035 470.71 247.405 458.802 251.893C440.939 258.625 420.362 251.893 401.404 247.043C395.247 249.756 399.46 261.911 365.108 301.259L350.598 295.973C372.221 245.847 385.925 219.751 391.711 217.673C397.497 215.595 422.706 216.639 467.341 220.775" fill="#0C121B"/>
<path fill-rule="evenodd" clip-rule="evenodd" d="M421.243 211.864C421.883 209.862 415.473 170.876 424.243 165.109C436.657 156.939 450.678 159.074 460.011 161.604C471.601 164.744 474.627 210.247 470.549 234.204C453.284 237.164 437.076 218.868 418.779 217.404C419.279 215.804 420.359 214.671 421.252 211.874" fill="#4E51F0"/>
<path opacity="0.548" fill-rule="evenodd" clip-rule="evenodd" d="M472.02 219.995C471.75 225.163 471.254 230.013 470.54 234.205C465.75 235.027 461.04 234.212 456.347 232.575C459.171 231.257 460.39 229.957 460.002 228.675C459.299 226.351 452.547 223.102 439.745 218.927C453.938 218.863 464.695 219.22 472.021 219.997" fill="#06090E"/>
<path fill-rule="evenodd" clip-rule="evenodd" d="M418.99 255.398H459.23C472.014 246.214 477.822 231.165 476.652 210.248H473.6C470.228 223.208 464.04 230.733 455.035 232.823C441.529 235.958 431.683 234.635 425.143 239.088C420.783 242.056 418.733 247.493 418.991 255.388" fill="#C2CFE5"/>
<path fill-rule="evenodd" clip-rule="evenodd" d="M454.022 255.398H458.306L474.829 324.953H472.381L454.022 255.398Z" fill="#E9EEF7"/>
<path fill-rule="evenodd" clip-rule="evenodd" d="M454.022 255.398H458.306L459.321 259.668H455.151L454.022 255.398Z" fill="#C2CFE5"/>
<path fill-rule="evenodd" clip-rule="evenodd" d="M427.095 255.398H422.811L406.288 324.953H408.736L427.095 255.398Z" fill="#E9EEF7"/>
<path fill-rule="evenodd" clip-rule="evenodd" d="M425.968 259.67H421.798L422.812 255.4H427.096L425.968 259.67Z" fill="#C2CFE5"/>
<path fill-rule="evenodd" clip-rule="evenodd" d="M481.278 185.353C482.844 188.83 485.818 190.213 484.816 194.261C483.814 198.309 468.098 202.984 456.301 204.905C446.401 202.223 444.298 177.692 444.163 167.185C444.063 159.463 448.767 158.132 460.541 161.323C473.331 164.788 478.62 179.451 481.278 185.353Z" fill="#4E51F0"/>
<path opacity="0.548" fill-rule="evenodd" clip-rule="evenodd" d="M466.084 209.74L456.671 187.232C460.791 198.898 462.391 205.294 461.476 206.419C460.561 207.544 456.778 208.041 450.129 207.909L466.084 209.739V209.74Z" fill="#06090E"/>
<path fill-rule="evenodd" clip-rule="evenodd" d="M463.33 203.162L483.014 196.47C487.617 221.702 483.196 232.34 469.754 228.385C456.312 224.43 440.559 219.503 422.497 213.605C419.444 215.503 417.337 216.657 416.171 217.069C412.956 218.209 410.943 217.673 409.769 217.673C407.049 217.673 412.736 211.643 420.422 208.023C425.545 205.609 440.766 206.181 466.082 209.741L463.329 203.163L463.33 203.162Z" fill="#DD9266"/>
<path fill-rule="evenodd" clip-rule="evenodd" d="M339.584 224.89H432.604V220H339.584V224.89Z" fill="#E8EEF8"/>
<path fill-rule="evenodd" clip-rule="evenodd" d="M358.555 224.89H354.271L337.748 324.952H340.196L358.555 224.89Z" fill="#E9EEF7"/>
<path fill-rule="evenodd" clip-rule="evenodd" d="M357.77 229.162H353.565L354.27 224.892H358.554L357.77 229.162Z" fill="#C2CFE5"/>
<path fill-rule="evenodd" clip-rule="evenodd" d="M417.304 224.89H421.588L438.111 324.952H435.663L417.304 224.89Z" fill="#E9EEF7"/>
<path fill-rule="evenodd" clip-rule="evenodd" d="M417.304 224.9H421.588L422.293 229.17H418.088L417.304 224.9ZM410.104 217.004L404.867 183.586C404.634 182.1 403.351 181.006 401.844 181.006H349.186C349.059 181.006 348.933 181.016 348.808 181.036C348.491 181.085 348.186 181.196 347.912 181.362C347.638 181.529 347.399 181.748 347.21 182.007C347.02 182.266 346.884 182.56 346.808 182.871C346.732 183.183 346.718 183.507 346.768 183.824L352.446 220.056H420.986C421.387 220.057 421.785 219.979 422.156 219.827C422.527 219.674 422.865 219.45 423.149 219.166C423.433 218.883 423.659 218.546 423.813 218.175C423.967 217.805 424.046 217.407 424.046 217.006H410.106L410.104 217.004Z" fill="#C2CFE5"/>
<path fill-rule="evenodd" clip-rule="evenodd" d="M430.742 161.748C436.129 166.408 445.615 164.614 449.102 159.538C443.707 158.678 437.522 159.281 430.742 161.748Z" fill="#DD9266"/>
<path fill-rule="evenodd" clip-rule="evenodd" d="M444.16 148.21L446.66 160.172L435.017 163.708L435.879 152.924L444.16 148.21Z" fill="#DD9266"/>
<path fill-rule="evenodd" clip-rule="evenodd" d="M435.593 156.622L435.331 159.904L442.164 152.606L441.994 152.24L435.593 156.622Z" fill="#0C121B"/>
<path fill-rule="evenodd" clip-rule="evenodd" d="M447.625 142.245C447.095 136.2 441.741 131.728 435.667 132.258C429.787 132.771 424.533 138.025 425.567 143.334C426.601 148.643 426.345 147.737 426.213 150.692C426.066 153.962 428.426 158.492 432.017 158.526C435.608 158.56 444.1 152.691 446.971 147.074C447.536 145.581 447.783 143.941 447.634 142.244" fill="#DD9266"/>
<path fill-rule="evenodd" clip-rule="evenodd" d="M425.98 145.278C424.545 144.581 423.078 143.878 423.078 142.261C423.078 141.147 423.995 140.213 423.995 139.601C423.995 138.214 422.715 137.284 423.078 136.018C423.495 134.571 424.795 134.578 425.3 133.798C425.887 132.894 425.717 131.821 426.77 130.642C427.823 129.463 429.836 130.072 430.944 129.536C432.831 128.623 433.084 127.506 435.372 127.871C437.526 128.213 437.72 129.217 439 129.715C440.28 130.213 442.557 129.249 443.93 130.385C445.26 131.482 444.556 132.563 445.628 133.627C446.602 134.593 447.734 135.37 448.09 136.189C448.665 137.511 447.734 138.259 447.727 139.911C447.725 140.331 448.857 141.207 448.857 142.554C448.857 143.534 448.203 144.996 446.893 146.939C443.391 147.399 440.759 144.357 438.999 137.814C433.629 137.574 429.349 137.981 426.157 139.037C425.585 140.695 425.525 142.777 425.977 145.279M433.633 142.804C432.546 143.054 432.183 143.399 432.127 143.149C432.071 142.899 432.335 142.151 433.423 141.901C434.511 141.651 436.061 142.223 436.119 142.471C436.177 142.719 434.721 142.554 433.633 142.803" fill="#47220C"/>
<path fill-rule="evenodd" clip-rule="evenodd" d="M427.36 143.35C428.475 143.407 428.89 143.684 428.903 143.43C428.916 143.176 428.523 142.483 427.409 142.426C426.295 142.369 424.867 143.199 424.854 143.456C424.841 143.713 426.244 143.296 427.359 143.353" fill="#47220C"/>
<path fill-rule="evenodd" clip-rule="evenodd" d="M431.193 153.31C429.867 153.425 428.729 152.802 428.7 152.477C428.671 152.152 429.763 152.247 431.09 152.131C432.417 152.015 433.474 151.733 433.502 152.058C433.53 152.383 432.519 153.195 431.192 153.31" fill="white"/>
<path fill-rule="evenodd" clip-rule="evenodd" d="M430.335 150.848C430.317 150.848 430.298 150.844 430.281 150.838L430.135 150.783C429.448 150.523 428.905 150.319 428.792 149.883C428.704 149.546 428.886 149.133 429.382 148.546C430.108 147.686 430.085 146.432 429.312 144.821C429.276 144.745 429.308 144.654 429.384 144.618C429.46 144.582 429.552 144.613 429.588 144.688C430.418 146.418 430.426 147.781 429.616 148.741C429.202 149.241 429.03 149.579 429.089 149.804C429.163 150.089 429.639 150.269 430.244 150.498L430.391 150.554C430.471 150.584 430.511 150.672 430.479 150.75C430.456 150.81 430.399 150.848 430.336 150.848" fill="#9B5D39"/>
<path fill-rule="evenodd" clip-rule="evenodd" d="M444.8 148.565C443.346 148.692 442.064 147.627 441.938 146.188C441.812 144.749 442.888 143.478 444.342 143.35C445.796 143.222 447.078 144.288 447.204 145.728C447.33 147.168 446.254 148.428 444.8 148.565Z" fill="#DD9266"/>
<path d="M434.193 144.815C434.009 144.831 433.838 144.92 433.719 145.061C433.6 145.203 433.542 145.386 433.557 145.57C433.574 145.754 433.663 145.924 433.805 146.043C433.947 146.162 434.131 146.219 434.315 146.203C434.499 146.187 434.669 146.098 434.788 145.957C434.908 145.816 434.966 145.633 434.951 145.449C434.934 145.265 434.845 145.095 434.703 144.976C434.561 144.857 434.377 144.799 434.193 144.815Z" fill="#47220C"/>
<path d="M427.533 145.396C427.349 145.412 427.178 145.501 427.059 145.642C426.94 145.784 426.882 145.967 426.897 146.151C426.914 146.335 427.003 146.505 427.145 146.624C427.287 146.743 427.471 146.8 427.655 146.784C427.839 146.768 428.009 146.679 428.128 146.538C428.248 146.397 428.306 146.214 428.291 146.03C428.274 145.846 428.185 145.676 428.043 145.557C427.901 145.438 427.717 145.381 427.533 145.397" fill="#47220C"/>
<path d="M251.098 47H249.287V43.3027H245.895V47H244.078V38.4336H245.895V41.791H249.287V38.4336H251.098V47Z" fill="#9FB3D4"/>
<path d="M255.838 41.5977C255.459 41.5977 255.162 41.7188 254.947 41.9609C254.732 42.1992 254.609 42.5391 254.578 42.9805H257.086C257.078 42.5391 256.963 42.1992 256.74 41.9609C256.518 41.7188 256.217 41.5977 255.838 41.5977ZM256.09 47.1172C255.035 47.1172 254.211 46.8262 253.617 46.2441C253.023 45.6621 252.727 44.8379 252.727 43.7715C252.727 42.6738 253 41.8262 253.547 41.2285C254.098 40.627 254.857 40.3262 255.826 40.3262C256.752 40.3262 257.473 40.5898 257.988 41.1172C258.504 41.6445 258.762 42.373 258.762 43.3027V44.1699H254.537C254.557 44.6777 254.707 45.0742 254.988 45.3594C255.27 45.6445 255.664 45.7871 256.172 45.7871C256.566 45.7871 256.939 45.7461 257.291 45.6641C257.643 45.582 258.01 45.4512 258.393 45.2715V46.6543C258.08 46.8105 257.746 46.9258 257.391 47C257.035 47.0781 256.602 47.1172 256.09 47.1172Z" fill="#9FB3D4"/>
<path d="M262.002 47H260.215V37.8828H262.002V47Z" fill="#9FB3D4"/>
<path d="M265.67 47H263.883V37.8828H265.67V47Z" fill="#9FB3D4"/>
<path d="M268.975 43.7129C268.975 44.3613 269.08 44.8516 269.291 45.1836C269.506 45.5156 269.854 45.6816 270.334 45.6816C270.811 45.6816 271.152 45.5176 271.359 45.1895C271.57 44.8574 271.676 44.3652 271.676 43.7129C271.676 43.0645 271.57 42.5781 271.359 42.2539C271.148 41.9297 270.803 41.7676 270.322 41.7676C269.846 41.7676 269.502 41.9297 269.291 42.2539C269.08 42.5742 268.975 43.0605 268.975 43.7129ZM273.504 43.7129C273.504 44.7793 273.223 45.6133 272.66 46.2148C272.098 46.8164 271.314 47.1172 270.311 47.1172C269.682 47.1172 269.127 46.9805 268.646 46.707C268.166 46.4297 267.797 46.0332 267.539 45.5176C267.281 45.002 267.152 44.4004 267.152 43.7129C267.152 42.6426 267.432 41.8105 267.99 41.2168C268.549 40.623 269.334 40.3262 270.346 40.3262C270.975 40.3262 271.529 40.4629 272.01 40.7363C272.49 41.0098 272.859 41.4023 273.117 41.9141C273.375 42.4258 273.504 43.0254 273.504 43.7129Z" fill="#9FB3D4"/>
<defs>
<filter id="filter0_d_2967_24293" x="206.01" y="49.6001" width="102.376" height="102.376" filterUnits="userSpaceOnUse" color-interpolation-filters="sRGB">
<feFlood flood-opacity="0" result="BackgroundImageFix"/>
<feColorMatrix in="SourceAlpha" type="matrix" values="0 0 0 0 0 0 0 0 0 0 0 0 0 0 0 0 0 0 127 0" result="hardAlpha"/>
<feOffset dy="1"/>
<feGaussianBlur stdDeviation="6.5"/>
<feColorMatrix type="matrix" values="0 0 0 0 0.895097 0 0 0 0 0.903458 0 0 0 0 0.961985 0 0 0 1 0"/>
<feBlend mode="normal" in2="BackgroundImageFix" result="effect1_dropShadow_2967_24293"/>
<feBlend mode="normal" in="SourceGraphic" in2="effect1_dropShadow_2967_24293" result="shape"/>
</filter>
<filter id="filter1_d_2967_24293" x="217.01" y="60.6001" width="81" height="81" filterUnits="userSpaceOnUse" color-interpolation-filters="sRGB">
<feFlood flood-opacity="0" result="BackgroundImageFix"/>
<feColorMatrix in="SourceAlpha" type="matrix" values="0 0 0 0 0 0 0 0 0 0 0 0 0 0 0 0 0 0 127 0" result="hardAlpha"/>
<feOffset dy="1"/>
<feGaussianBlur stdDeviation="6.5"/>
<feColorMatrix type="matrix" values="0 0 0 0 0.895097 0 0 0 0 0.903458 0 0 0 0 0.961985 0 0 0 1 0"/>
<feBlend mode="normal" in2="BackgroundImageFix" result="effect1_dropShadow_2967_24293"/>
<feBlend mode="normal" in="SourceGraphic" in2="effect1_dropShadow_2967_24293" result="shape"/>
</filter>
<filter id="filter2_d_2967_24293" x="282.505" y="116.81" width="10.9299" height="10.9299" filterUnits="userSpaceOnUse" color-interpolation-filters="sRGB">
<feFlood flood-opacity="0" result="BackgroundImageFix"/>
<feColorMatrix in="SourceAlpha" type="matrix" values="0 0 0 0 0 0 0 0 0 0 0 0 0 0 0 0 0 0 127 0" result="hardAlpha"/>
<feOffset dx="-1" dy="1"/>
<feGaussianBlur stdDeviation="1"/>
<feComposite in2="hardAlpha" operator="out"/>
<feColorMatrix type="matrix" values="0 0 0 0 0.368627 0 0 0 0 0.701961 0 0 0 0 0.345098 0 0 0 0.714379 0"/>
<feBlend mode="normal" in2="BackgroundImageFix" result="effect1_dropShadow_2967_24293"/>
<feBlend mode="normal" in="SourceGraphic" in2="effect1_dropShadow_2967_24293" result="shape"/>
</filter>
</defs>
</svg>
