<svg width="394" height="319" viewBox="0 0 394 319" fill="none" xmlns="http://www.w3.org/2000/svg">
  <circle cx="204.553" cy="159.236" r="159.236" fill="#FFF9E3"/>
  <ellipse cx="197" cy="305.255" rx="197" ry="13.217" fill="#F8EFCC"/>
  <path d="m219.88 130.743-23.105-25.614c-1.792-1.986-.38-5.155 2.296-5.155h20.049l12.166 30.769H219.88Z" fill="#EBA74E"/>
  <path d="m231.285 130.743-12.166-30.769h-10.014c8.325 14.352 12.566 25.431 6.56 26.097l4.213 4.672h11.407Z" fill="#C57D2A"/>
  <path d="m263.682 130.743 23.105-25.614c1.792-1.986.381-5.155-2.295-5.155h-20.049l-12.166 30.769h11.405Z" fill="#EBA74E"/>
  <path d="m252.277 130.743 12.166-30.769h10.013c-8.325 14.352-12.565 25.431-6.56 26.097l-4.213 4.672h-11.406Z" fill="#C57D2A"/>
  <path d="M255.233 130.746h-28.895l-14.139-35.143c-.693-1.724.577-3.603 2.438-3.603h52.298c1.859 0 3.13 1.879 2.437 3.603l-14.139 35.143Z" fill="#EBA74E"/>
  <path d="m223.213 122.934 3.145 7.815h28.894l3.046-7.571c-14.297 4.691-29.208 1.426-35.085-.244Z" fill="#C57D2A"/>
  <path d="M315.734 287.603c4.01-4.095 7.796-8.548 9.682-13.96 1.988-5.702 3.05-12.419 3.05-20.331 0-47.894-38.862-121.396-86.8-121.396-47.938 0-86.799 73.502-86.799 121.396 0 11.445 2.223 20.387 6.255 27.375l11.454 12.407-.173-.215c15.847 11.029 40.972 12.478 69.263 12.478 24.062 0 45.836-1.046 61.557-8.145 4.577-2.066 8.403-5.414 11.916-9.002l.595-.607Z" fill="#EBA74E"/>
  <path d="M310.257 219.882c7.726-5.026 3.562-25.101-9.301-44.839-12.862-19.738-29.553-31.665-37.279-26.64-7.725 5.026-3.561 25.101 9.301 44.839 12.863 19.738 29.553 31.665 37.279 26.64Z" fill="#FCC750"/>
  <path d="M308.619 200.484c-2.7 1.756-11.468-6.916-19.583-19.371-8.115-12.453-12.505-23.974-9.805-25.73 2.701-1.756 11.469 6.916 19.584 19.371 8.114 12.454 12.504 23.974 9.804 25.73Z" fill="#FFE8AA"/>
  <path d="M316.218 287.108c3.688-3.766 7.155-7.863 8.964-12.815 2.049-5.607 3.183-12.215 3.271-20-5.44 8.076-17.587 18.948-44.669 28.454-48.576 17.052-113.56-9.369-102.574-73.347 9.372-54.571 65.817-68.242 93.071-66.086-10.07-7.132-21.078-11.398-32.615-11.398-47.938 0-86.799 73.502-86.799 121.396 0 11.445 2.223 20.387 6.255 27.375l11.454 12.407-.173-.215c15.847 11.029 40.972 12.478 69.263 12.478 24.214 0 46.111-1.06 61.855-8.28 4.366-2.002 8.028-5.2 11.388-8.632l1.309-1.337Z" fill="#C57D2A"/>
  <path d="M230.418 137.652c-6.238 4.026-10.006 18.437-7.797 28.044" stroke="#A2591D" stroke-width="3.888" stroke-miterlimit="10" stroke-linecap="round"/>
  <path d="M228.996 137.653c-5.588 1.687-15.074 10.516-16.244 22.461" stroke="#A2591D" stroke-width="3.888" stroke-miterlimit="10" stroke-linecap="round"/>
  <path d="M264.756 139.228h-47.092a2.47 2.47 0 0 1-2.47-2.468v-.443a2.47 2.47 0 0 1 2.47-2.469h47.092a2.47 2.47 0 0 1 2.471 2.469v.443a2.469 2.469 0 0 1-2.471 2.468Z" fill="#5F2D24"/>
  <path d="M264.756 134.691h-47.092a2.469 2.469 0 0 1-2.47-2.467v-.444a2.47 2.47 0 0 1 2.47-2.468h47.092a2.47 2.47 0 0 1 2.471 2.468v.444a2.47 2.47 0 0 1-2.471 2.467Z" fill="#7E3D33"/>
  <path d="M228.387 93.53h35.86c3.06 0 3.917 1.469 2.448 4.648-1.469 3.179-7.711 17.73-7.711 17.73s3.916-13.328 4.283-15.897c.367-2.567-.786-2.322-3.794-2.934-6.608-1.345-31.086-3.546-31.086-3.546ZM276.47 100.857h7.166c2.352 0 4.252 1.63 1.923 4.249-2.331 2.619-11.71 12.864-11.71 12.864s8.039-10.942 8.971-12.514c.443-.748.878-1.643.167-2.616-.654-.895-4.107-1.631-6.517-1.983ZM207.906 100.858h-7.166c-2.353 0-4.253 1.63-1.922 4.249 2.331 2.619 11.71 12.863 11.71 12.863s-8.04-10.942-8.972-12.514c-.443-.747-.877-1.643-.167-2.616.654-.895 4.108-1.631 6.517-1.982ZM184.563 227c-1.057 12.67 15.509 46.881 49.309 52.841 28.854 5.087 42.152-9.933 26.246-10.728-15.906-.794-35.106.601-53.001-19.662-6.757-7.651-10.386-13.442-14.398-23.111-3.019-7.273-7.466-7.609-8.156.66Z" fill="#FCC750"/>
  <path d="M227.17 137.652c-6.238 4.026-10.006 18.437-7.797 28.044" stroke="#5F2D24" stroke-width="3.888" stroke-miterlimit="10" stroke-linecap="round"/>
  <path d="M225.748 137.653c-5.588 1.687-15.074 10.516-16.244 22.461" stroke="#5F2D24" stroke-width="3.888" stroke-miterlimit="10" stroke-linecap="round"/>
  <path d="M264.839 193.889H247.65c3.021 2.643 5.209 6.436 5.834 11.723h11.355v5.746h-11.251c-1.041 11.723-9.48 19.194-22.814 19.653 8.125 9.31 16.98 21.033 25.731 32.871h-10.001c-8.125-10.804-15.73-20.803-25.523-32.297v-7.126h5.73c11.251 0 17.293-5.171 18.022-13.101h-23.752v-5.747h23.44c-1.458-6.666-6.98-10-16.043-10h-7.397v-7.47h43.858v5.748Z" fill="#FFFDE8"/>
  <path d="m165.933 276.065.016 8.786c0 .088-.003.179-.005.268-.092 3.002-1.867 5.719-4.613 6.969-3.85 1.753-8.408 3.115-13.382 4.119a93.83 93.83 0 0 1-4.739.839c-3.548.537-7.251.912-11.016 1.134-1.331.078-2.668.137-4.012.178-5.043.151-10.143.042-15.096-.305a140.509 140.509 0 0 1-6.55-.615c-5.495-.645-10.665-1.599-15.189-2.824-2.597-.701-4.982-1.492-7.093-2.368a7.995 7.995 0 0 1-2.57-1.702 7.947 7.947 0 0 1-2.354-5.264 5.242 5.242 0 0 1-.012-.38l-.017-8.674 86.632-.161Z" fill="#FDB748"/>
  <path d="M165.952 285.106c-.091 3.003-1.866 5.72-4.612 6.97-5.045 2.296-11.3 3.924-18.121 4.958-4.8.724-9.884 1.154-15.028 1.311a152.16 152.16 0 0 1-15.096-.304 143.198 143.198 0 0 1-6.551-.615c-5.495-.646-10.665-1.599-15.189-2.824-2.597-.702-4.981-1.492-7.093-2.368a8.014 8.014 0 0 1-2.569-1.703 7.944 7.944 0 0 1-2.355-5.264 67.373 67.373 0 0 0 5.42 2.192c3.354 1.194 6.944 2.206 10.693 3.035 4.999 1.107 10.279 1.889 15.657 2.355a140.604 140.604 0 0 0 22.441.124c5.579-.423 10.983-1.186 15.999-2.285 6.199-1.357 11.801-3.222 16.404-5.582Z" fill="#FF901E"/>
  <path opacity=".2" d="m109.734 276.175-14.297 14.337-4.096 4.108c-2.597-.701-4.982-1.492-7.093-2.368a7.995 7.995 0 0 1-2.57-1.702l3.065-3.073 11.244-11.276 13.747-.026ZM165.922 276.068l.004 2.152-12.274 12.308-5.714 5.682a93.989 93.989 0 0 1-4.738.839c-3.549.537-7.252.912-11.016 1.133l5.47-5.369 16.673-16.723 11.595-.022ZM134.94 276.124l-17.103 17.153-4.763 4.777a141.808 141.808 0 0 1-6.551-.614l4.564-4.577 16.679-16.726 7.174-.013Z" fill="#FFEAA5"/>
  <path d="M165.933 275.932c.012 6.352-19.37 11.538-43.295 11.583-23.922.044-43.325-5.07-43.337-11.422 0-.143.008-.285.032-.428.83-6.156 19.877-11.112 43.262-11.155 23.386-.044 42.451 4.842 43.304 10.994.024.143.033.286.034.428Z" fill="#FFEAA5"/>
  <path d="M157.24 275.951c0 .14-.015.282-.034.421-.826 4.877-16.011 8.802-34.571 8.836-18.558.035-33.758-3.834-34.603-8.707a3.13 3.13 0 0 1-.035-.422c-.01-5.069 15.513-9.222 34.604-9.258 19.091-.035 34.629 4.06 34.639 9.13Z" fill="#FF901E"/>
  <path d="M157.194 276.37c-.826 4.876-16.011 8.801-34.57 8.835a120.735 120.735 0 0 1-12.986-.646c-3.653-.387-6.996-.935-9.906-1.612a56.857 56.857 0 0 1-2.136-.54c-3.103-.858-5.587-1.874-7.247-3.003a8.197 8.197 0 0 1-1.054-.829c-.717-.664-1.148-1.36-1.275-2.077.827-4.876 16.011-8.802 34.571-8.837 2.348-.004 4.642.054 6.865.169 1.13.058 2.246.132 3.338.22 4.459.357 8.538.949 12.032 1.721.753.167 1.483.342 2.184.527 2.721.713 4.998 1.546 6.705 2.468 1.663.899 2.786 1.879 3.261 2.913a2.7 2.7 0 0 1 .218.691Z" fill="#FDB748"/>
  <path opacity=".2" d="m156.987 275.682-35.588 9.521c-4.14-.031-8.097-.255-11.75-.642l44.077-11.793c1.663.899 2.786 1.88 3.261 2.914ZM132.809 268.05l-42.444 11.355a8.288 8.288 0 0 1-1.055-.83l40.161-10.744c1.131.059 2.247.132 3.338.219ZM147.015 270.296l-47.277 12.649a54.984 54.984 0 0 1-2.136-.54l47.229-12.635c.754.166 1.484.342 2.184.526Z" fill="#FFEAA5"/>
  <path d="m140.309 272.154-11.474.021c1.001.407 1.819.896 2.257 1.479l9.22-.017.003 1.753-9.144.017c-1.108 1.699-5.64 2.623-9.092 3a28.48 28.48 0 0 1-3.016.156l-4.656.009 18.414 4.853-8.611.016-18.414-4.853-.003-1.753 10.748-.02c3.483-.007 6.503-.582 7.715-1.396l-17.45.032-.004-1.752 17.441-.033c-1.114-.837-3.552-1.282-4.903-1.474l-12.54.024-.003-1.753 33.509-.063.003 1.754Z" fill="#FF5E00"/>
  <path d="m140.309 271.78-11.474.022c1.001.406 1.819.896 2.257 1.479l9.22-.017.003 1.753-9.143.016c-1.109 1.7-5.641 2.624-9.093 3.001-.955.105-1.985.155-3.016.156l-4.656.009 18.414 4.853-8.611.017-18.414-4.854-.003-1.752 10.748-.02c3.483-.007 6.503-.583 7.715-1.396l-17.45.032-.004-1.753 17.441-.032c-1.114-.837-3.552-1.283-4.903-1.474l-12.54.023-.003-1.753 33.509-.062.003 1.752Z" fill="#FF8400"/>
  <path d="m151.659 262.847.016 8.786c0 .088-.003.179-.005.268-.092 3.003-1.867 5.72-4.613 6.97-3.85 1.752-8.408 3.115-13.382 4.119a95.13 95.13 0 0 1-4.738.839c-3.549.536-7.252.911-11.017 1.133a139.5 139.5 0 0 1-4.012.178c-5.043.151-10.143.043-15.096-.304a143.19 143.19 0 0 1-6.55-.615c-5.495-.646-10.665-1.599-15.189-2.824-2.597-.702-4.982-1.492-7.093-2.368a8.014 8.014 0 0 1-2.569-1.703 7.945 7.945 0 0 1-2.355-5.264 5.177 5.177 0 0 1-.012-.379l-.017-8.674 86.632-.162Z" fill="#FDB748"/>
  <path d="M151.685 271.891c-.092 3.002-1.866 5.719-4.613 6.969-5.045 2.297-11.299 3.924-18.12 4.959-4.801.724-9.885 1.154-15.029 1.311-5.043.151-10.143.043-15.096-.304a143.202 143.202 0 0 1-6.55-.615c-5.496-.646-10.665-1.599-15.19-2.824-2.596-.702-4.981-1.492-7.092-2.368a8.014 8.014 0 0 1-2.57-1.703 7.947 7.947 0 0 1-2.354-5.264 67.388 67.388 0 0 0 5.419 2.192c3.354 1.194 6.944 2.206 10.694 3.035 4.998 1.107 10.279 1.889 15.656 2.355a140.37 140.37 0 0 0 22.44.124c5.58-.423 10.984-1.186 16-2.285 6.198-1.357 11.802-3.222 16.405-5.582Z" fill="#FF901E"/>
  <path opacity=".2" d="m95.46 262.957-14.297 14.337-4.096 4.108c-2.597-.701-4.982-1.492-7.093-2.368a7.996 7.996 0 0 1-2.57-1.702l3.065-3.073 11.244-11.276 13.747-.026ZM151.665 262.847l.003 2.151-12.273 12.309-5.714 5.682a95.17 95.17 0 0 1-4.739.839c-3.549.537-7.251.911-11.016 1.133l5.47-5.37 16.673-16.722 11.596-.022ZM120.682 262.903l-17.102 17.154-4.764 4.777a143.202 143.202 0 0 1-6.55-.615l4.564-4.576 16.679-16.726 7.173-.014Z" fill="#FFEAA5"/>
  <path d="M151.659 262.699c.012 6.352-19.37 11.538-43.294 11.583-23.923.044-43.326-5.07-43.338-11.422 0-.143.008-.285.032-.428.831-6.156 19.877-11.112 43.263-11.155 23.385-.044 42.45 4.842 43.304 10.994.023.143.033.285.033.428Z" fill="#FFEAA5"/>
  <path d="M142.965 262.718c.001.14-.014.282-.033.422-.827 4.876-16.012 8.801-34.571 8.835-18.559.034-33.758-3.834-34.604-8.707a3.05 3.05 0 0 1-.034-.422c-.01-5.069 15.514-9.222 34.604-9.258 19.091-.035 34.629 4.06 34.638 9.13Z" fill="#FF901E"/>
  <path d="M142.939 263.137c-.827 4.876-16.011 8.801-34.571 8.835-.415.001-.826-.001-1.236-.004-4.14-.031-8.097-.255-11.75-.643-3.652-.387-6.996-.935-9.905-1.612-.74-.172-1.45-.351-2.136-.54-3.103-.857-5.588-1.874-7.247-3.002a8.39 8.39 0 0 1-1.055-.829c-.716-.665-1.147-1.36-1.274-2.077.826-4.876 16.011-8.803 34.571-8.837 2.347-.005 4.642.054 6.864.169 1.131.058 2.247.131 3.339.219 4.459.358 8.537.949 12.031 1.721.754.167 1.484.342 2.185.527 2.721.713 4.997 1.547 6.704 2.469 1.664.898 2.786 1.879 3.262 2.913a2.7 2.7 0 0 1 .218.691Z" fill="#FDB748"/>
  <path opacity=".2" d="m142.713 262.449-35.588 9.521c-4.14-.031-8.097-.255-11.75-.643l44.077-11.792c1.663.899 2.786 1.879 3.261 2.914ZM118.536 254.817l-42.445 11.354a8.21 8.21 0 0 1-1.055-.829l40.161-10.744c1.131.058 2.247.132 3.339.219ZM132.742 257.063l-47.278 12.649c-.74-.172-1.45-.351-2.136-.54l47.229-12.636c.754.167 1.484.343 2.185.527Z" fill="#FFEAA5"/>
  <path d="m126.058 258.928-11.474.021c1 .406 1.819.896 2.257 1.479l9.22-.017.003 1.752-9.144.017c-1.109 1.7-5.641 2.624-9.093 3-.954.106-1.985.155-3.015.157l-4.656.009 18.413 4.853-8.61.016-18.414-4.854-.003-1.752 10.748-.02c3.483-.007 6.503-.582 7.715-1.396l-17.45.032-.004-1.753 17.441-.032c-1.114-.837-3.552-1.282-4.903-1.474l-12.54.023-.004-1.753 33.51-.063.003 1.755Z" fill="#FF5E00"/>
  <path d="m126.058 258.553-11.474.022c1 .406 1.819.896 2.257 1.479l9.22-.018.003 1.753-9.144.017c-1.109 1.7-5.641 2.623-9.093 3.001-.954.105-1.985.154-3.015.156l-4.656.009 18.413 4.853-8.61.017-18.414-4.854-.003-1.752 10.748-.02c3.483-.007 6.503-.582 7.715-1.396l-17.45.032-.004-1.752 17.441-.033c-1.114-.836-3.552-1.282-4.903-1.474l-12.54.024-.004-1.753 33.51-.063.003 1.752Z" fill="#FF8400"/>
  <path d="m167.735 248.761.017 8.786c0 .088-.003.179-.006.268-.091 3.003-1.866 5.72-4.612 6.97-3.85 1.752-8.408 3.115-13.382 4.119a95.17 95.17 0 0 1-4.739.839c-3.549.536-7.252.911-11.016 1.133-1.332.079-2.669.137-4.012.178-5.043.151-10.143.043-15.096-.304a143.154 143.154 0 0 1-6.55-.615c-5.496-.646-10.665-1.599-15.19-2.824-2.596-.702-4.981-1.492-7.092-2.368a8.014 8.014 0 0 1-2.57-1.703 7.945 7.945 0 0 1-2.354-5.264 5.242 5.242 0 0 1-.013-.38l-.016-8.674 86.631-.161Z" fill="#FDB748"/>
  <path d="M167.78 257.809c-.091 3.002-1.866 5.719-4.612 6.969-5.046 2.297-11.3 3.924-18.121 4.958-4.801.725-9.885 1.155-15.029 1.312a152.47 152.47 0 0 1-15.096-.305 140.38 140.38 0 0 1-6.55-.615c-5.495-.646-10.665-1.599-15.19-2.824-2.596-.701-4.98-1.492-7.092-2.368a7.995 7.995 0 0 1-2.57-1.702 7.949 7.949 0 0 1-2.354-5.264 67.386 67.386 0 0 0 5.419 2.191c3.354 1.195 6.945 2.207 10.694 3.035 4.998 1.107 10.279 1.889 15.656 2.355a140.622 140.622 0 0 0 22.441.124c5.578-.423 10.983-1.186 15.999-2.284 6.199-1.357 11.801-3.222 16.405-5.582Z" fill="#FF901E"/>
  <path opacity=".2" d="M111.547 248.865 97.25 263.202l-4.096 4.108c-2.597-.701-4.982-1.492-7.093-2.368a7.995 7.995 0 0 1-2.57-1.702l3.065-3.073L97.8 248.891l13.747-.026ZM167.751 248.761l.004 2.152-12.274 12.308-5.713 5.683a95.17 95.17 0 0 1-4.739.839 122.27 122.27 0 0 1-11.016 1.133l5.47-5.37 16.673-16.723 11.595-.022ZM136.757 248.82l-17.102 17.154-4.764 4.777a143.154 143.154 0 0 1-6.55-.615l4.564-4.576 16.679-16.727 7.173-.013Z" fill="#FFEAA5"/>
  <path d="M167.735 248.606c.012 6.352-19.369 11.538-43.294 11.583-23.922.045-43.326-5.069-43.337-11.422 0-.143.008-.285.032-.427.83-6.156 19.877-11.112 43.262-11.156 23.386-.043 42.45 4.842 43.304 10.995.024.142.033.285.033.427Z" fill="#FFEAA5"/>
  <path d="M159.042 248.625c0 .141-.014.282-.033.422-.827 4.876-16.012 8.801-34.571 8.835-18.559.035-33.759-3.834-34.604-8.707a3.05 3.05 0 0 1-.034-.422c-.01-5.069 15.513-9.222 34.603-9.258 19.092-.035 34.63 4.06 34.639 9.13Z" fill="#FF901E"/>
  <path d="M158.997 249.044c-.826 4.877-16.011 8.802-34.571 8.836-.415 0-.826-.001-1.236-.004-4.14-.031-8.096-.256-11.749-.643-3.653-.387-6.997-.935-9.906-1.612-.74-.172-1.45-.351-2.136-.54-3.103-.858-5.588-1.874-7.247-3.003a8.21 8.21 0 0 1-1.055-.829c-.716-.664-1.147-1.36-1.274-2.077.826-4.876 16.011-8.802 34.571-8.837 2.347-.004 4.642.054 6.864.169 1.131.058 2.247.132 3.339.22 4.459.357 8.537.949 12.031 1.721.754.166 1.484.342 2.185.527 2.721.713 4.997 1.546 6.704 2.468 1.664.899 2.786 1.879 3.262 2.913a2.7 2.7 0 0 1 .218.691Z" fill="#FDB748"/>
  <path opacity=".2" d="m158.79 248.356-35.589 9.522c-4.14-.031-8.096-.256-11.749-.643l44.077-11.792c1.663.899 2.785 1.879 3.261 2.913ZM134.612 240.724l-42.444 11.354a8.21 8.21 0 0 1-1.055-.829l40.161-10.744c1.13.057 2.246.131 3.338.219ZM148.818 242.97l-47.278 12.649a55.197 55.197 0 0 1-2.136-.54l47.23-12.636a55.77 55.77 0 0 1 2.184.527Z" fill="#FFEAA5"/>
  <path d="m142.125 244.834-11.474.021c1 .407 1.819.896 2.256 1.479l9.221-.017.003 1.753-9.144.017c-1.109 1.7-5.641 2.624-9.093 3.001-.954.105-1.985.155-3.015.156l-4.656.009 18.413 4.853-8.61.016-18.414-4.853-.004-1.753 10.749-.02c3.483-.007 6.503-.583 7.715-1.397l-17.451.033-.003-1.753 17.44-.032c-1.114-.837-3.552-1.282-4.902-1.474l-12.541.023-.003-1.753 33.509-.062.004 1.753Z" fill="#FF5E00"/>
  <path d="m142.124 244.463-11.474.021c1.001.406 1.819.896 2.257 1.479l9.22-.017.003 1.752-9.144.017c-1.108 1.7-5.64 2.624-9.092 3-.955.106-1.985.155-3.016.157l-4.656.009 18.414 4.853-8.611.016-18.413-4.854-.004-1.753 10.749-.02c3.483-.006 6.503-.582 7.715-1.396l-17.451.033-.003-1.753 17.44-.032c-1.114-.837-3.552-1.282-4.902-1.474l-12.541.023-.003-1.753 33.509-.063.003 1.755Z" fill="#FF8400"/>
  <path d="m151.631 234.725.017 8.786c0 .088-.003.179-.006.268-.091 3.002-1.866 5.719-4.612 6.969-3.85 1.753-8.408 3.115-13.382 4.119a94.03 94.03 0 0 1-4.739.839c-3.549.536-7.252.912-11.016 1.133-1.332.079-2.669.138-4.012.179-5.043.15-10.143.042-15.096-.305a140.415 140.415 0 0 1-6.55-.615c-5.496-.646-10.665-1.599-15.19-2.824-2.596-.701-4.981-1.492-7.092-2.368a7.995 7.995 0 0 1-2.57-1.702 7.949 7.949 0 0 1-2.354-5.264 5.26 5.26 0 0 1-.013-.38L65 234.886l86.631-.161Z" fill="#FDB748"/>
  <path d="M151.645 243.795c-.091 3.002-1.866 5.719-4.612 6.969-5.046 2.297-11.3 3.924-18.121 4.958-4.8.724-9.885 1.155-15.028 1.312-5.044.15-10.144.042-15.097-.305a140.415 140.415 0 0 1-6.55-.615c-5.495-.646-10.665-1.599-15.189-2.824-2.597-.701-4.982-1.492-7.093-2.368a7.995 7.995 0 0 1-2.569-1.702 7.949 7.949 0 0 1-2.355-5.264 67.4 67.4 0 0 0 5.419 2.191c3.355 1.195 6.945 2.207 10.694 3.035 4.999 1.107 10.28 1.889 15.656 2.355a140.6 140.6 0 0 0 22.44.124c5.58-.423 10.985-1.186 16-2.285 6.199-1.357 11.802-3.221 16.405-5.581Z" fill="#FF901E"/>
  <path opacity=".2" d="m95.42 234.838-14.297 14.337-4.096 4.108c-2.597-.701-4.982-1.492-7.093-2.368a7.996 7.996 0 0 1-2.57-1.702l3.065-3.073 11.244-11.276 13.747-.026ZM151.635 234.728l.004 2.151-12.274 12.309-5.714 5.682a95.13 95.13 0 0 1-4.738.839c-3.549.536-7.252.911-11.017 1.133l5.47-5.37 16.673-16.722 11.596-.022ZM120.655 234.787l-17.102 17.154-4.764 4.777a143.19 143.19 0 0 1-6.55-.615l4.564-4.576 16.679-16.726 7.173-.014Z" fill="#FFEAA5"/>
  <path d="M151.632 234.599c.012 6.352-19.369 11.538-43.294 11.583-23.922.044-43.325-5.07-43.337-11.422-.001-.143.008-.285.031-.428.831-6.156 19.877-11.112 43.263-11.155 23.385-.044 42.45 4.842 43.304 10.994.024.143.033.285.033.428Z" fill="#FFEAA5"/>
  <path d="M142.938 234.617c.001.141-.014.283-.033.422-.827 4.876-16.011 8.801-34.571 8.836-18.559.035-33.758-3.835-34.603-8.707a3.143 3.143 0 0 1-.035-.422c-.01-5.07 15.513-9.222 34.603-9.258 19.092-.035 34.63 4.06 34.639 9.129Z" fill="#FF901E"/>
  <path d="M142.91 235.037c-.826 4.876-16.011 8.801-34.571 8.836-.415 0-.826-.001-1.236-.005-4.14-.031-8.096-.255-11.75-.642-3.652-.388-6.996-.936-9.905-1.613-.74-.171-1.45-.351-2.136-.539-3.103-.858-5.588-1.875-7.247-3.003a8.3 8.3 0 0 1-1.055-.829c-.716-.665-1.147-1.36-1.274-2.077.826-4.876 16.011-8.802 34.571-8.837 2.348-.005 4.642.054 6.865.169 1.13.058 2.246.131 3.338.22 4.459.357 8.537.948 12.031 1.72.754.167 1.484.343 2.185.527 2.721.714 4.997 1.547 6.705 2.469 1.663.899 2.785 1.879 3.261 2.913a2.7 2.7 0 0 1 .218.691Z" fill="#FDB748"/>
  <path opacity=".2" d="m142.687 234.349-35.589 9.521c-4.14-.031-8.097-.255-11.75-.643l44.077-11.792c1.664.899 2.787 1.88 3.262 2.914ZM118.509 226.717l-42.445 11.354a8.197 8.197 0 0 1-1.055-.829l40.161-10.744c1.131.057 2.247.131 3.339.219ZM132.712 228.963l-47.278 12.649c-.74-.172-1.45-.351-2.136-.54l47.23-12.636c.754.167 1.483.342 2.184.527Z" fill="#FFEAA5"/>
  <path d="m126.019 230.814-11.474.022c1 .406 1.819.896 2.256 1.479l9.221-.017.003 1.752-9.144.017c-1.109 1.7-5.641 2.623-9.093 3-.954.106-1.985.155-3.015.157l-4.656.009 18.414 4.853-8.611.016-18.414-4.854-.003-1.753 10.748-.02c3.483-.006 6.503-.582 7.715-1.396l-17.45.033-.004-1.753 17.44-.032c-1.113-.837-3.551-1.283-4.902-1.475l-12.54.024-.004-1.753 33.51-.062.003 1.753Z" fill="#FF5E00"/>
  <path d="m126.019 230.444-11.474.021c1.001.407 1.819.896 2.257 1.479l9.22-.017.003 1.753-9.144.017c-1.108 1.699-5.64 2.623-9.092 3-.955.106-1.985.155-3.016.157l-4.656.009 18.414 4.853-8.611.016-18.414-4.853-.003-1.752 10.748-.02c3.483-.007 6.503-.583 7.715-1.397l-17.45.033-.004-1.753 17.44-.032c-1.113-.836-3.551-1.282-4.902-1.474l-12.54.023-.004-1.753 33.51-.062.003 1.752Z" fill="#FF8400"/>
  <path d="m161.599 221.453.016 8.786c0 .088-.002.179-.005.268-.091 3.002-1.866 5.719-4.612 6.969-3.851 1.752-8.408 3.115-13.383 4.119a93.79 93.79 0 0 1-4.738.839c-3.549.537-7.252.912-11.016 1.133-1.332.079-2.669.138-4.012.179a152.47 152.47 0 0 1-15.096-.305 140.38 140.38 0 0 1-6.55-.615c-5.496-.646-10.665-1.599-15.19-2.824-2.597-.701-4.981-1.492-7.092-2.368a7.995 7.995 0 0 1-2.57-1.702 7.949 7.949 0 0 1-2.354-5.264 5.242 5.242 0 0 1-.013-.38l-.016-8.674 86.631-.161Z" fill="#FDB748"/>
  <path d="M161.611 230.513c-.091 3.002-1.866 5.719-4.612 6.969-5.046 2.297-11.3 3.924-18.121 4.958-4.801.724-9.885 1.154-15.029 1.311-5.043.151-10.143.043-15.096-.304a143.287 143.287 0 0 1-6.55-.615c-5.495-.646-10.665-1.599-15.189-2.824-2.597-.702-4.982-1.492-7.093-2.368a8.014 8.014 0 0 1-2.57-1.703 7.944 7.944 0 0 1-2.354-5.264 67.006 67.006 0 0 0 5.419 2.192c3.354 1.194 6.945 2.206 10.694 3.035 4.998 1.107 10.279 1.889 15.656 2.355a140.6 140.6 0 0 0 22.441.124c5.579-.423 10.984-1.186 15.999-2.284 6.199-1.357 11.801-3.222 16.405-5.582Z" fill="#FF901E"/>
  <path opacity=".2" d="M105.401 221.563 91.104 235.9l-4.097 4.108c-2.597-.701-4.982-1.492-7.093-2.368a8.028 8.028 0 0 1-2.569-1.702l3.064-3.073 11.245-11.276 13.747-.026ZM161.592 221.453l.004 2.151-12.274 12.308-5.713 5.683a95.17 95.17 0 0 1-4.739.839c-3.549.536-7.252.911-11.016 1.133l5.47-5.37 16.673-16.723 11.595-.021ZM130.61 221.512l-17.102 17.153-4.764 4.778a143.154 143.154 0 0 1-6.55-.615l4.564-4.577 16.679-16.726 7.173-.013Z" fill="#FFEAA5"/>
  <path d="M161.599 221.32c.012 6.352-19.369 11.538-43.294 11.583-23.922.045-43.326-5.07-43.337-11.422 0-.142.008-.285.031-.427.831-6.156 19.877-11.112 43.264-11.156 23.385-.043 42.45 4.842 43.304 10.995.023.142.032.285.032.427Z" fill="#FFEAA5"/>
  <path d="M152.906 221.339c0 .14-.015.282-.034.421-.826 4.877-16.011 8.802-34.571 8.836-18.558.034-33.758-3.834-34.603-8.707a3.05 3.05 0 0 1-.034-.422c-.01-5.07 15.513-9.222 34.603-9.258 19.091-.035 34.629 4.06 34.639 9.13Z" fill="#FF901E"/>
  <path d="M152.861 221.758c-.827 4.876-16.011 8.802-34.571 8.836-.415 0-.826-.001-1.236-.005-4.14-.031-8.097-.255-11.75-.642-3.652-.387-6.996-.935-9.905-1.612a56.857 56.857 0 0 1-2.136-.54c-3.103-.858-5.588-1.874-7.247-3.003a8.197 8.197 0 0 1-1.055-.829c-.716-.664-1.147-1.36-1.275-2.077.827-4.876 16.012-8.802 34.571-8.837 2.348-.004 4.643.054 6.865.169 1.131.058 2.247.132 3.338.22 4.46.357 8.538.948 12.032 1.721.754.167 1.484.342 2.184.526 2.722.714 4.998 1.547 6.705 2.469 1.663.899 2.786 1.879 3.262 2.913a2.7 2.7 0 0 1 .218.691Z" fill="#FDB748"/>
  <path opacity=".2" d="m152.654 221.07-35.589 9.521c-4.14-.031-8.097-.255-11.749-.642l44.077-11.793c1.663.9 2.785 1.88 3.261 2.914ZM128.476 213.438l-42.445 11.354a8.197 8.197 0 0 1-1.054-.829l40.161-10.744c1.13.058 2.246.131 3.338.219ZM142.682 215.684l-47.278 12.649a56.857 56.857 0 0 1-2.136-.54l47.229-12.636a53.68 53.68 0 0 1 2.185.527Z" fill="#FFEAA5"/>
  <path d="m135.976 217.542-11.474.021c1 .407 1.819.896 2.257 1.479l9.22-.017.003 1.753-9.144.016c-1.109 1.7-5.641 2.624-9.093 3.001-.954.105-1.985.155-3.015.156l-4.656.009 18.414 4.853-8.611.016-18.414-4.853-.004-1.753 10.749-.02c3.483-.007 6.503-.583 7.715-1.397l-17.451.033-.003-1.752 17.44-.033c-1.113-.837-3.552-1.282-4.902-1.474l-12.541.023-.003-1.752 33.509-.063.004 1.754Z" fill="#FF5E00"/>
  <path d="m135.975 217.169-11.474.021c1.001.407 1.819.896 2.257 1.479l9.22-.017.003 1.752-9.144.017c-1.108 1.7-5.64 2.624-9.092 3.001-.955.106-1.985.155-3.016.157l-4.656.008 18.415 4.854-8.612.015-18.413-4.853-.004-1.752 10.749-.02c3.483-.007 6.503-.583 7.715-1.397l-17.451.033-.003-1.753 17.44-.032c-1.113-.836-3.552-1.282-4.902-1.474l-12.541.023-.003-1.752 33.509-.063.003 1.753Z" fill="#FF8400"/>
  <path d="m173.776 207.402.016 8.786c0 .088-.003.18-.005.268-.092 3.003-1.866 5.72-4.612 6.97-3.851 1.752-8.409 3.115-13.383 4.119a94.925 94.925 0 0 1-4.738.839c-3.549.536-7.252.911-11.016 1.133-1.332.079-2.669.138-4.012.178a152.16 152.16 0 0 1-15.096-.304 143.198 143.198 0 0 1-6.551-.615c-5.495-.647-10.665-1.599-15.189-2.824-2.597-.702-4.981-1.492-7.093-2.368a8.014 8.014 0 0 1-2.569-1.703 7.944 7.944 0 0 1-2.355-5.264 5.177 5.177 0 0 1-.012-.379l-.017-8.674 86.632-.162Z" fill="#FDB748"/>
  <path d="M173.787 216.446c-.091 3.002-1.866 5.719-4.612 6.969-5.045 2.296-11.3 3.924-18.121 4.958-4.8.725-9.884 1.155-15.028 1.312-5.044.151-10.144.042-15.096-.305a140.425 140.425 0 0 1-6.551-.615c-5.495-.646-10.665-1.599-15.189-2.824-2.597-.701-4.982-1.492-7.093-2.368a7.995 7.995 0 0 1-2.569-1.702 7.947 7.947 0 0 1-2.355-5.264 67.019 67.019 0 0 0 5.42 2.191c3.354 1.195 6.944 2.207 10.693 3.036 4.999 1.106 10.279 1.888 15.657 2.354a140.604 140.604 0 0 0 22.441.124c5.579-.423 10.983-1.186 15.999-2.284 6.198-1.357 11.801-3.222 16.404-5.582Z" fill="#FF901E"/>
  <path opacity=".2" d="m117.588 207.502-14.297 14.338-4.097 4.107c-2.597-.701-4.981-1.492-7.093-2.367a8.014 8.014 0 0 1-2.569-1.703l3.064-3.072 11.245-11.277 13.747-.026ZM173.779 207.398l.004 2.152-12.274 12.308-5.713 5.682a94.03 94.03 0 0 1-4.739.839c-3.549.537-7.252.912-11.016 1.134l5.47-5.37 16.673-16.723 11.595-.022ZM142.8 207.457l-17.103 17.153-4.764 4.778a143.287 143.287 0 0 1-6.55-.615l4.564-4.577 16.679-16.726 7.174-.013Z" fill="#FFEAA5"/>
  <path d="M173.776 207.253c.012 6.352-19.369 11.538-43.294 11.583-23.922.045-43.326-5.07-43.337-11.422-.001-.142.008-.285.031-.427.831-6.156 19.877-11.112 43.263-11.156 23.385-.043 42.45 4.842 43.304 10.995.024.142.033.285.033.427Z" fill="#FFEAA5"/>
  <path d="M165.083 207.271c0 .142-.014.283-.033.422-.827 4.877-16.012 8.802-34.571 8.836-18.559.035-33.759-3.834-34.604-8.707a3.146 3.146 0 0 1-.035-.422c-.009-5.07 15.513-9.222 34.604-9.258 19.092-.035 34.63 4.06 34.639 9.129Z" fill="#FF901E"/>
  <path d="M165.056 207.691c-.826 4.876-16.011 8.802-34.571 8.836-.415 0-.826-.001-1.236-.005-4.14-.031-8.097-.255-11.749-.642-3.653-.387-6.997-.935-9.906-1.612a56.76 56.76 0 0 1-2.136-.54c-3.103-.858-5.588-1.875-7.247-3.003a8.203 8.203 0 0 1-1.055-.829c-.716-.664-1.147-1.36-1.274-2.077.826-4.876 16.011-8.802 34.571-8.837 2.347-.004 4.642.054 6.865.17 1.13.058 2.246.131 3.338.219 4.459.357 8.537.949 12.031 1.721.754.166 1.484.343 2.185.527 2.721.713 4.997 1.547 6.705 2.468 1.663.899 2.785 1.88 3.261 2.914.106.227.179.458.218.69Z" fill="#FDB748"/>
  <path opacity=".2" d="m164.83 207-35.588 9.521c-4.14-.031-8.097-.255-11.749-.642l44.076-11.793c1.664.9 2.786 1.88 3.261 2.914ZM140.653 199.372l-42.445 11.354a8.3 8.3 0 0 1-1.055-.829l40.161-10.745c1.131.059 2.247.132 3.339.22ZM154.859 201.615l-47.278 12.648a54.893 54.893 0 0 1-2.136-.54l47.229-12.635c.754.166 1.484.342 2.185.527Z" fill="#FFEAA5"/>
  <path d="m148.153 203.476-11.475.021c1.001.407 1.82.896 2.257 1.479l9.22-.018.004 1.753-9.144.017c-1.109 1.699-5.641 2.623-9.093 3-.955.105-1.985.155-3.016.157l-4.655.008 18.414 4.854-8.611.015-18.414-4.853-.003-1.752 10.748-.02c3.483-.007 6.503-.583 7.715-1.397l-17.45.033-.004-1.753 17.44-.032c-1.113-.836-3.551-1.282-4.902-1.474l-12.54.023-.004-1.753 33.509-.062.004 1.754Z" fill="#D86C0B"/>
  <path d="m148.153 203.104-11.474.021c1.001.407 1.819.896 2.257 1.479l9.22-.017.003 1.752-9.144.017c-1.108 1.7-5.641 2.624-9.093 3a28.18 28.18 0 0 1-3.015.157l-4.656.009 18.414 4.853-8.611.016-18.414-4.853-.003-1.753 10.748-.021c3.483-.006 6.503-.582 7.715-1.396l-17.45.033-.004-1.753 17.44-.033c-1.113-.837-3.551-1.282-4.902-1.474l-12.54.024-.004-1.753 33.509-.062.004 1.754Z" fill="#FFEAA5"/>
  <path d="M218.177 259.462c0 24.162-19.603 43.752-43.791 43.752-24.184 0-43.792-19.591-43.792-43.752 0-.542.01-1.083.035-1.625.849-23.41 20.115-42.127 43.757-42.127s42.908 18.717 43.758 42.127c.024.542.033 1.083.033 1.625Z" fill="#FDB748"/>
  <path d="M218.151 257.837c-.854 23.41-20.115 42.127-43.757 42.127-23.637 0-42.903-18.717-43.758-42.127.849-23.411 20.116-42.127 43.758-42.127 23.642 0 42.908 18.716 43.757 42.127Z" fill="#FFEAA5"/>
  <path d="M209.39 259.462c0 .536-.014 1.073-.034 1.605-.845 18.541-16.204 33.364-34.967 33.364-18.763 0-34.122-14.823-34.967-33.364a42.785 42.785 0 0 1-.034-1.605c0-19.283 15.7-34.97 35.001-34.97 19.301.001 35.001 15.687 35.001 34.97Z" fill="#FF901E"/>
  <path d="M209.35 261.062c-.845 18.541-16.204 33.364-34.967 33.364-.42 0-.835-.009-1.25-.024a34.753 34.753 0 0 1-11.877-2.527 35.008 35.008 0 0 1-10.011-6.202 35.011 35.011 0 0 1-10.544-16.702 34.592 34.592 0 0 1-1.284-7.909c.844-18.541 16.204-33.369 34.967-33.369a35.066 35.066 0 0 1 10.314 1.552 34.955 34.955 0 0 1 14.368 8.65 35.096 35.096 0 0 1 6.773 9.437 34.75 34.75 0 0 1 3.511 13.73Z" fill="#FDB748"/>
  <path opacity=".2" d="m209.13 258.444-35.998 35.965a34.777 34.777 0 0 1-11.877-2.528l44.583-44.542a34.75 34.75 0 0 1 3.292 11.105ZM184.703 229.253l-42.932 42.888a33.155 33.155 0 0 1-1.064-3.162l40.622-40.585a33.94 33.94 0 0 1 3.374.859ZM199.065 237.899l-47.821 47.778a36.296 36.296 0 0 1-2.159-2.069l47.772-47.729c.762.64 1.5 1.313 2.208 2.02Z" fill="#FFEAA5"/>
  <path d="M192.292 244.898h-11.601a15.967 15.967 0 0 1 2.279 5.641h9.322v6.667h-9.245c-1.124 6.457-5.708 9.939-9.198 11.348a8.051 8.051 0 0 1-3.05.575h-4.706l18.606 18.59h-8.705l-18.607-18.59v-6.667h10.867c3.521 0 6.575-2.169 7.802-5.257h-17.642v-6.666h17.631c-1.124-3.19-3.588-4.903-4.953-5.641h-12.679v-6.667h33.878v6.667h.001Z" fill="#D86C0B"/>
  <path d="M192.292 243.489h-11.601a15.964 15.964 0 0 1 2.279 5.642h9.322v6.666h-9.245c-1.124 6.457-5.708 9.939-9.198 11.349a8.051 8.051 0 0 1-3.05.575h-4.706l18.606 18.589h-8.705l-18.607-18.589v-6.667h10.867c3.521 0 6.575-2.17 7.802-5.257h-17.642v-6.666h17.631c-1.124-3.19-3.588-4.903-4.953-5.642h-12.679v-6.666h33.878v6.666h.001Z" fill="#FFEAA5"/>
  <path d="M158.237 289.437c-9.659 1.142-10.585 2.068-11.729 11.718-1.143-9.65-2.069-10.576-11.728-11.718 9.659-1.142 10.585-2.068 11.728-11.718 1.144 9.65 2.07 10.575 11.729 11.718ZM214.025 222.929c-9.658 1.142-10.585 2.068-11.728 11.718-1.143-9.649-2.07-10.575-11.728-11.718 9.658-1.142 10.585-2.068 11.728-11.718 1.143 9.65 2.069 10.576 11.728 11.718Z" fill="#fff"/>
</svg>
