<svg width="100" height="100" fill="none" xmlns="http://www.w3.org/2000/svg">
  <g filter="url(#a)">
    <g clip-path="url(#b)">
      <circle cx="50" cy="48" r="42" fill="#fff"/>
      <g clip-path="url(#c)">
        <rect x="36.099" y="21.419" width="34.479" height="49.255" rx="3.284" fill="url(#d)"/>
        <rect x="39.547" y="24.867" width="27.583" height="13.791" rx="1.642" fill="#F3F8FF"/>
        <rect x="39.547" y="42.106" width="5.172" height="5.172" rx="2.586" fill="#D4D4D2"/>
        <rect x="39.547" y="50.726" width="5.172" height="5.172" rx="2.586" fill="#D4D4D2"/>
        <rect x="39.547" y="59.346" width="16.377" height="5.172" rx="2.586" fill="#D4D4D2"/>
        <rect x="50.753" y="42.106" width="5.172" height="5.172" rx="2.586" fill="#D4D4D2"/>
        <rect x="50.753" y="50.726" width="5.172" height="5.172" rx="2.586" fill="#D4D4D2"/>
        <rect x="61.958" y="42.106" width="5.172" height="5.172" rx="2.586" fill="#FF9500"/>
        <rect x="61.958" y="50.726" width="5.172" height="5.172" rx="2.586" fill="#FF9500"/>
        <rect x="61.958" y="59.346" width="5.172" height="5.172" rx="2.586" fill="#FF9500"/>
        <g filter="url(#e)">
          <rect x="18.86" y="50.151" width="32.837" height="20.523" rx="1.527" fill="url(#f)"/>
          <path d="M20.769 55.79a.43.43 0 0 1 .43-.429h4.677a.43.43 0 0 1 .43.43v3.245a.43.43 0 0 1-.43.43h-4.678a.43.43 0 0 1-.43-.43v-3.245Z" fill="url(#g)" fill-opacity=".7"/>
          <path d="M20.769 56.826h1.578a.472.472 0 0 0 .42-.278c.142-.298.364-.654.617-.777a.248.248 0 0 1 .21.004c.166.074.413.226.568.46m-3.393 1.738h1.45c.238 0 .426.2.531.413.138.28.392.497.595.625.09.057.204.068.298.017.291-.16.53-.506.68-.789a.48.48 0 0 1 .417-.266h1.565m0-.874h-1.614c-.152 0-.3-.08-.337-.227-.036-.145-.033-.311.092-.42" stroke="#BCBCBC" stroke-width=".162"/>
          <g filter="url(#h)">
            <path d="M21.491 52.483c.06.011.111.043.153.096a.28.28 0 0 1 .063.179.278.278 0 0 1-.045.155.303.303 0 0 1-.127.108.462.462 0 0 1-.196.039h-.449v-1.123h.428c.077 0 .142.013.197.039.055.026.097.06.125.105a.26.26 0 0 1 .042.145.25.25 0 0 1-.052.162.301.301 0 0 1-.139.095Zm-.417-.074h.228c.06 0 .107-.014.14-.04a.145.145 0 0 0 .052-.12c0-.05-.017-.09-.052-.118a.207.207 0 0 0-.14-.044h-.228v.322Zm.249.5a.22.22 0 0 0 .147-.045.156.156 0 0 0 .053-.126.163.163 0 0 0-.056-.13.223.223 0 0 0-.15-.049h-.243v.35h.249Zm1.261-.078h-.47l-.08.229h-.193l.403-1.124h.213l.402 1.124h-.194l-.08-.23Zm-.051-.15-.183-.523-.184.522h.367Zm1.423.379h-.184l-.554-.839v.839h-.184v-1.124h.184l.554.836v-.836h.184v1.124Zm.86 0-.434-.503v.503h-.184v-1.123h.184v.512l.436-.512h.231l-.487.562.496.56h-.241Zm1.747 0h-.185l-.554-.839v.839h-.184v-1.124h.184l.554.836v-.836h.184v1.124Zm.918-.23h-.47l-.08.23h-.193l.402-1.124h.213l.403 1.124h-.194l-.08-.23Zm-.052-.15-.182-.522-.184.522h.367Zm1.684-.743v1.123h-.184v-.769l-.342.769h-.128l-.344-.769v.769h-.184v-1.123h.198l.394.88.393-.88h.197Zm.426.149v.33h.388v.15h-.388v.344h.436v.15h-.62v-1.124h.62v.15h-.436Z" fill="#fff" fill-opacity=".8" shape-rendering="crispEdges"/>
          </g>
          <g filter="url(#i)" fill="#fff" fill-opacity=".8" shape-rendering="crispEdges">
            <path d="M20.818 67.688a.454.454 0 0 1 .235-.413.48.48 0 0 1 .24-.062c.099 0 .187.025.263.074a.41.41 0 0 1 .168.206h-.183a.244.244 0 0 0-.1-.11.297.297 0 0 0-.148-.036.324.324 0 0 0-.165.041.293.293 0 0 0-.113.12.388.388 0 0 0-.04.18c0 .069.013.129.04.18a.302.302 0 0 0 .278.162.298.298 0 0 0 .148-.036.245.245 0 0 0 .1-.11h.183a.41.41 0 0 1-.168.206.485.485 0 0 1-.263.072.463.463 0 0 1-.474-.474ZM22.463 67.965h-.39l-.066.19h-.159l.333-.93h.176l.333.93h-.16l-.067-.19Zm-.043-.125-.151-.431-.152.431h.303ZM23.317 68.154l-.214-.371h-.116v.371h-.152v-.928h.32c.072 0 .132.012.18.037.05.025.088.058.112.1a.279.279 0 0 1-.016.306.267.267 0 0 1-.162.1l.23.385h-.182Zm-.33-.493h.168c.057 0 .1-.014.129-.043a.153.153 0 0 0 .044-.115.146.146 0 0 0-.043-.112c-.029-.027-.072-.041-.13-.041h-.168v.311ZM23.982 67.225c.1 0 .186.02.26.058a.396.396 0 0 1 .172.163c.041.07.061.153.061.247 0 .095-.02.177-.061.246a.4.4 0 0 1-.172.16.579.579 0 0 1-.26.055h-.303v-.928h.303Zm0 .805c.11 0 .192-.03.25-.088a.34.34 0 0 0 .087-.249.35.35 0 0 0-.087-.252c-.058-.061-.14-.091-.25-.091h-.15v.68h.15ZM25.715 67.225v.93h-.152v-.407h-.437v.406h-.152v-.928h.152v.398h.437v-.398h.152ZM26.34 68.164a.465.465 0 0 1-.474-.476.454.454 0 0 1 .235-.413.48.48 0 0 1 .239-.062.476.476 0 0 1 .411.23.48.48 0 0 1 .063.245c0 .09-.021.173-.063.246a.452.452 0 0 1-.172.17.484.484 0 0 1-.24.06Zm0-.133a.293.293 0 0 0 .277-.162.385.385 0 0 0 .04-.181.378.378 0 0 0-.04-.18.285.285 0 0 0-.113-.12.324.324 0 0 0-.165-.04.324.324 0 0 0-.164.04.293.293 0 0 0-.113.12.387.387 0 0 0-.04.18c0 .069.013.129.04.182a.302.302 0 0 0 .113.12.324.324 0 0 0 .165.041ZM27.116 68.031h.314v.123h-.466v-.928h.152v.805ZM27.861 67.225c.099 0 .185.02.26.058a.397.397 0 0 1 .172.163c.04.07.061.153.061.247 0 .095-.02.177-.061.246a.401.401 0 0 1-.173.16.58.58 0 0 1-.259.055h-.303v-.928h.303Zm0 .805c.109 0 .192-.03.25-.088a.339.339 0 0 0 .087-.249.35.35 0 0 0-.087-.252c-.058-.061-.141-.091-.25-.091h-.151v.68h.151ZM28.657 67.348v.273h.321v.124h-.32v.285h.36v.124h-.513v-.93h.513v.124h-.36ZM29.688 68.154l-.213-.371h-.117v.371h-.152v-.928h.32c.072 0 .132.012.181.037.05.025.087.058.111.1a.279.279 0 0 1-.016.306.266.266 0 0 1-.162.1l.23.385h-.182Zm-.33-.493h.169c.057 0 .1-.014.128-.043a.153.153 0 0 0 .044-.115.146.146 0 0 0-.043-.112c-.028-.027-.071-.041-.13-.041h-.168v.311ZM31.16 68.154h-.152l-.458-.693v.693h-.152v-.93h.152l.458.692v-.692h.153v.93ZM31.92 67.965h-.388l-.067.19h-.16l.334-.93h.176l.333.93h-.16l-.067-.19Zm-.042-.125-.151-.431-.152.431h.303ZM33.27 67.225v.93h-.152v-.637l-.283.636h-.105l-.285-.636v.636h-.153v-.928h.165l.326.728.325-.728h.163ZM33.623 67.348v.273h.321v.124h-.32v.285h.36v.124h-.513v-.93h.513v.124h-.36Z"/>
          </g>
          <g filter="url(#j)" fill="#fff" fill-opacity=".8" shape-rendering="crispEdges">
            <path d="M36.484 67.319v-.139h.278v.974h-.154v-.835h-.124ZM37.056 67.947c.085-.074.152-.134.201-.182a.827.827 0 0 0 .125-.15.287.287 0 0 0 .049-.154.188.188 0 0 0-.039-.126c-.025-.03-.064-.045-.119-.045a.154.154 0 0 0-.123.05.208.208 0 0 0-.045.134h-.147c.003-.102.033-.179.09-.233a.316.316 0 0 1 .224-.081.31.31 0 0 1 .227.08.284.284 0 0 1 .083.214.38.38 0 0 1-.05.186.736.736 0 0 1-.116.159c-.044.046-.101.1-.17.161l-.06.054h.423v.127h-.65v-.111l.096-.083ZM38.257 66.893l-.363 1.495h-.15l.362-1.495h.151ZM38.513 67.947c.086-.074.153-.134.202-.182a.823.823 0 0 0 .124-.15.286.286 0 0 0 .05-.154.187.187 0 0 0-.039-.126c-.025-.03-.065-.045-.119-.045a.154.154 0 0 0-.123.05.208.208 0 0 0-.045.134h-.147c.002-.102.033-.179.09-.233a.316.316 0 0 1 .224-.081.31.31 0 0 1 .227.08.284.284 0 0 1 .083.214.379.379 0 0 1-.05.186.736.736 0 0 1-.116.159c-.044.046-.102.1-.171.161l-.06.054h.423v.127h-.649v-.111l.096-.083ZM39.724 67.406a.16.16 0 0 0-.053-.092.17.17 0 0 0-.108-.031.175.175 0 0 0-.158.081.527.527 0 0 0-.055.268.23.23 0 0 1 .102-.091.33.33 0 0 1 .144-.032c.059 0 .11.013.155.038.045.026.08.062.105.11a.359.359 0 0 1 .04.172.364.364 0 0 1-.038.168.273.273 0 0 1-.108.116.344.344 0 0 1-.174.041.349.349 0 0 1-.217-.06.329.329 0 0 1-.11-.172 1.053 1.053 0 0 1-.03-.277c0-.326.115-.489.345-.489.089 0 .159.024.21.072a.285.285 0 0 1 .09.178h-.14Zm-.161.231c-.055 0-.101.017-.14.05-.037.032-.056.078-.056.14 0 .061.018.11.053.147a.2.2 0 0 0 .148.053c.056 0 .1-.017.132-.052a.194.194 0 0 0 .05-.139.207.207 0 0 0-.048-.144c-.032-.037-.078-.055-.14-.055Z"/>
          </g>
          <g filter="url(#k)" fill="#fff" fill-opacity=".8" shape-rendering="crispEdges">
            <path d="M20.769 63.082v-.291h.545v1.648h-.326v-1.357h-.22ZM21.888 64.082c.144-.12.26-.221.346-.301a1.43 1.43 0 0 0 .215-.253.47.47 0 0 0 .086-.258.275.275 0 0 0-.055-.181c-.036-.044-.092-.066-.167-.066a.21.21 0 0 0-.174.077.325.325 0 0 0-.063.206h-.308c.006-.18.06-.318.16-.411a.555.555 0 0 1 .39-.14c.171 0 .303.045.395.137.092.09.138.21.138.36 0 .117-.031.23-.095.337-.063.107-.136.2-.217.28a7.156 7.156 0 0 1-.319.285h.667v.263H21.77v-.236l.118-.1ZM23.253 63.225a.459.459 0 0 1 .158-.349c.1-.082.23-.124.391-.124.11 0 .205.02.283.059a.408.408 0 0 1 .238.378.392.392 0 0 1-.075.242.357.357 0 0 1-.174.13v.01a.375.375 0 0 1 .203.144c.05.07.075.159.075.267 0 .09-.021.171-.063.242a.422.422 0 0 1-.183.168.652.652 0 0 1-.29.059.644.644 0 0 1-.416-.13c-.107-.085-.164-.212-.17-.38h.308a.252.252 0 0 0 .075.18.282.282 0 0 0 .196.065c.077 0 .136-.021.177-.064a.231.231 0 0 0 .063-.167c0-.09-.029-.155-.086-.194a.48.48 0 0 0-.267-.06h-.065v-.26h.065c.214 0 .321-.07.321-.214a.196.196 0 0 0-.058-.152c-.038-.036-.093-.054-.165-.054-.071 0-.126.02-.166.059a.231.231 0 0 0-.065.145h-.31ZM24.75 64.118v-.249l.74-1.058h.368v1.031h.2v.276h-.2v.321h-.316v-.321h-.792Zm.812-.968-.463.692h.463v-.692ZM29.19 63.064h-.734v.387a.332.332 0 0 1 .136-.095.464.464 0 0 1 .188-.039c.12 0 .22.027.296.08.077.052.133.12.168.203a.664.664 0 0 1 .052.262c0 .174-.05.313-.15.419-.098.105-.238.158-.42.158a.62.62 0 0 1-.412-.129.484.484 0 0 1-.174-.337h.308c.013.06.043.109.09.145.048.036.11.054.183.054.09 0 .156-.028.201-.083a.341.341 0 0 0 .068-.222c0-.093-.023-.164-.07-.213-.045-.05-.112-.074-.201-.074a.257.257 0 0 0-.158.047.259.259 0 0 0-.09.127h-.304v-.968h1.022v.278ZM30.553 63.202a.257.257 0 0 0-.08-.142c-.035-.032-.088-.048-.157-.048a.25.25 0 0 0-.231.127c-.048.083-.073.218-.075.407a.36.36 0 0 1 .159-.14.498.498 0 0 1 .226-.052c.098 0 .184.02.26.063a.437.437 0 0 1 .176.185c.042.08.064.177.064.29a.616.616 0 0 1-.066.287.458.458 0 0 1-.188.195.594.594 0 0 1-.296.07.595.595 0 0 1-.371-.104.55.55 0 0 1-.188-.29 1.753 1.753 0 0 1-.052-.461c0-.276.048-.484.143-.624.095-.142.245-.213.45-.213.158 0 .281.043.368.129a.512.512 0 0 1 .152.321h-.294Zm-.23.412a.297.297 0 0 0-.202.07c-.054.047-.081.114-.081.203 0 .09.024.16.074.21a.29.29 0 0 0 .215.078.25.25 0 0 0 .192-.075.276.276 0 0 0 .073-.201.297.297 0 0 0-.07-.208c-.046-.052-.113-.077-.202-.077ZM32.356 63.03l-.602 1.41h-.321l.606-1.374h-.774v-.271h1.09v.235ZM32.983 63.566a.386.386 0 0 1-.226-.364c0-.081.02-.155.06-.222a.43.43 0 0 1 .188-.16.704.704 0 0 1 .308-.061c.12 0 .222.02.305.06a.414.414 0 0 1 .251.383.397.397 0 0 1-.224.364.44.44 0 0 1 .195.158.43.43 0 0 1 .07.247.464.464 0 0 1-.08.27.497.497 0 0 1-.212.173.736.736 0 0 1-.305.061.736.736 0 0 1-.305-.06.515.515 0 0 1-.213-.175.473.473 0 0 1-.077-.269.422.422 0 0 1 .265-.405Zm.579-.319a.22.22 0 0 0-.068-.172.255.255 0 0 0-.181-.06.26.26 0 0 0-.181.06c-.044.041-.066.1-.066.175 0 .067.023.122.068.162.047.041.106.062.179.062.072 0 .132-.02.179-.062a.212.212 0 0 0 .07-.165Zm-.25.457a.325.325 0 0 0-.21.066.23.23 0 0 0-.079.187c0 .076.026.138.077.186a.31.31 0 0 0 .213.07c.089 0 .159-.024.21-.072a.24.24 0 0 0 .077-.184.227.227 0 0 0-.079-.185.309.309 0 0 0-.208-.068ZM36.137 63.082v-.291h.545v1.648h-.325v-1.357h-.22ZM37.256 64.082c.145-.12.26-.221.346-.301a1.43 1.43 0 0 0 .215-.253.47.47 0 0 0 .086-.258.276.276 0 0 0-.054-.181c-.036-.044-.092-.066-.168-.066a.21.21 0 0 0-.174.077.325.325 0 0 0-.063.206h-.308c.006-.18.06-.318.16-.411a.555.555 0 0 1 .39-.14c.172 0 .304.045.396.137.092.09.138.21.138.36 0 .117-.032.23-.095.337-.064.107-.136.2-.217.28a7.214 7.214 0 0 1-.32.285h.668v.263h-1.117v-.236l.117-.1ZM38.621 63.225a.46.46 0 0 1 .159-.349c.1-.082.23-.124.391-.124.11 0 .204.02.283.059a.408.408 0 0 1 .238.378.392.392 0 0 1-.075.242.357.357 0 0 1-.175.13v.01a.374.374 0 0 1 .204.144c.05.07.075.159.075.267 0 .09-.022.171-.064.242a.421.421 0 0 1-.183.168.652.652 0 0 1-.29.059.645.645 0 0 1-.416-.13c-.107-.085-.163-.212-.17-.38h.308a.253.253 0 0 0 .075.18.282.282 0 0 0 .197.065c.077 0 .136-.021.176-.064a.231.231 0 0 0 .063-.167c0-.09-.028-.155-.085-.194a.48.48 0 0 0-.267-.06h-.066v-.26h.066c.214 0 .32-.07.32-.214a.196.196 0 0 0-.058-.152c-.038-.036-.093-.054-.165-.054-.07 0-.126.02-.165.059a.231.231 0 0 0-.066.145h-.31ZM40.119 64.118v-.249l.74-1.058h.368v1.031h.199v.276h-.2v.321h-.316v-.321h-.791Zm.812-.968-.464.692h.464v-.692ZM44.558 63.064h-.733v.387a.332.332 0 0 1 .136-.095.464.464 0 0 1 .187-.039c.121 0 .22.027.297.08.077.052.132.12.167.203a.662.662 0 0 1 .052.262c0 .174-.05.313-.15.419-.097.105-.237.158-.42.158a.62.62 0 0 1-.412-.129.483.483 0 0 1-.174-.337h.308c.014.06.044.109.09.145.049.036.11.054.184.054.088 0 .156-.028.2-.083a.341.341 0 0 0 .069-.222c0-.093-.024-.164-.07-.213-.046-.05-.113-.074-.202-.074a.257.257 0 0 0-.158.047.26.26 0 0 0-.09.127h-.303v-.968h1.022v.278ZM45.921 63.202a.257.257 0 0 0-.079-.142c-.036-.032-.089-.048-.158-.048a.25.25 0 0 0-.23.127c-.049.083-.074.218-.075.407a.36.36 0 0 1 .158-.14.498.498 0 0 1 .226-.052c.098 0 .185.02.26.063a.437.437 0 0 1 .177.185c.042.08.063.177.063.29a.615.615 0 0 1-.066.287.458.458 0 0 1-.187.195.594.594 0 0 1-.297.07.595.595 0 0 1-.37-.104.55.55 0 0 1-.188-.29 1.752 1.752 0 0 1-.052-.461c0-.276.047-.484.142-.624.095-.142.245-.213.45-.213.159 0 .282.043.369.129a.51.51 0 0 1 .151.321h-.294Zm-.23.412a.297.297 0 0 0-.202.07c-.054.047-.08.114-.08.203 0 .09.024.16.074.21a.29.29 0 0 0 .215.078.25.25 0 0 0 .192-.075.277.277 0 0 0 .072-.201.297.297 0 0 0-.07-.208c-.045-.052-.112-.077-.201-.077ZM47.724 63.03l-.601 1.41H46.8l.606-1.374h-.773v-.271h1.09v.235ZM48.351 63.566a.386.386 0 0 1-.226-.364c0-.081.02-.155.061-.222a.43.43 0 0 1 .188-.16.704.704 0 0 1 .307-.061c.121 0 .223.02.306.06a.414.414 0 0 1 .25.383.397.397 0 0 1-.223.364.44.44 0 0 1 .194.158.43.43 0 0 1 .07.247.464.464 0 0 1-.291.443.737.737 0 0 1-.306.061.736.736 0 0 1-.305-.06.514.514 0 0 1-.212-.175.473.473 0 0 1-.077-.269.421.421 0 0 1 .265-.405Zm.58-.319a.22.22 0 0 0-.069-.172.255.255 0 0 0-.18-.06.26.26 0 0 0-.182.06c-.043.041-.065.1-.065.175 0 .067.023.122.068.162.046.041.106.062.178.062.073 0 .132-.02.179-.062a.212.212 0 0 0 .07-.165Zm-.25.457a.325.325 0 0 0-.21.066.23.23 0 0 0-.08.187c0 .076.026.138.078.186.053.047.123.07.212.07a.294.294 0 0 0 .21-.072.24.24 0 0 0 .078-.184.227.227 0 0 0-.08-.185.309.309 0 0 0-.208-.068Z"/>
          </g>
          <path d="M47.497 57.044c.086.163.207.563 0 .866m.57-1.177c.13.257.312.915 0 1.489m.507-1.814c.169.347.405 1.253 0 2.098m.545-2.355c.216.41.52 1.507 0 2.612" stroke="#fff" stroke-width=".258" stroke-linecap="round" stroke-linejoin="round"/>
        </g>
        <path d="M75.224 59.248s.557.344 2.126.344c2.463 0 2.463-.884 2.463-1.231v-.616c-2.462-.973-4.575-.062-4.59 1.503Z" fill="#A22C1A"/>
        <path d="M75.504 57.745h-.463l.021 1.648c1.637 0 1.789-1.648 3.52-1.648 1.025 0 1.232.615 1.232.615v-1.414c0-.289-.218-1.049-1.232-1.049-1.576 0-2.033 1.848-3.078 1.848Z" fill="#D91313"/>
        <path d="M73.32 59.248s-.557.344-2.126.344c-2.463 0-2.463-.884-2.463-1.231v-.616c2.462-.973 4.575-.062 4.59 1.503Z" fill="#A22C1A"/>
        <path d="M69.963 55.897c-1.014 0-1.232.76-1.232 1.049v1.414s.207-.615 1.232-.615c1.73 0 1.883 1.648 3.52 1.648l.02-1.648h-.462c-1.045 0-1.502-1.848-3.078-1.848Z" fill="#D91313"/>
        <path d="M78.582 55.897c-1.576 0-2.033 1.848-3.078 1.848h-.463l.021 1.648c.149 0 .281-.017.407-.042.297.101.882.24 1.882.24 2.463 0 2.463-.883 2.463-1.23v-1.416c0-.288-.218-1.048-1.232-1.048Zm1.078 1.848v.615c0 .295 0 1.078-2.31 1.078-.953 0-1.522-.127-1.83-.232l-.04-.014-.04.008c-.08.015-.154.026-.226.033l-.017-1.335h.307c.535 0 .916-.403 1.319-.83.47-.5.957-1.017 1.76-1.017.883 0 1.077.646 1.077.895v.799Z" fill="url(#l)"/>
        <path d="M69.963 55.897c-1.014 0-1.232.76-1.232 1.049V58.36c0 .348 0 1.232 2.463 1.232 1 0 1.585-.14 1.881-.241.127.025.259.042.407.042l.021-1.648h-.462c-1.045 0-1.502-1.848-3.078-1.848Zm3.367 3.336a2.153 2.153 0 0 1-.226-.033l-.04-.008-.039.014c-.309.105-.877.232-1.831.232-2.309 0-2.309-.783-2.309-1.078v-1.415c0-.248.193-.894 1.078-.894.802 0 1.288.517 1.76 1.017.402.427.782.83 1.318.83h.307l-.018 1.335Z" fill="url(#m)"/>
        <path d="M75.504 59.592H73.04v-1.847s0-.616 1.231-.616c1.232 0 1.232.616 1.232.616v1.847Z" fill="#D91313"/>
        <path d="M80.43 70.673H68.114a.616.616 0 0 1-.615-.615v-8.004h13.545v8.004c0 .34-.276.615-.616.615Z" fill="#FFC200"/>
        <path d="M80.89 62.208v7.85a.462.462 0 0 1-.46.461H68.114a.462.462 0 0 1-.461-.461v-7.85H80.89Zm.155-.154H67.5v8.004c0 .34.276.615.615.615H80.43c.34 0 .616-.275.616-.615v-8.004Z" fill="url(#n)"/>
        <path d="M81.045 62.67H67.5a.616.616 0 0 1-.616-.616v-2.462c0-.34.276-.616.616-.616h13.545c.34 0 .615.276.615.616v2.462c0 .34-.275.616-.615.616Z" fill="#FFC200"/>
        <path d="M81.045 59.13c.255 0 .462.207.462.462v2.462a.462.462 0 0 1-.462.462H67.5a.462.462 0 0 1-.462-.462v-2.462c0-.255.207-.462.462-.462h13.545Zm0-.154H67.5a.616.616 0 0 0-.616.616v2.462c0 .34.276.616.616.616h13.545c.34 0 .615-.276.615-.616v-2.462a.616.616 0 0 0-.615-.616Z" fill="url(#o)"/>
        <path d="M75.504 58.976H73.04v11.698h2.463V58.976Z" fill="#FA472C"/>
        <rect x="16.085" y="70.781" width="66.679" height="1.075" rx=".538" fill="#121425" fill-opacity=".08"/>
        <circle cx="25.109" cy="37.432" r="7.799" fill="#BD8E1D"/>
        <circle cx="25.694" cy="36.893" r="7.799" fill="#FCC12E"/>
        <circle cx="25.695" cy="36.893" r="6.899" fill="#F3AF19"/>
        <circle cx="25.694" cy="36.893" r="6.157" fill="#FDD835"/>
        <path d="m28.191 35.03-.249.9h-4.75l.25-.9h4.75Zm-2.299 5.557-2.552-3.009-.005-.756h1.213c.314 0 .573-.056.776-.167.206-.115.36-.27.462-.462.101-.196.152-.414.152-.655 0-.26-.047-.49-.142-.69a1.02 1.02 0 0 0-.452-.467c-.206-.111-.478-.167-.817-.167h-1.33l.275-1.015h1.055c.6 0 1.096.09 1.492.269.396.18.692.44.888.781.2.342.3.755.3 1.239 0 .422-.073.796-.219 1.121a1.76 1.76 0 0 1-.705.782c-.325.196-.756.318-1.294.365l2.334 2.765v.066h-1.43Zm2.304-7.388-.254.898h-3.881l.248-.898h3.887Z" fill="#F3AF19"/>
        <circle cx="2.545" cy="2.545" r="2.545" transform="matrix(.99255 .12187 -.30902 .95106 73.439 20.026)" fill="#BD8E1D"/>
        <circle cx="2.545" cy="2.545" r="2.545" transform="matrix(.99255 .12187 -.30902 .95106 73.32 19.777)" fill="#FCC12E"/>
        <circle cx="2.277" cy="2.277" r="2.277" transform="matrix(.99255 .12187 -.30902 .95106 73.504 20.064)" fill="#F3AF19"/>
        <circle cx="2.009" cy="2.009" r="2.009" transform="matrix(.99255 .12187 -.30902 .95106 73.687 20.352)" fill="#FDD835"/>
        <path d="m76.056 22.029-.17.269-1.539-.19.171-.268 1.538.189Zm-1.304 1.633-.524-1.036.075-.234.393.048a.596.596 0 0 0 .268-.021.482.482 0 0 0 .311-.322.47.47 0 0 0 .024-.22.25.25 0 0 0-.1-.163.506.506 0 0 0-.247-.084l-.43-.053.19-.304.343.041c.194.024.345.072.456.143.11.072.18.164.208.278a.7.7 0 0 1-.027.396 1.002 1.002 0 0 1-.184.34.753.753 0 0 1-.307.214 1.153 1.153 0 0 1-.456.062l.477.951-.007.02-.463-.056Zm1.49-2.201-.172.268-1.257-.154.17-.27 1.26.155Z" fill="#F3AF19"/>
        <circle cx="2.545" cy="2.545" r="2.545" transform="matrix(.91355 -.40674 .43837 .8988 73.069 41.472)" fill="#BD8E1D"/>
        <circle cx="2.545" cy="2.545" r="2.545" transform="matrix(.91355 -.40674 .43837 .8988 73.184 41.326)" fill="#FCC12E"/>
        <circle cx="2.277" cy="2.277" r="2.277" transform="matrix(.91355 -.40674 .43837 .8988 73.547 41.458)" fill="#F3AF19"/>
        <circle cx="2.009" cy="2.009" r="2.009" transform="matrix(.91355 -.40674 .43837 .8988 73.909 41.59)" fill="#FDD835"/>
        <path d="m77.103 41.7.054.297-1.416.63-.054-.296 1.416-.63Zm.11 1.936-1.192-.544-.11-.221.362-.161a.511.511 0 0 0 .208-.153.348.348 0 0 0 .071-.196.53.53 0 0 0-.19-.396.35.35 0 0 0-.2-.077.572.572 0 0 0-.268.06l-.397.176-.063-.334.315-.14c.178-.08.34-.12.483-.12.144 0 .269.038.376.112a.808.808 0 0 1 .267.323.87.87 0 0 1 .095.358.547.547 0 0 1-.098.323.958.958 0 0 1-.334.279l1.092.501.01.02-.427.19Zm-.37-2.473.052.297-1.157.515-.054-.296 1.158-.516Z" fill="#F3AF19"/>
      </g>
    </g>
  </g>
  <defs>
    <linearGradient id="d" x1="41.846" y1="18.906" x2="75.246" y2="73.598" gradientUnits="userSpaceOnUse">
      <stop stop-color="#393939"/>
      <stop offset="1" stop-color="#1C1C1C"/>
    </linearGradient>
    <linearGradient id="f" x1="22.965" y1="33.322" x2="45.174" y2="71.13" gradientUnits="userSpaceOnUse">
      <stop stop-color="#FF5DA4"/>
      <stop offset="1" stop-color="#4D5ECB"/>
    </linearGradient>
    <linearGradient id="g" x1="20.798" y1="55.361" x2="26.197" y2="59.586" gradientUnits="userSpaceOnUse">
      <stop stop-color="#fff"/>
      <stop offset=".496" stop-color="#fff"/>
      <stop offset="1" stop-color="#fff"/>
    </linearGradient>
    <linearGradient id="l" x1="77.428" y1="55.897" x2="77.428" y2="59.592" gradientUnits="userSpaceOnUse">
      <stop stop-opacity=".02"/>
      <stop offset="1" stop-opacity=".15"/>
    </linearGradient>
    <linearGradient id="m" x1="71.118" y1="55.897" x2="71.118" y2="59.592" gradientUnits="userSpaceOnUse">
      <stop stop-opacity=".02"/>
      <stop offset="1" stop-opacity=".15"/>
    </linearGradient>
    <linearGradient id="n" x1="74.272" y1="62.054" x2="74.272" y2="70.673" gradientUnits="userSpaceOnUse">
      <stop stop-opacity=".02"/>
      <stop offset="1" stop-opacity=".15"/>
    </linearGradient>
    <linearGradient id="o" x1="74.272" y1="58.976" x2="74.272" y2="62.67" gradientUnits="userSpaceOnUse">
      <stop stop-opacity=".02"/>
      <stop offset="1" stop-opacity=".15"/>
    </linearGradient>
    <filter id="a" x="0" y="0" width="100" height="100" filterUnits="userSpaceOnUse" color-interpolation-filters="sRGB">
      <feFlood flood-opacity="0" result="BackgroundImageFix"/>
      <feColorMatrix in="SourceAlpha" values="0 0 0 0 0 0 0 0 0 0 0 0 0 0 0 0 0 0 127 0" result="hardAlpha"/>
      <feOffset dy="2"/>
      <feGaussianBlur stdDeviation="4"/>
      <feColorMatrix values="0 0 0 0 0 0 0 0 0 0 0 0 0 0 0 0 0 0 0.0927051 0"/>
      <feBlend in2="BackgroundImageFix" result="effect1_dropShadow_6_146"/>
      <feBlend in="SourceGraphic" in2="effect1_dropShadow_6_146" result="shape"/>
    </filter>
    <filter id="e" x="16.598" y="47.889" width="37.36" height="25.046" filterUnits="userSpaceOnUse" color-interpolation-filters="sRGB">
      <feFlood flood-opacity="0" result="BackgroundImageFix"/>
      <feGaussianBlur in="BackgroundImageFix" stdDeviation="1.131"/>
      <feComposite in2="SourceAlpha" operator="in" result="effect1_backgroundBlur_6_146"/>
      <feBlend in="SourceGraphic" in2="effect1_backgroundBlur_6_146" result="shape"/>
    </filter>
    <filter id="h" x="20.508" y="51.554" width="9.849" height="1.888" filterUnits="userSpaceOnUse" color-interpolation-filters="sRGB">
      <feFlood flood-opacity="0" result="BackgroundImageFix"/>
      <feColorMatrix in="SourceAlpha" values="0 0 0 0 0 0 0 0 0 0 0 0 0 0 0 0 0 0 127 0" result="hardAlpha"/>
      <feOffset/>
      <feGaussianBlur stdDeviation=".191"/>
      <feComposite in2="hardAlpha" operator="out"/>
      <feColorMatrix values="0 0 0 0 0 0 0 0 0 0 0 0 0 0 0 0 0 0 0.1 0"/>
      <feBlend in2="BackgroundImageFix" result="effect1_dropShadow_6_146"/>
      <feBlend in="SourceGraphic" in2="effect1_dropShadow_6_146" result="shape"/>
    </filter>
    <filter id="i" x="20.437" y="66.832" width="13.929" height="1.714" filterUnits="userSpaceOnUse" color-interpolation-filters="sRGB">
      <feFlood flood-opacity="0" result="BackgroundImageFix"/>
      <feColorMatrix in="SourceAlpha" values="0 0 0 0 0 0 0 0 0 0 0 0 0 0 0 0 0 0 127 0" result="hardAlpha"/>
      <feOffset/>
      <feGaussianBlur stdDeviation=".191"/>
      <feComposite in2="hardAlpha" operator="out"/>
      <feColorMatrix values="0 0 0 0 0 0 0 0 0 0 0 0 0 0 0 0 0 0 0.1 0"/>
      <feBlend in2="BackgroundImageFix" result="effect1_dropShadow_6_146"/>
      <feBlend in="SourceGraphic" in2="effect1_dropShadow_6_146" result="shape"/>
    </filter>
    <filter id="j" x="36.102" y="66.511" width="4.175" height="2.259" filterUnits="userSpaceOnUse" color-interpolation-filters="sRGB">
      <feFlood flood-opacity="0" result="BackgroundImageFix"/>
      <feColorMatrix in="SourceAlpha" values="0 0 0 0 0 0 0 0 0 0 0 0 0 0 0 0 0 0 127 0" result="hardAlpha"/>
      <feOffset/>
      <feGaussianBlur stdDeviation=".191"/>
      <feComposite in2="hardAlpha" operator="out"/>
      <feColorMatrix values="0 0 0 0 0 0 0 0 0 0 0 0 0 0 0 0 0 0 0.1 0"/>
      <feBlend in2="BackgroundImageFix" result="effect1_dropShadow_6_146"/>
      <feBlend in="SourceGraphic" in2="effect1_dropShadow_6_146" result="shape"/>
    </filter>
    <filter id="k" x="20.387" y="62.37" width="29.273" height="2.487" filterUnits="userSpaceOnUse" color-interpolation-filters="sRGB">
      <feFlood flood-opacity="0" result="BackgroundImageFix"/>
      <feColorMatrix in="SourceAlpha" values="0 0 0 0 0 0 0 0 0 0 0 0 0 0 0 0 0 0 127 0" result="hardAlpha"/>
      <feOffset/>
      <feGaussianBlur stdDeviation=".191"/>
      <feComposite in2="hardAlpha" operator="out"/>
      <feColorMatrix values="0 0 0 0 0 0 0 0 0 0 0 0 0 0 0 0 0 0 0.1 0"/>
      <feBlend in2="BackgroundImageFix" result="effect1_dropShadow_6_146"/>
      <feBlend in="SourceGraphic" in2="effect1_dropShadow_6_146" result="shape"/>
    </filter>
    <clipPath id="b">
      <rect x="8" y="6" width="84" height="84" rx="42" fill="#fff"/>
    </clipPath>
    <clipPath id="c">
      <path fill="#fff" transform="translate(13.934 17)" d="M0 0h73.131v57.008H0z"/>
    </clipPath>
  </defs>
</svg>
