<svg width="66" height="44" viewBox="0 0 66 44" fill="none" xmlns="http://www.w3.org/2000/svg">
<g id="Group 1070">
<path id="Path" d="M59.2235 38.9478C59.2235 39.08 59.22 39.209 59.22 39.3379H51.6052H48.9758H17.0274H14.3981H6.7832C6.7832 39.209 6.77979 39.0767 6.77979 38.9478C6.77979 25.1352 18.5197 13.9412 33.0016 13.9412C47.4836 13.9412 59.2235 25.1352 59.2235 38.9478Z" fill="#E6EDF5"/>
<path id="Path_2" d="M0.00686364 39.3383C0.0034489 39.1764 0 39.0111 0 38.8458C0 21.466 14.7755 7.37573 33 7.37573C51.2245 7.37573 66.0001 21.466 66.0001 38.8458C66.0001 39.0111 65.9967 39.1764 65.9933 39.3383H53.1026C53.1061 39.1764 53.1095 39.0111 53.1095 38.8458C53.1095 28.2566 44.1048 19.6675 33 19.6675C21.8918 19.6675 12.8906 28.2566 12.8906 38.8458C12.8906 39.0111 12.894 39.1764 12.8974 39.3383H0.00686364Z" fill="#FC4040"/>
<path id="Path_3" d="M32.9985 7.37524C51.2231 7.37524 65.9987 21.4655 65.9987 38.8453C65.9987 39.0106 65.9953 39.1759 65.9918 39.3379H53.1012C53.1046 39.1759 53.108 39.0106 53.108 38.8453C53.108 28.2561 44.1033 19.6671 32.9985 19.6671C32.9985 17.0123 32.9985 10.0002 32.9985 7.37524Z" fill="#00AF6C"/>
<path id="Path_4" d="M50.8372 3.91102C51.1616 4.05979 51.2948 4.43337 51.1343 4.74083L41.4569 23.1949C41.3032 23.4925 40.9242 23.6181 40.6066 23.4759C38.2983 22.4378 35.7167 21.856 32.9952 21.856C30.2702 21.856 27.6886 22.4345 25.3803 23.4759C25.0627 23.6181 24.6871 23.4925 24.53 23.1949L14.8526 4.74083C14.6921 4.43337 14.8287 4.05979 15.1497 3.91102C20.5416 1.40506 26.5959 0 32.9952 0C39.3944 0 45.4453 1.40506 50.8372 3.91102Z" fill="#FFD777"/>
<path id="Path_5" d="M32.9976 7.37524C38.3861 7.37524 43.4741 8.60839 47.9644 10.7904L42.2004 21.7895C39.4412 20.434 36.3133 19.6671 32.9976 19.6671C29.6819 19.6671 26.554 20.434 23.7983 21.7895L18.0308 10.7904C22.5246 8.60839 27.6091 7.37524 32.9976 7.37524Z" fill="#FAC727"/>
<path id="Path_6" d="M57.6367 23.4393L57.9065 23.7633C58.5553 24.7022 58.3538 25.9518 57.4455 26.6428L36.496 42.5943L36.4584 42.6274C34.9525 44.1184 32.511 44.4622 30.5543 43.325C28.2767 41.9993 27.522 39.1594 28.8709 36.984C29.4582 36.0385 30.346 35.374 31.35 35.0335L54.9596 23.0194C55.8542 22.5632 56.9469 22.7549 57.6367 23.4393Z" fill="#1E1F28"/>
<path id="Path_7" d="M34.8432 40.4623C34.2422 41.4343 32.9241 41.7417 31.9065 41.1466C30.8855 40.5549 30.5509 39.2854 31.1519 38.3134C31.7563 37.3414 33.071 37.034 34.092 37.6257C35.1096 38.2208 35.4476 39.4903 34.8432 40.4623Z" fill="#B4B4B4"/>
</g>
</svg>
