<svg xmlns="http://www.w3.org/2000/svg" width="418" height="303" xmlns:v="https://vecta.io/nano"><style><![CDATA[.B{fill:#fbad83}.C{fill:#fff}.D{fill:#1a2249}.E{fill:#303d72}.F{fill:#e68d5c}.G{fill:#00c99c}.H{fill:#00b98f}.I{fill:#d6815b}]]></style><path fill="#222747" d="M231.172 215.923v56.191h67.742l2.005-51.196z"/><g class="E"><path d="M309.562 83.798l12.063 65.629 41.625 3.02s2.112 5.605 1.056 10.176l-1.056 4.571s-46.005.819-53.478-1.626-7.438-61.953-7.305-68.493 7.096-13.277 7.096-13.277zm-67.481-3.037l-32.269 26.858-59.094-10.754s-3.877 7.712-4.167 10.579l-.29 2.873s58.281 17.878 65.849 17.518 35.739-23.426 35.739-23.426l-5.769-23.647z"/><path d="M286.205 73.167L310.016 83.3l-1.547 140.615s-45.754 8.986-63.8 4.347l-18.046-4.656L239.454 83.69c.215-2.292 1.857-4.202 4.101-4.772l21.257-5.471 21.392-.279z"/></g><path d="M310.016 106.578l-1.274 118.83s-35.888 7.163-56.343 5.432l57.617-124.262z" fill="#26335e"/><path d="M199.441 136.857l3.042 33.137 25.656 47.935-8.127 4.069-34.656-48.697-1.188-37.868z" class="F"/><path d="M132.364 242.407s-1.264 11.804-1.264 17.356 2.431 13.871 2.431 13.871h41.54l-3.012-34.93-39.695 3.703z" class="E"/><path d="M200.847 136.055s-3.539-22.292-10.191-28.515c-4.772-4.476-9.424-4.349-12.673-3.599s-6.249 12.083-3.085 27.368l2.46 11.708s17.121.583 23.489-6.962z" fill="#0cbfd1"/><path d="M155.34 95.948l-27.274 12.268 5.01 135.044h66.254l-5.969-132.538c-.12-2.594-1.548-4.945-3.785-6.23l-14.446-8.27-19.791-.274z" fill="#60d6e6"/><path d="M297.418 167.326l-5.872 57.959-62.835 26.547s-4.698 5.501 0 12.69l70.692-20.474-1.985-76.722z" fill="#e2e2e2"/><path d="M337.196 153.4l21.267 8.248c3.796 1.461 6.257 5.18 6.133 9.268l-3.282 104.236h-66.461l1.621-106.993c.073-5.069 3.305-9.545 8.074-11.181l14.12-4.839 18.527 1.261z" fill="#f0f1f4"/><g class="E"><path d="M69.224 91.391h-1v185.279h1zm-9.098 18.224h-1v162.499h1zm3.032 33.411h-1v135.163h1zm15.163 28.855h-1v104.789h1zm-22.744 30.374h-1v74.415h1z"/><path d="M81.381 130.499c-9.797-4.996-20.838-2.748-24.734 5.025s.864 18.096 10.609 23.115 30.485 23.686 34.381 15.942-10.494-39.086-20.256-44.082zm12.684 98.624c-8.497-9.245-23.089-9.534-32.597-.631s-10.315 23.599-1.818 32.855 21.436 39.298 30.938 30.401 11.974-53.374 3.477-62.625z"/></g><path d="M100.492 174.081c-11.46-7.797-25.708-6.77-31.819 2.299s-1.783 22.761 9.671 30.541 34.468 34.433 40.584 25.37-6.982-50.413-18.436-58.21z" class="G"/><path d="M101.681 174.135c10.958 7.427 23.392 44.904 19.637 56.975-10.114-30.6-16.685-39.652-27.159-50.772a51.061 51.061 0 0 0-14.612-10.789c6.725-1.743 14.967-.272 22.134 4.585z" class="H"/><path d="M34.915 137.031c13.249-4.396 26.767.591 30.191 11.119s-4.529 22.64-17.778 27.03-42.872 23.898-46.296 13.364 20.64-47.123 33.883-51.513z" class="G"/><path d="M34.637 138.518C22.274 142.584.392 174.668.705 187.069c17.813-26.189 26.467-32.973 39.37-40.657a50.156 50.156 0 0 1 16.728-6.267c-5.914-3.444-14.081-4.281-22.166-1.626z" class="H"/><path fill="#e2e2e2" d="M363.085 195.622l-2.486 79.53h-65.745l.623-19.431 54.407-30.158-4.925-40.013z"/><path d="M50.309 96.875c8.442 3.651 13.016 12.148 10.223 18.98s-11.9 9.424-20.337 5.774-31.439-6.909-28.646-13.747 30.323-14.651 38.76-11.006z" class="G"/><path d="M68.69 76.811c-5.396 3.646-7.402 9.994-4.479 14.176s9.656 4.613 15.046.967 21.028-9.12 18.129-13.296-23.306-5.486-28.696-1.846z" class="E"/><path d="M50.95 96.915c-7.961-3.577-32.87 3.428-38.118 10.203 20.294-5.734 27.606-5.337 37.41-3.447 3.919.759 7.681 2.257 11.11 4.426-1.455-4.587-5.195-8.839-10.402-11.182z" class="H"/><path fill="#a1c180" d="M417.67 269.077H14.348v6.075H417.67z"/><path d="M98.09 244.243c-12.033-6.837-26.171-4.743-31.591 4.685s-.058 22.612 11.969 29.449 37.023 31.421 42.455 21.981-10.806-49.272-22.833-56.115z" class="G"/><path d="M98.364 244.313c11.198 6.555 26.056 42.882 23.305 55.138-12.084-29.642-19.15-38.147-30.153-48.4-4.4-4.101-9.48-7.364-15.002-9.635 6.41-2.22 14.524-1.39 21.849 2.898z" class="H"/><path d="M24.651 207.04c15.265-10.437 35.51-10.437 45.22.046s5.23 27.439-10.059 37.888-44.621 44.76-54.331 34.287 3.905-61.773 19.17-72.222z" class="G"/><path d="M24.823 207.159c-14.477 10.01-27.477 56.693-20.807 71.031 10.541-38.109 18.705-49.697 32.074-64.13a68.7 68.7 0 0 1 19.197-14.409c-9.628-1.525-20.971.977-30.464 7.508z" class="H"/><path d="M307.94 252.372l-17.429 5.148c-5.906 1.859-9.576 4.788-9.288 5.789s.72 1.213.72 1.213h24.055l10.083-5.754-8.141-6.395z" class="B"/><path d="M363.153 165.807s22.144 54.899 17.482 71.971-72.458 26.744-72.458 26.744-1.975-4.98-2.331-8.788l-.379-3.808 59.235-20.516s-19.044-38.584-20.087-50.968 18.537-14.634 18.537-14.634z" fill="#f0f1f4"/><path d="M264.529 264.521h-90.415c-1.984 0-3.592-1.637-3.592-3.655v-64.067c0-2.019 1.608-3.655 3.592-3.655h90.415v71.378z" fill="#a9c2dc"/><path d="M266.045 264.521h-1.42c-1.726-.003-3.125-1.464-3.128-3.267V196.41c.003-1.803 1.402-3.264 3.128-3.267h1.42v71.378z" fill="#19192b"/><path d="M222.074 229.592c0 4.212-2.377 7.593-5.31 7.593s-5.304-3.4-5.304-7.593 2.377-7.593 5.304-7.593 5.31 3.4 5.31 7.593z" class="C"/><path fill="#19192b" d="M317.598 264.521h-51.552v4.556h51.552z"/><path d="M266.045 264.521h-92.491v4.556h92.491z" class="E"/><path fill="#0cbfd1" d="M132.387 244.778l-4.32-115.852 11.256-2.606 26.65 118.457z"/><path d="M337.309 153.443s-4.864 9.476-12.322 9.325-5.691-10.629-5.691-10.629l18.012 1.304z" class="C"/><path d="M305.115 106.578s-3.834 31.53-2.331 37.694 16.899 4.91 24.539 4.283 11.707.42 15.052-1.473-2.786-21.616-2.786-21.616l-34.474-18.888z" fill="#29281f"/><path d="M312.958 149.099c4.579.106 8.504-3.29 9.109-7.883s-2.304-8.911-6.751-10.02a.28.28 0 0 0-.342.199.29.29 0 0 0 .197.352c4.276 1.182 6.915 5.515 6.033 9.91s-4.981 7.346-9.374 6.748-7.576-4.54-7.278-9.014 3.975-7.949 8.408-7.945c.155 0 .281-.127.281-.284s-.127-.281-.281-.284c-4.974 0-9.007 4.079-9.007 9.111s4.032 9.111 9.007 9.111z" class="C"/><path d="M317.598 139.404l1.448 12.813s1.724 2.957 10.735 2.957c2.603.049 5.18-.529 7.528-1.685v-22.611l-19.711 8.526z" class="B"/><path d="M317.598 140.199l1.006 8.854a16.324 16.324 0 0 0 4.978-.38c2.152-.505 8.298-6.989 12.211-16.277l-18.195 7.803z" class="F"/><path d="M306.205 99.471s-2.125 21.42.842 31.79 12.193 14.74 20.373 12.859c3.031-.708 14.004-13.236 15.392-28.713s.064-20.14-2.415-23.412-25.007-7.346-29.1-3.767-5.092 11.243-5.092 11.243z" class="B"/><path d="M313.049 99.365s-7.084 9.951-8.871 10.242-1.984-6.32-1.543-12.267c.721-9.395 7.286-13.541 7.286-13.541l3.128 15.567z" fill="#29281f"/><path d="M305.468 91.797s2.079 11.366 6.442 18.163 20.744 4.319 23.673 4.522-.416 23.062-2.495 30.684 12.885 5.352 17.664 4.325 7.274-41.179 1.037-56.73-31.995-14.947-39.058-11.54c-4.142 2-6.905 6.024-7.262 10.576z" fill="#312f24"/><path d="M343.374 126.969c0 2.872-4.096 5.427-6.606 5.427s-2.492-2.555-2.492-5.427 2.039-5.204 4.549-5.204 4.549 2.31 4.549 5.204z" class="B"/><path d="M341.789 125.803c-.322-1.687-2.82-2.744-4.174-2.478s2.202 1.229 2.524 2.91-1.577 3.362-.224 3.096 2.195-1.847 1.873-3.528z" class="F"/><path d="M324.564 120.246c.273-.001.513-.174.59-.427s-.028-.523-.257-.666l-5.391-3.368a.636.636 0 0 0-.487-.077l-3.993 1.004c-.33.084-.527.409-.441.728a.62.62 0 0 0 .755.425l3.728-.939 5.163 3.225a.633.633 0 0 0 .333.095zm-21.547-1.519a.547.547 0 0 0 .3-.091l2.663-1.763 3.336.899a.549.549 0 0 0 .538-.15.579.579 0 0 0 .142-.552c-.052-.197-.203-.35-.396-.401l-3.603-.961a.546.546 0 0 0-.439.074l-2.869 1.9c-.208.137-.302.398-.231.641s.289.408.537.406h.022z" fill="#f76a00"/><path d="M337.222 150.592c4.576.093 8.493-3.294 9.103-7.873s-2.28-8.891-6.718-10.022a.29.29 0 0 0-.357.207c-.042.157.05.318.205.361 4.286 1.182 6.931 5.516 6.047 9.911s-4.992 7.347-9.396 6.749-7.594-4.54-7.295-9.015 3.984-7.95 8.427-7.946c.155 0 .281-.127.281-.284s-.126-.284-.281-.284c-4.986 0-9.027 4.08-9.027 9.112s4.042 9.112 9.027 9.112l-.017-.028z" class="C"/><path d="M155.359 70.13v25.603s4.273 3.653 11.786 3.215c6.957-.403 8.059-2.917 8.059-2.917l2.899-13.28-22.72-12.598" class="B"/><path d="M175.683 94.406a31.31 31.31 0 0 1-7.969-4.607c-3.625-2.694-6.342-6.368-7.806-10.556l15.793 2.905 2.402 1.29-2.474 10.992" class="F"/><path d="M194.782 56.17h-13.646v1h13.646z" class="D"/><path d="M191.013 37.985s2.253 5.507 2.253 10.324c0 3.881-1.585 11.19-1.585 11.19l-9.029-22.78 8.361 1.266z" fill="#7a4029"/><path d="M190.15 80.401c-7.038 14.626-24.468 5.984-31.94-1.393s-6.451-35.567-4.369-40.906 19.354-9.669 28.433-6.228 14.903 33.895 7.876 48.527" class="B"/><path d="M193.265 70.13c-.363 3.552-1.314 7.026-2.818 10.288-2.867 5.793-7.416 7.936-12.344 7.936 4.922 0 9.477-2.132 12.338-7.936 1.504-3.262 2.456-6.736 2.819-10.288" fill="#d7c5be"/><path d="M152.327 59.499h7.684s5.087 13.82 9.452 15.148a3.874 3.874 0 0 0 1.076.148c3.639 0 8.48-4.577 14.59-4.844.572 0 1.076-.041 1.539-.041 2.615 0 3.788.403 5.081 1.31a35.15 35.15 0 0 1-2.684 10.53c-2.724 5.929-7.06 8.123-11.747 8.123-7.101 0-15.019-5.004-19.408-9.546-3.524-3.646-5.109-12.273-5.573-20.828" fill="#d48c68"/><path d="M154.653 60.716c2.51-.238 4.819-1.511 6.398-3.526s2.293-4.602 1.979-7.168c-.392-3.231-1.321-4.267-.502-7.327 1.604-6.108 8.769-5.534 13.581-3.249s10.067 2.273 14.21-.941c1.973-1.527 4.454-5.782 1.771-10.227s-12.225-9.783-12.225-9.783 1.154 2.669.773 4.054-25.737-6.433-30.929 5.125 1.731 33.344 1.731 33.344l3.214-.302z" fill="#7a4029"/><path d="M150.811 61.635c0 3.696 4.789 6.976 7.726 6.976s2.888-3.281 2.888-6.976-2.383-6.692-5.321-6.692-5.293 2.996-5.293 6.692z" class="B"/><path d="M152.363 60.368c-.298 1.566 1.323 3.395 2.48 3.664s-1.333-1.867-1.03-3.432 2.353-2.308 1.196-2.577-2.343.78-2.646 2.346z" class="F"/><g class="D"><path d="M189.475 64.055c2.926 0 5.307-3.065 5.307-6.834s-2.381-6.834-5.307-6.834-5.307 3.065-5.307 6.834 2.411 6.834 5.307 6.834zm0-13.066c2.593 0 4.701 2.794 4.701 6.232s-2.108 6.232-4.701 6.232-4.701-2.8-4.701-6.232 2.138-6.232 4.701-6.232zm-12.13 13.066c2.926 0 5.307-3.065 5.307-6.834s-2.381-6.834-5.307-6.834-5.307 3.065-5.307 6.834 2.381 6.834 5.307 6.834zm0-13.066c2.593 0 4.701 2.794 4.701 6.232s-2.108 6.232-4.701 6.232-4.701-2.8-4.701-6.232 2.108-6.232 4.701-6.232z"/><path d="M172.038 56.17h-12.13v1h12.13zm12.13 0h-3.032v1h3.032z"/></g><path d="M188.717 73.167h-10.614s2.127 4.433 5.733 4.554 4.88-4.554 4.88-4.554z" class="C"/><path d="M115.321 136.952l17.138 5.809-8.273 32.793 18.379 70.553 5.212 3.027s.295 7.552-5.395 9.004-7.753-2.684-7.753-2.684v-5.536l-27.775-71.906c-.396-4.078 8.468-41.059 8.468-41.059z" class="B"/><path d="M135.58 143.727s6.758-19.406 3.92-27.234c-2.046-5.645-5.996-7.547-9.041-8.341s-10.484 7.007-14.516 20.618l-3.039 10.439s14.055 7.835 22.676 4.518z" fill="#60d6e6"/><path d="M149.838 96.739s-1.703-1.781-6.087 0-5.269 4.703-5.036 7.631 5.593 4.412 8.977 3.42 6.382-4.852 6.138-6.419-3.992-4.632-3.992-4.632zm215.466 74.702a8.2 8.2 0 0 0 3.737-5.599c.382-2.308-.25-4.667-1.738-6.485l-.571-.655c-3.913-4.291-7.562-4.037-10.692-2.53s-2.376 8.261.228 11.711 7.202 4.625 8.83 3.687l.206-.13z" class="I"/><path d="M285.756 73.167l-7.237 10.631-7.522-5.685-7.985 3.993 1.069-8.634z" class="C"/><path d="M285.756 45.831v26.955s-4.562 3.841-12.588 3.38c-7.423-.426-8.601-3.092-8.601-3.092l-3.07-13.981 24.26-13.262z" class="I"/><path d="M264.124 71.464c4.117.894 8.875-1.607 12.429-4.365 6.553-5.084 9.204-15.193 9.204-15.193l-21.681 6.364-2.579 1.385 2.627 11.81z" fill="#b76342"/><path d="M249.567 13.174s-3.461 1.36-3.221 10.074c.117 4.122 1.58 11.952 1.58 11.952l9.022-24.299-7.381 2.273z" class="D"/><path d="M248.171 58.509c7.548 15.786 26.282 6.458 34.308-1.497s6.91-38.365 4.689-44.136-20.76-10.438-30.54-6.716-16.005 36.557-8.457 52.35z" class="I"/><g class="D"><path d="M277.089 32.163s-2.04 17.459-6.748 18.855c-4.045 1.173-9.62-4.64-16.871-4.951-4.044-.176-5.495.211-7.136 1.338a36.376 36.376 0 0 0 2.889 11.111c7.384 15.775 25.711 6.453 33.563-1.496 3.779-3.86 5.512-12.971 6.003-21.993l-11.7-2.863z"/><path d="M279.939 38.053s-2.298.224-3.236-1.117 1.759-8.915-.967-16.949c-1.941-5.755-10.765-9.053-17.988-7.66s-9.041 2.02-9.78-.04 2.163-6.906 4.69-8.823 14.253-5.306 24.039-1.381 11.726 6.532 13.942 12.759.78 21.829 0 22.825-10.7.386-10.7.386z"/></g><path d="M290.305 38.078c0 4.105-5.457 7.753-8.806 7.753s-3.324-3.649-3.324-7.753 2.714-7.434 6.068-7.434 6.062 3.329 6.062 7.434z" class="I"/><path d="M244.818 47.35s0 18.972 2.284 22.395 9.771 4.162 13.161 2.736 8.921-6.572 10.271-10.927-20.071-10.595-20.071-10.595l-5.644-3.609z" class="D"/><path d="M288.734 35.146c.454 1.953-1.98 4.24-3.719 4.581s2-2.331 1.546-4.291-3.533-2.879-1.794-3.22 3.519.977 3.966 2.93z" fill="#8e4a2f"/><path d="M249.366 54.105s7.972.229 9.299-.229l1.315-.452s-.035 4.206-3.733 5.657-5.72-1.228-6.215-2.711l-.666-2.265z" class="C"/><path d="M251.832 29.107c.277-.003.512-.191.559-.447s-.109-.506-.37-.595a12.677 12.677 0 0 0-6.759 0c-.207.044-.37.192-.425.384s.008.396.163.532.377.18.578.115a11.708 11.708 0 0 1 6.065 0c.062.013.126.017.189.011zm12.155 1.537a.559.559 0 0 0 .356-.122.49.49 0 0 0 .054-.718c-.129-.138-3.17-3.372-8.588-1.737-.184.055-.323.198-.365.375s.02.363.162.486.343.165.527.111c4.728-1.426 7.342 1.314 7.45 1.431.102.11.25.173.404.173z" class="D"/></svg>